<?xml version="1.0" encoding="UTF-8" standalone="no"?>
<!-- Created with Inkscape (http://www.inkscape.org/) -->
<svg
   xmlns:dc="http://purl.org/dc/elements/1.1/"
   xmlns:cc="http://creativecommons.org/ns#"
   xmlns:rdf="http://www.w3.org/1999/02/22-rdf-syntax-ns#"
   xmlns:svg="http://www.w3.org/2000/svg"
   xmlns="http://www.w3.org/2000/svg"
   xmlns:sodipodi="http://sodipodi.sourceforge.net/DTD/sodipodi-0.dtd"
   xmlns:inkscape="http://www.inkscape.org/namespaces/inkscape"
   height="952.53998"
   width="971.72998"
   id="svg2"
   sodipodi:version="0.32"
   inkscape:version="0.46"
   sodipodi:docbase="D:\dokumenty\kot\do wiki\upload"
   sodipodi:docname="DNA_structure_and_bases_FR.svg"
   version="1.0"
   inkscape:output_extension="org.inkscape.output.svg.inkscape">
  <defs
     id="defs4">
    <inkscape:perspective
       sodipodi:type="inkscape:persp3d"
       inkscape:vp_x="0 : 476.26999 : 1"
       inkscape:vp_y="0 : 1000 : 0"
       inkscape:vp_z="971.72998 : 476.26999 : 1"
       inkscape:persp3d-origin="485.86499 : 317.51333 : 1"
       id="perspective92" />
  </defs>
  <sodipodi:namedview
     id="base"
     pagecolor="#ffffff"
     bordercolor="#666666"
     borderopacity="1.0"
     inkscape:pageopacity="0.0"
     inkscape:pageshadow="2"
     inkscape:cx="485.86499"
     inkscape:cy="476.26999"
     inkscape:zoom="0.51128581"
     inkscape:document-units="px"
     inkscape:current-layer="g2088"
     inkscape:window-width="1676"
     inkscape:window-height="1000"
     inkscape:window-x="0"
     inkscape:window-y="14"
     showguides="true"
     inkscape:guide-bbox="true"
     width="971.73px"
     height="952.54px"
     showgrid="false" />
  <metadata
     id="metadata7">
    <rdf:RDF>
      <cc:Work
         rdf:about="">
        <dc:format>image/svg+xml</dc:format>
        <dc:type
           rdf:resource="http://purl.org/dc/dcmitype/StillImage" />
      </cc:Work>
    </rdf:RDF>
  </metadata>
  <g
     inkscape:groupmode="layer"
     inkscape:label="Warstwa 1"
     id="layer1"
     transform="translate(35.77612,-47.711)">
    <g
       id="g2088"
       transform="translate(2.997623,0.997659)">
      <path
         id="path2907"
         d="M 283.15394,856.9186 L 437.43543,866.66269 C 437.43543,866.66269 443.93149,871.53474 443.93149,875.86545 C 443.93149,880.19616 439.60079,884.52686 439.60079,884.52686 L 259.87638,874.24143 L 283.15394,856.9186 z "
         style="color:black;fill:#d7d7d7;fill-opacity:1;fill-rule:nonzero;stroke:black;stroke-width:2;stroke-linecap:butt;stroke-linejoin:miter;marker:none;marker-start:none;marker-mid:none;marker-end:none;stroke-miterlimit:4;stroke-dasharray:none;stroke-dashoffset:0;stroke-opacity:1;visibility:visible;display:inline;overflow:visible" />
      <path
         sodipodi:nodetypes="ccccc"
         d="M 232.41444,718.33844 C 230.43955,721.01506 227.48893,725.8096 225.92593,732.21475 C 295.33035,734.42052 364.76365,736.36276 434.1874,738.09478 C 440.14212,738.09478 460.98366,720.23061 460.98366,720.23061 L 232.41444,718.33844 z "
         style="color:black;fill:#d7d7d7;fill-opacity:1;fill-rule:nonzero;stroke:black;stroke-width:2;stroke-linecap:butt;stroke-linejoin:miter;marker:none;marker-start:none;marker-mid:none;marker-end:none;stroke-miterlimit:4;stroke-dasharray:none;stroke-dashoffset:0;stroke-opacity:1;visibility:visible;display:inline;overflow:visible"
         id="path2896" />
      <path
         id="path2903"
         d="M 383.30157,764.3497 L 256.08701,762.18435 C 256.08701,762.18435 251.21496,765.43238 251.21496,769.22175 C 251.21496,773.01112 254.46299,778.96584 254.46299,778.96584 L 361.10669,780.04852 L 383.30157,764.3497 z "
         style="color:black;fill:#d7d7d7;fill-opacity:1;fill-rule:nonzero;stroke:black;stroke-width:2;stroke-linecap:butt;stroke-linejoin:miter;marker:none;marker-start:none;marker-mid:none;marker-end:none;stroke-miterlimit:4;stroke-dasharray:none;stroke-dashoffset:0;stroke-opacity:1;visibility:visible;display:inline;overflow:visible" />
      <path
         id="path2880"
         d="M 454.21693,349.41369 L 235.24548,356.18042 C 235.24548,356.18042 231.99744,360.24046 232.53878,363.75916 C 233.08012,367.27786 237.14016,371.3379 237.14016,371.3379 L 430.6687,367.8192 L 454.21693,349.41369 z "
         style="color:black;fill:#d7d7d7;fill-opacity:1;fill-rule:nonzero;stroke:black;stroke-width:2;stroke-linecap:butt;stroke-linejoin:miter;marker:none;marker-start:none;marker-mid:none;marker-end:none;stroke-miterlimit:4;stroke-dasharray:none;stroke-dashoffset:0;stroke-opacity:1;visibility:visible;display:inline;overflow:visible" />
      <path
         sodipodi:nodetypes="csscsssccsscccssssccscccsscsssscscscssccssccsc"
         id="path1933"
         d="M 266.91378,71.977668 C 266.91378,71.977668 218.73465,108.78869 242.01221,145.05837 C 265.28977,181.32806 279.36457,201.35759 369.76811,249.53672 C 460.17165,297.71585 460.17165,297.71585 460.17165,297.71585 C 460.17165,297.71585 481.28386,305.29459 481.82519,323.7001 C 482.36653,342.10561 480.74252,348.06034 481.82519,356.72176 C 482.90787,365.38317 480.20118,376.75128 466.12638,389.20207 C 452.05157,401.65286 361.64803,446.04262 361.64803,446.04262 C 361.64803,446.04262 252.83898,489.34971 235.51614,525.07805 C 235.51614,525.07805 234.03304,527.42629 234.01954,531.17791 C 234.00479,535.2779 235.74523,541.054 243.09488,547.27293 C 257.16969,559.18238 389.2563,637.13514 389.2563,637.13514 L 453.13425,673.40482 C 453.13425,673.40482 481.28386,684.23159 482.36653,705.3438 C 482.36653,705.3438 482.21058,708.78739 481.06222,712.61523 C 479.91387,716.44307 479.91387,729.84052 481.06222,733.66836 C 482.21058,737.4962 483.74171,747.44859 477.99995,753.57314 C 472.25819,759.69769 453.50176,777.30576 436.27647,785.72701 C 419.05119,794.14826 282.0623,859.50866 282.0623,859.50866 C 282.0623,859.50866 240.43452,892.76304 235.36263,902.76327 C 235.36263,902.76327 240.29098,920.08425 251.7745,928.88829 C 263.25803,937.69233 319.5273,964.87 319.5273,964.87 C 319.5273,964.87 327.94855,969.08063 322.97236,973.67404 L 293.11519,994.34438 C 293.11519,994.34438 287.37343,999.70336 278.18661,994.72717 C 268.99979,989.75097 214.64443,953.09939 214.64443,927.83563 C 214.64443,911.42377 218.37658,906.97389 218.37658,906.97389 C 218.37658,906.97389 214.26165,892.52379 214.26165,882.57141 C 214.26165,872.61902 225.36239,853.86259 236.46314,843.9102 C 242.44478,838.54735 260.21834,826.76196 279.16615,815.34296 C 295.38171,805.57056 312.45729,796.06651 323.73793,791.08599 C 348.19587,780.28755 437.11154,733.98605 453.18454,726.34045 C 453.18454,726.34045 442.78381,708.40461 402.20868,687.73426 C 361.63356,667.06391 330.62804,649.45584 330.62804,649.45584 C 330.62804,649.45584 215.82827,595.10005 215.41001,562.94662 C 215.02722,533.61578 216.17557,531.9411 216.17557,531.9411 C 216.17557,531.9411 213.49608,512.80189 213.49608,507.44291 C 213.49608,502.08394 221.91734,477.20296 252.54007,454.23591 C 283.1628,431.26886 380.77277,387.63147 380.77277,387.63147 C 380.77277,387.63147 449.29114,353.18089 458.47796,343.99407 C 458.47796,343.99407 450.0567,327.53435 356.65737,283.89696 C 263.25803,240.25956 234.54921,198.1533 227.27632,176.3346 C 220.00342,154.5159 220.76898,129.63493 220.76898,129.63493 C 220.76898,129.63493 218.08949,75.27958 235.31478,52.312529 C 235.31478,52.312529 240.96085,45.03963 246.03274,51.164177 C 249.31738,55.130531 260.19575,71.834522 266.91378,71.977668 z "
         style="color:black;fill:#969696;fill-opacity:1;fill-rule:nonzero;stroke:black;stroke-width:2;stroke-linecap:round;stroke-linejoin:round;marker:none;marker-start:none;marker-mid:none;marker-end:none;stroke-miterlimit:4;stroke-dasharray:none;stroke-dashoffset:0;stroke-opacity:1;visibility:visible;display:inline;overflow:visible" />
      <path
         sodipodi:nodetypes="ccccc"
         id="path2888"
         d="M 233.42275,529.06408 L 440.81831,533.4688 C 433.40207,538.73144 435.94283,542.23697 417.54075,549.43829 L 226.30289,544.09045 C 226.30289,544.09045 227.98606,536.63666 233.42275,529.06408 z "
         style="color:black;fill:#d7d7d7;fill-opacity:1;fill-rule:nonzero;stroke:black;stroke-width:2;stroke-linecap:butt;stroke-linejoin:miter;marker:none;marker-start:none;marker-mid:none;marker-end:none;stroke-miterlimit:4;stroke-dasharray:none;stroke-dashoffset:0;stroke-opacity:1;visibility:visible;display:inline;overflow:visible" />
      <path
         id="path2878"
         d="M 252.56831,300.42254 L 455.57027,315.85069 C 455.57027,315.85069 458.54764,319.09873 458.54764,323.7001 C 458.54764,328.30148 455.02894,332.36152 455.02894,332.36152 L 238.49351,316.6627 C 238.49351,316.6627 247.15492,302.85857 252.56831,300.42254 z "
         style="color:black;fill:#d7d7d7;fill-opacity:1;fill-rule:nonzero;stroke:black;stroke-width:2;stroke-linecap:butt;stroke-linejoin:miter;marker:none;marker-start:none;marker-mid:none;marker-end:none;stroke-miterlimit:4;stroke-dasharray:none;stroke-dashoffset:0;stroke-opacity:1;visibility:visible;display:inline;overflow:visible" />
      <path
         id="path2876"
         d="M 335.66378,259.82215 L 365.16673,221.11644 L 324.025,244.93534 L 318.61162,253.59676 L 335.66378,259.82215 z "
         style="color:black;fill:#d7d7d7;fill-opacity:1;fill-rule:nonzero;stroke:black;stroke-width:2;stroke-linecap:butt;stroke-linejoin:miter;marker:none;marker-start:none;marker-mid:none;marker-end:none;stroke-miterlimit:4;stroke-dasharray:none;stroke-dashoffset:0;stroke-opacity:1;visibility:visible;display:inline;overflow:visible" />
      <path
         id="path2874"
         d="M 315.90492,250.07806 L 410.90984,284.45306 C 410.90984,284.45306 416.5939,289.59577 414.69921,294.46782 C 412.80453,299.33987 403.3311,299.0692 403.3311,299.0692 L 296.95807,262.79951 L 315.90492,250.07806 z "
         style="color:black;fill:#d7d7d7;fill-opacity:1;fill-rule:nonzero;stroke:black;stroke-width:2;stroke-linecap:butt;stroke-linejoin:miter;marker:none;marker-start:none;marker-mid:none;marker-end:none;stroke-miterlimit:4;stroke-dasharray:none;stroke-dashoffset:0;stroke-opacity:1;visibility:visible;display:inline;overflow:visible" />
      <path
         sodipodi:nodetypes="ccsscc"
         id="path2872"
         d="M 396.83504,163.46389 L 264.20709,188.36546 C 264.20709,188.36546 257.28047,192.10574 259.60571,196.75621 C 262.04173,201.62826 266.91378,203.52294 268.80847,203.52294 C 270.70315,203.52294 358.67067,185.92944 358.67067,185.92944 L 396.83504,163.46389 z "
         style="color:black;fill:#d7d7d7;fill-opacity:1;fill-rule:nonzero;stroke:black;stroke-width:2;stroke-linecap:butt;stroke-linejoin:miter;marker:none;marker-start:none;marker-mid:none;marker-end:none;stroke-miterlimit:4;stroke-dasharray:none;stroke-dashoffset:0;stroke-opacity:1;visibility:visible;display:inline;overflow:visible" />
      <path
         id="path2890"
         d="M 380.32421,575.96388 L 255.54567,574.61053 C 255.54567,574.61053 250.94429,579.21191 250.94429,583.00128 C 250.94429,586.79065 255.275,591.39203 255.275,591.39203 L 363.81339,590.58002 L 380.32421,575.96388 z "
         style="color:black;fill:#d7d7d7;fill-opacity:1;fill-rule:nonzero;stroke:black;stroke-width:2;stroke-linecap:butt;stroke-linejoin:miter;marker:none;marker-start:none;marker-mid:none;marker-end:none;stroke-miterlimit:4;stroke-dasharray:none;stroke-dashoffset:0;stroke-opacity:1;visibility:visible;display:inline;overflow:visible" />
      <path
         id="path2892"
         d="M 354.06929,633.34577 L 374.36949,637.13514 C 374.36949,637.13514 378.7002,641.19518 377.07618,646.33789 C 375.45217,651.48061 369.22677,653.37529 369.22677,653.37529 L 328.62638,645.79655 L 354.06929,633.34577 z "
         style="color:black;fill:#d7d7d7;fill-opacity:1;fill-rule:nonzero;stroke:black;stroke-width:2;stroke-linecap:butt;stroke-linejoin:miter;marker:none;marker-start:none;marker-mid:none;marker-end:none;stroke-miterlimit:4;stroke-dasharray:none;stroke-dashoffset:0;stroke-opacity:1;visibility:visible;display:inline;overflow:visible" />
      <path
         id="path2894"
         d="M 282.6126,670.42746 L 436.62342,679.90088 C 436.62342,679.90088 442.30748,684.23159 442.30748,688.5623 C 442.30748,692.89301 437.97677,696.41171 437.97677,696.41171 L 259.06437,686.66762 C 259.06437,686.66762 279.63524,670.69813 282.6126,670.42746 z "
         style="color:black;fill:#d7d7d7;fill-opacity:1;fill-rule:nonzero;stroke:black;stroke-width:2;stroke-linecap:butt;stroke-linejoin:miter;marker:none;marker-start:none;marker-mid:none;marker-end:none;stroke-miterlimit:4;stroke-dasharray:none;stroke-dashoffset:0;stroke-opacity:1;visibility:visible;display:inline;overflow:visible" />
      <path
         id="path2911"
         d="M 397.64705,951.11151 L 256.62835,950.02883 C 256.62835,950.02883 252.02697,952.46485 252.02697,957.06623 C 252.02697,961.66761 255.275,965.72765 255.275,965.72765 L 380.86555,968.70501 L 397.64705,951.11151 z "
         style="color:black;fill:#d7d7d7;fill-opacity:1;fill-rule:nonzero;stroke:black;stroke-width:2;stroke-linecap:butt;stroke-linejoin:miter;marker:none;marker-start:none;marker-mid:none;marker-end:none;stroke-miterlimit:4;stroke-dasharray:none;stroke-dashoffset:0;stroke-opacity:1;visibility:visible;display:inline;overflow:visible" />
      <path
         sodipodi:nodetypes="csssssscsssssscsccssscscscsccssccsscsssccc"
         id="path1935"
         d="M 440.86988,110.87851 C 440.86988,110.87851 445.08051,94.418789 460.39188,99.394983 C 475.70324,104.37118 486.4212,115.47192 486.4212,120.44811 C 486.4212,125.42431 481.82779,131.16607 482.21058,139.58732 C 482.59336,148.00857 486.80399,153.75034 486.80399,158.34375 C 486.80399,162.93716 484.1245,169.82727 473.40654,175.56903 C 462.68858,181.3108 343.25992,230.30717 294.26355,265.52332 C 245.26717,300.73946 233.59225,328.49131 233.59225,328.49131 C 233.59225,328.49131 246.41552,368.10947 307.27821,401.79448 C 368.14089,435.47949 438.95596,476.05461 444.31494,480.64802 C 449.67392,485.24143 480.67944,500.93558 480.29665,515.0986 C 479.91387,529.26161 477.99995,533.47224 480.29665,541.51071 C 482.59336,549.54917 482.59336,559.50156 470.34427,572.89901 C 458.09517,586.29645 431.68306,603.52174 355.50901,635.67561 C 279.33496,667.82948 244.11882,696.15551 234.16643,716.44307 C 234.16643,716.44307 235.31478,733.28558 261.34411,747.83138 C 287.37343,762.37717 403.73982,831.27833 403.73982,831.27833 L 451.58784,861.13549 C 451.58784,861.13549 483.35893,871.85345 483.74171,890.60987 C 484.1245,909.3663 479.91387,906.68681 481.06222,915.10806 C 482.21058,923.52931 483.35893,940.7546 476.08603,949.55864 C 468.81313,958.36267 445.08051,979.79859 402.59147,995.49274 C 402.59147,995.49274 394.553,999.70336 390.72516,995.10995 C 385.67328,989.04768 376.94493,969.46341 376.94493,969.46341 C 376.94493,969.46341 374.26544,961.04216 382.68669,957.21432 C 391.10794,953.38648 451.58784,922.38096 457.3296,916.6392 C 457.3296,916.6392 425.17573,884.48533 394.17022,869.55674 C 363.1647,854.62816 283.16281,807.7371 283.16281,807.7371 C 283.16281,807.7371 201.24699,778.07133 216.55836,722.18484 C 216.55836,722.18484 213.49608,703.42841 213.87887,691.94489 C 214.26165,680.46136 233.40086,655.19761 262.10967,635.67561 C 290.81849,616.15362 352.82952,587.44481 352.82952,587.44481 C 352.82952,587.44481 447.76,542.27627 450.0567,539.59678 C 450.0567,539.59678 443.93216,518.16087 381.92112,488.3037 C 319.91009,458.44654 259.81297,424.37875 241.05655,402.56005 C 222.30012,380.74135 213.1133,368.49226 218.85506,337.10396 C 218.85506,337.10396 219.23785,319.49588 218.47228,309.16071 C 217.70671,298.82554 221.91734,275.4757 234.932,261.69547 C 247.94666,247.91524 284.69394,218.05808 301.91923,208.48847 C 319.14452,198.91887 413.69221,154.13312 413.69221,154.13312 L 436.14114,146.74811 L 440.86988,110.87851 z "
         style="color:black;fill:#969696;fill-opacity:1;fill-rule:nonzero;stroke:black;stroke-width:2;stroke-linecap:round;stroke-linejoin:miter;marker:none;marker-start:none;marker-mid:none;marker-end:none;stroke-miterlimit:4;stroke-dasharray:none;stroke-dashoffset:0;stroke-opacity:1;visibility:visible;display:inline;overflow:visible" />
      <path
         sodipodi:nodetypes="cc"
         id="path1955"
         d="M 220.96037,139.39593 C 220.96037,139.39593 221.91734,99.777767 251.7745,74.896796"
         style="color:black;fill:none;fill-opacity:1;fill-rule:nonzero;stroke:black;stroke-width:2;stroke-linecap:round;stroke-linejoin:miter;marker:none;marker-start:none;marker-mid:none;marker-end:none;stroke-miterlimit:4;stroke-dasharray:none;stroke-dashoffset:0;stroke-opacity:1;visibility:visible;display:inline;overflow:visible" />
      <path
         sodipodi:nodetypes="csc"
         id="path1957"
         d="M 435.89369,146.86022 C 435.89369,146.86022 474.89887,128.86759 475.32046,120.06533 C 475.70324,112.0733 473.78932,111.26129 473.78932,111.26129"
         style="color:black;fill:none;fill-opacity:1;fill-rule:nonzero;stroke:black;stroke-width:2;stroke-linecap:round;stroke-linejoin:miter;marker:none;marker-start:none;marker-mid:none;marker-end:none;stroke-miterlimit:4;stroke-dasharray:none;stroke-dashoffset:0;stroke-opacity:1;visibility:visible;display:inline;overflow:visible" />
      <path
         id="path1959"
         d="M 218.85506,337.48674 C 218.85506,337.48674 226.51075,301.12224 285.07673,265.52332"
         style="color:black;fill:none;fill-opacity:1;fill-rule:nonzero;stroke:black;stroke-width:2;stroke-linecap:round;stroke-linejoin:miter;marker:none;marker-start:none;marker-mid:none;marker-end:none;stroke-miterlimit:4;stroke-dasharray:none;stroke-dashoffset:0;stroke-opacity:1;visibility:visible;display:inline;overflow:visible" />
      <path
         id="path1961"
         d="M 233.78365,328.29992 C 233.78365,328.29992 204.69205,384.95198 282.78002,428.58937"
         style="color:black;fill:none;fill-opacity:1;fill-rule:nonzero;stroke:black;stroke-width:2;stroke-linecap:round;stroke-linejoin:miter;marker:none;marker-start:none;marker-mid:none;marker-end:none;stroke-miterlimit:4;stroke-dasharray:none;stroke-dashoffset:0;stroke-opacity:1;visibility:visible;display:inline;overflow:visible" />
      <path
         sodipodi:nodetypes="cc"
         id="path1963"
         d="M 251.39172,492.89712 C 251.39172,492.89712 218.51532,519.78771 216.17076,531.9411"
         style="color:black;fill:none;fill-opacity:1;fill-rule:nonzero;stroke:black;stroke-width:2;stroke-linecap:round;stroke-linejoin:miter;marker:none;marker-start:none;marker-mid:none;marker-end:none;stroke-miterlimit:4;stroke-dasharray:none;stroke-dashoffset:0;stroke-opacity:1;visibility:visible;display:inline;overflow:visible" />
      <path
         id="path1965"
         d="M 234.54921,527.73048 C 234.54921,527.73048 200.09864,567.15725 260.96132,603.90453"
         style="color:black;fill:none;fill-opacity:1;fill-rule:nonzero;stroke:black;stroke-width:2;stroke-linecap:round;stroke-linejoin:miter;marker:none;marker-start:none;marker-mid:none;marker-end:none;stroke-miterlimit:4;stroke-dasharray:none;stroke-dashoffset:0;stroke-opacity:1;visibility:visible;display:inline;overflow:visible" />
      <path
         sodipodi:nodetypes="cc"
         id="path1967"
         d="M 216.6062,722.13698 C 216.6062,722.13698 221.91734,704.19398 245.64996,684.67199"
         style="color:black;fill:none;fill-opacity:1;fill-rule:nonzero;stroke:black;stroke-width:2;stroke-linecap:round;stroke-linejoin:miter;marker:none;marker-start:none;marker-mid:none;marker-end:none;stroke-miterlimit:4;stroke-dasharray:none;stroke-dashoffset:0;stroke-opacity:1;visibility:visible;display:inline;overflow:visible" />
      <path
         sodipodi:nodetypes="cc"
         id="path1969"
         d="M 234.40567,715.91675 C 234.40567,715.91675 200.48142,750.51086 260.57854,792.23434"
         style="color:black;fill:none;fill-opacity:1;fill-rule:nonzero;stroke:black;stroke-width:2;stroke-linecap:round;stroke-linejoin:miter;marker:none;marker-start:none;marker-mid:none;marker-end:none;stroke-miterlimit:4;stroke-dasharray:none;stroke-dashoffset:0;stroke-opacity:1;visibility:visible;display:inline;overflow:visible" />
      <path
         sodipodi:nodetypes="cc"
         id="path1971"
         d="M 218.37658,906.9739 C 218.37658,906.9739 228.80745,886.01646 247.94666,871.85345"
         style="color:black;fill:none;fill-opacity:1;fill-rule:nonzero;stroke:black;stroke-width:2;stroke-linecap:round;stroke-linejoin:miter;marker:none;marker-start:none;marker-mid:none;marker-end:none;stroke-miterlimit:4;stroke-dasharray:none;stroke-dashoffset:0;stroke-opacity:1;visibility:visible;display:inline;overflow:visible" />
      <path
         sodipodi:nodetypes="cc"
         id="path1973"
         d="M 235.36263,902.71542 C 235.36263,902.71542 202.49104,939.22346 260.96132,978.65023"
         style="color:black;fill:none;fill-opacity:1;fill-rule:nonzero;stroke:black;stroke-width:2;stroke-linecap:round;stroke-linejoin:miter;marker:none;marker-start:none;marker-mid:none;marker-end:none;stroke-miterlimit:4;stroke-dasharray:none;stroke-dashoffset:0;stroke-opacity:1;visibility:visible;display:inline;overflow:visible" />
      <path
         sodipodi:nodetypes="cc"
         id="path1975"
         d="M 456.94118,917.0452 C 456.94118,917.0452 484.28504,887.55955 451.76763,861.15871"
         style="color:black;fill:none;fill-opacity:1;fill-rule:nonzero;stroke:black;stroke-width:2;stroke-linecap:round;stroke-linejoin:miter;marker:none;marker-start:none;marker-mid:none;marker-end:none;stroke-miterlimit:4;stroke-dasharray:none;stroke-dashoffset:0;stroke-opacity:1;visibility:visible;display:inline;overflow:visible" />
      <path
         sodipodi:nodetypes="cc"
         id="path1977"
         d="M 452.95826,726.14379 C 452.95826,726.14379 491.35295,696.09846 441.20822,666.62407"
         style="color:black;fill:none;fill-opacity:1;fill-rule:nonzero;stroke:black;stroke-width:2;stroke-linecap:round;stroke-linejoin:miter;marker:none;marker-start:none;marker-mid:none;marker-end:none;stroke-miterlimit:4;stroke-dasharray:none;stroke-dashoffset:0;stroke-opacity:1;visibility:visible;display:inline;overflow:visible" />
      <path
         style="color:black;fill:#d7d7d7;fill-opacity:1;fill-rule:nonzero;stroke:black;stroke-width:2;stroke-linecap:butt;stroke-linejoin:miter;marker:none;marker-start:none;marker-mid:none;marker-end:none;stroke-miterlimit:4;stroke-dasharray:none;stroke-dashoffset:0;stroke-opacity:1;visibility:visible;display:inline;overflow:visible"
         d="M 304.26967,530.58339 L 456.72057,533.73102 C 450.48431,540.04253 448.69847,541.58143 430.29639,549.96273 L 304.29505,546.32398"
         id="path7357"
         sodipodi:nodetypes="cccc" />
      <path
         sodipodi:nodetypes="cc"
         id="path1979"
         d="M 449.7807,539.97212 C 449.7807,539.97212 487.91267,514.46188 448.52557,483.53051"
         style="color:black;fill:none;fill-opacity:1;fill-rule:nonzero;stroke:black;stroke-width:2;stroke-linecap:round;stroke-linejoin:miter;marker:none;marker-start:none;marker-mid:none;marker-end:none;stroke-miterlimit:4;stroke-dasharray:none;stroke-dashoffset:0;stroke-opacity:1;visibility:visible;display:inline;overflow:visible" />
      <path
         sodipodi:nodetypes="cc"
         id="path1981"
         d="M 454.65012,355.86038 C 454.65012,355.86038 483.44783,344.75964 481.53391,320.64424"
         style="color:black;fill:none;fill-opacity:1;fill-rule:nonzero;stroke:black;stroke-width:2;stroke-linecap:round;stroke-linejoin:miter;marker:none;marker-start:none;marker-mid:none;marker-end:none;stroke-miterlimit:4;stroke-dasharray:none;stroke-dashoffset:0;stroke-opacity:1;visibility:visible;display:inline;overflow:visible" />
      <path
         sodipodi:nodetypes="cc"
         id="path1983"
         d="M 458.09517,344.37686 C 458.09517,344.37686 482.32269,310.51206 454.76223,294.81791"
         style="color:black;fill:none;fill-opacity:1;fill-rule:nonzero;stroke:black;stroke-width:2;stroke-linecap:round;stroke-linejoin:miter;marker:none;marker-start:none;marker-mid:none;marker-end:none;stroke-miterlimit:4;stroke-dasharray:none;stroke-dashoffset:0;stroke-opacity:1;visibility:visible;display:inline;overflow:visible" />
      <path
         style="color:black;fill:#d7d7d7;fill-opacity:1;fill-rule:nonzero;stroke:black;stroke-width:2;stroke-linecap:round;stroke-linejoin:miter;marker:none;marker-start:none;marker-mid:none;marker-end:none;stroke-miterlimit:4;stroke-dasharray:none;stroke-dashoffset:0;stroke-opacity:1;visibility:visible;display:inline;overflow:visible"
         d="M 435.89369,146.86022 C 435.89369,146.86022 457.62957,136.83371 468.82521,128.08855 L 235.38081,124.35217 C 235.38081,124.35217 231.18544,131.66024 234.02746,141.67501 L 435.89369,146.86022 z "
         id="path2870"
         sodipodi:nodetypes="cs" />
      <path
         id="path2882"
         d="M 371.39213,393.53278 L 290.19134,405.7129 C 290.19134,405.7129 283.42461,408.41959 283.96595,414.10364 C 284.50729,419.7877 289.92067,423.3064 289.92067,423.3064 L 322.13032,419.24636 L 371.39213,393.53278 z "
         style="color:black;fill:#d7d7d7;fill-opacity:1;fill-rule:nonzero;stroke:black;stroke-width:2;stroke-linecap:butt;stroke-linejoin:miter;marker:none;marker-start:none;marker-mid:none;marker-end:none;stroke-miterlimit:4;stroke-dasharray:none;stroke-dashoffset:0;stroke-opacity:1;visibility:visible;display:inline;overflow:visible" />
      <path
         id="path2884"
         d="M 353.25728,447.39597 L 373.01614,447.93731 C 373.01614,447.93731 376.80551,451.18534 376.80551,455.78671 C 376.80551,460.38809 370.58012,465.26014 370.58012,465.26014 L 330.25039,458.49341 L 353.25728,447.39597 z "
         style="color:black;fill:#d7d7d7;fill-opacity:1;fill-rule:nonzero;stroke:black;stroke-width:2;stroke-linecap:butt;stroke-linejoin:miter;marker:none;marker-start:none;marker-mid:none;marker-end:none;stroke-miterlimit:4;stroke-dasharray:none;stroke-dashoffset:0;stroke-opacity:1;visibility:visible;display:inline;overflow:visible" />
      <path
         id="path2886"
         d="M 286.67264,480.95896 L 434.1874,489.34971 C 434.1874,489.34971 441.49547,493.95108 441.49547,499.0938 C 441.49547,504.23652 437.7061,508.29656 437.7061,508.29656 L 259.33504,498.82313 C 259.33504,498.82313 279.90591,481.22963 286.67264,480.95896 z "
         style="color:black;fill:#d7d7d7;fill-opacity:1;fill-rule:nonzero;stroke:black;stroke-width:2;stroke-linecap:butt;stroke-linejoin:miter;marker:none;marker-start:none;marker-mid:none;marker-end:none;stroke-miterlimit:4;stroke-dasharray:none;stroke-dashoffset:0;stroke-opacity:1;visibility:visible;display:inline;overflow:visible" />
      <path
         sodipodi:nodetypes="ccsccc"
         id="path2905"
         d="M 359.30893,822.65867 L 374.09882,824.97962 C 374.09882,824.97962 378.42953,829.85167 378.42953,834.18238 C 378.42953,838.51309 370.85079,840.1371 370.85079,840.1371 L 333.89908,834.81643 L 359.30893,822.65867 z "
         style="color:black;fill:#d7d7d7;fill-opacity:1;fill-rule:nonzero;stroke:black;stroke-width:2;stroke-linecap:butt;stroke-linejoin:miter;marker:none;marker-start:none;marker-mid:none;marker-end:none;stroke-miterlimit:4;stroke-dasharray:none;stroke-dashoffset:0;stroke-opacity:1;visibility:visible;display:inline;overflow:visible" />
      <path
         style="color:black;fill:#969696;fill-opacity:1;fill-rule:nonzero;stroke:none;stroke-width:2;stroke-linecap:round;stroke-linejoin:round;marker:none;marker-start:none;marker-mid:none;marker-end:none;stroke-miterlimit:4;stroke-dasharray:none;stroke-dashoffset:0;stroke-opacity:1;visibility:visible;display:inline;overflow:visible"
         d="M 279.16615,815.34296 C 295.38171,805.57056 312.45729,796.06651 323.73793,791.08599 C 327.3215,789.50381 332.28885,787.15944 338.74697,784.39878 M 383.57235,811.02228 C 360.10561,822.24679 333.50537,834.95175 313.42319,844.53981"
         id="path8249"
         sodipodi:nodetypes="csccc" />
      <path
         sodipodi:nodetypes="ccccc"
         id="path4689"
         d="M 252.54007,454.23591 C 283.1628,431.26886 380.77277,387.63147 380.77277,387.63147 L 396.05078,429.41307 M 396.82636,428.36549 C 377.42664,438.29504 361.64803,446.04262 361.64803,446.04262 C 361.64803,446.04262 338.73943,455.16047 312.27179,468.48034 L 253.40414,454.58601"
         style="color:black;fill:#969696;fill-opacity:1;fill-rule:nonzero;stroke:none;stroke-width:2;stroke-linecap:round;stroke-linejoin:miter;marker:none;marker-start:none;marker-mid:none;marker-end:none;stroke-miterlimit:4;stroke-dasharray:none;stroke-dashoffset:0;stroke-opacity:1;visibility:visible;display:inline;overflow:visible" />
      <path
         style="color:black;fill:#969696;fill-opacity:1;fill-rule:nonzero;stroke:black;stroke-width:2;stroke-linecap:round;stroke-linejoin:miter;marker:none;marker-start:none;marker-mid:none;marker-end:none;stroke-miterlimit:4;stroke-dasharray:none;stroke-dashoffset:0;stroke-opacity:1;visibility:visible;display:inline;overflow:visible"
         d="M 252.54007,454.23591 C 283.1628,431.26886 380.77277,387.63147 380.77277,387.63147 M 396.82636,428.36549 C 377.42664,438.29504 361.64803,446.04262 361.64803,446.04262 C 361.64803,446.04262 338.73943,455.16047 312.27179,468.48034"
         id="path4687"
         sodipodi:nodetypes="ccccc" />
      <path
         sodipodi:nodetypes="ccscc"
         style="color:black;fill:#d7d7d7;fill-opacity:1;fill-rule:nonzero;stroke:black;stroke-width:2;stroke-linecap:butt;stroke-linejoin:miter;marker:none;marker-start:none;marker-mid:none;marker-end:none;stroke-miterlimit:4;stroke-dasharray:none;stroke-dashoffset:0;stroke-opacity:1;visibility:visible;display:inline;overflow:visible"
         d="M 330.59942,859.91516 L 437.43543,866.66269 C 437.43543,866.66269 443.93149,871.53474 443.93149,875.86545 C 443.93149,880.19616 439.60079,884.52686 439.60079,884.52686 L 328.46791,878.16685"
         id="path6461" />
      <path
         sodipodi:nodetypes="cccccc"
         d="M 443.55424,925.36099 C 450.60758,921.35493 455.83157,918.13723 457.3296,916.6392 C 457.3296,916.6392 460.23907,913.92064 462.41175,909.2075 L 235.36263,902.71542 C 235.36263,902.71542 229.4536,909.27814 227.10253,919.84356 L 443.55424,925.36099 z "
         style="color:black;fill:#d7d7d7;fill-opacity:1;fill-rule:nonzero;stroke:black;stroke-width:2;stroke-linecap:round;stroke-linejoin:miter;marker:none;marker-start:none;marker-mid:none;marker-end:none;stroke-miterlimit:4;stroke-dasharray:none;stroke-dashoffset:0;stroke-opacity:1;visibility:visible;display:inline;overflow:visible"
         id="path2909" />
      <path
         style="color:black;fill:#d7d7d7;fill-opacity:1;fill-rule:nonzero;stroke:black;stroke-width:2;stroke-linecap:round;stroke-linejoin:miter;marker:none;marker-start:none;marker-mid:none;marker-end:none;stroke-miterlimit:4;stroke-dasharray:none;stroke-dashoffset:0;stroke-opacity:1;visibility:visible;display:inline;overflow:visible"
         d="M 452.30272,726.73378 C 452.30272,726.73378 455.84027,724.39016 459.31212,719.61142 L 459.31212,719.61142 L 445.08556,720.08181"
         id="path6470"
         sodipodi:nodetypes="cscc" />
      <path
         style="color:black;fill:none;fill-opacity:1;fill-rule:nonzero;stroke:black;stroke-width:2;stroke-linecap:round;stroke-linejoin:miter;marker:none;marker-start:none;marker-mid:none;marker-end:none;stroke-miterlimit:4;stroke-dasharray:none;stroke-dashoffset:0;stroke-opacity:1;visibility:visible;display:inline;overflow:visible"
         d="M 232.29901,718.49578 C 230.26015,721.29124 227.26589,726.25217 225.77664,732.85043"
         id="path7360"
         sodipodi:nodetypes="cs" />
      <path
         id="path7362"
         style="color:black;fill:#d7d7d7;fill-opacity:1;fill-rule:nonzero;stroke:black;stroke-width:2;stroke-linecap:butt;stroke-linejoin:miter;marker:none;marker-start:none;marker-mid:none;marker-end:none;stroke-miterlimit:4;stroke-dasharray:none;stroke-dashoffset:0;stroke-opacity:1;visibility:visible;display:inline;overflow:visible"
         d="M 256.77917,718.54014 L 232.41444,718.33844 C 230.43955,721.01506 227.48893,725.8096 225.92593,732.21475 C 235.59183,732.52195 245.25829,732.82403 254.9252,733.12115"
         sodipodi:nodetypes="cccc" />
      <path
         style="color:black;fill:#969696;fill-opacity:1;fill-rule:nonzero;stroke:none;stroke-width:2;stroke-linecap:round;stroke-linejoin:round;marker:none;marker-start:none;marker-mid:none;marker-end:none;stroke-miterlimit:4;stroke-dasharray:none;stroke-dashoffset:0;stroke-opacity:1;visibility:visible;display:inline;overflow:visible"
         d="M 313.42319,844.53981 C 333.50537,834.95175 360.10561,822.24679 383.57235,811.02228 M 313.18987,844.76651 L 279.16615,815.34296 C 295.38171,805.57056 312.45729,796.06651 323.73793,791.08599 C 327.3215,789.50381 332.28885,787.15944 338.74697,784.39878 L 383.98875,811.72704"
         id="path12680"
         sodipodi:nodetypes="csccc" />
      <path
         sodipodi:nodetypes="csccc"
         id="path11793"
         d="M 338.74697,784.07101 C 332.28885,786.83167 327.3215,789.50381 323.73793,791.08599 C 312.45729,796.06651 295.38171,805.57056 279.16615,815.34296 M 313.42319,844.53981 C 333.50537,834.95175 360.10561,822.24679 383.57235,811.02228"
         style="color:black;fill:none;fill-opacity:1;fill-rule:nonzero;stroke:black;stroke-width:2;stroke-linecap:round;stroke-linejoin:round;marker:none;marker-start:none;marker-mid:none;marker-end:none;stroke-miterlimit:4;stroke-dasharray:none;stroke-dashoffset:0;stroke-opacity:1;visibility:visible;display:inline;overflow:visible" />
      <path
         sodipodi:nodetypes="ccscc"
         style="color:black;fill:#d7d7d7;fill-opacity:1;fill-rule:nonzero;stroke:black;stroke-width:2;stroke-linecap:butt;stroke-linejoin:miter;marker:none;marker-start:none;marker-mid:none;marker-end:none;stroke-miterlimit:4;stroke-dasharray:none;stroke-dashoffset:0;stroke-opacity:1;visibility:visible;display:inline;overflow:visible"
         d="M 322.66636,763.31761 L 256.08701,762.18435 C 256.08701,762.18435 251.21496,765.43238 251.21496,769.22175 C 251.21496,773.01112 254.46299,778.96584 254.46299,778.96584 L 328.40138,779.71649"
         id="path14452" />
      <path
         sodipodi:nodetypes="ccscc"
         style="color:black;fill:#d7d7d7;fill-opacity:1;fill-rule:nonzero;stroke:black;stroke-width:2;stroke-linecap:butt;stroke-linejoin:miter;marker:none;marker-start:none;marker-mid:none;marker-end:none;stroke-miterlimit:4;stroke-dasharray:none;stroke-dashoffset:0;stroke-opacity:1;visibility:visible;display:inline;overflow:visible"
         d="M 395.50878,351.22791 L 235.24548,356.18042 C 235.24548,356.18042 231.99744,360.24046 232.53878,363.75916 C 233.08012,367.27786 237.14016,371.3379 237.14016,371.3379 L 385.05796,368.64849"
         id="path14454" />
      <path
         sodipodi:nodetypes="cc"
         id="path14456"
         d="M 407.06394,182.92807 L 542.14032,140.29435"
         style="color:black;fill:none;fill-opacity:1;fill-rule:nonzero;stroke:black;stroke-width:1;stroke-linecap:butt;stroke-linejoin:miter;marker:none;marker-start:none;marker-mid:none;marker-end:none;stroke-miterlimit:4;stroke-dasharray:none;stroke-dashoffset:0;stroke-opacity:1;visibility:visible;display:inline;overflow:visible" />
      <path
         id="path14458"
         d="M 285.39475,308.79275 L 539.22185,239.56718 L 407.06394,319.28148"
         style="color:black;fill:none;fill-opacity:1;fill-rule:nonzero;stroke:black;stroke-width:1;stroke-linecap:butt;stroke-linejoin:miter;marker:none;marker-start:none;marker-mid:none;marker-end:none;stroke-miterlimit:4;stroke-dasharray:none;stroke-dashoffset:0;stroke-opacity:1;visibility:visible;display:inline;overflow:visible" />
      <path
         sodipodi:nodetypes="cc"
         id="path14460"
         d="M 411.25943,493.39428 L 531.79349,449.90921"
         style="color:black;fill:none;fill-opacity:1;fill-rule:nonzero;stroke:black;stroke-width:1;stroke-linecap:butt;stroke-linejoin:miter;marker:none;marker-start:none;marker-mid:none;marker-end:none;stroke-miterlimit:4;stroke-dasharray:none;stroke-dashoffset:0;stroke-opacity:1;visibility:visible;display:inline;overflow:visible" />
      <path
         id="path14462"
         d="M 256.02632,537.44692 L 146.9436,537.44692"
         style="color:black;fill:none;fill-opacity:1;fill-rule:nonzero;stroke:black;stroke-width:1;stroke-linecap:butt;stroke-linejoin:miter;marker:none;marker-start:none;marker-mid:none;marker-end:none;stroke-miterlimit:4;stroke-dasharray:none;stroke-dashoffset:0;stroke-opacity:1;visibility:visible;display:inline;overflow:visible" />
      <path
         sodipodi:nodetypes="cc"
         id="path14464"
         d="M 304.27445,359.13862 L 147.99247,359.13862"
         style="color:black;fill:none;fill-opacity:1;fill-rule:nonzero;stroke:black;stroke-width:1;stroke-linecap:butt;stroke-linejoin:miter;marker:none;marker-start:none;marker-mid:none;marker-end:none;stroke-miterlimit:4;stroke-dasharray:none;stroke-dashoffset:0;stroke-opacity:1;visibility:visible;display:inline;overflow:visible" />
      <path
         sodipodi:nodetypes="cc"
         id="path14466"
         d="M 310.56769,680.09356 L 147.99247,680.09356"
         style="color:black;fill:none;fill-opacity:1;fill-rule:nonzero;stroke:black;stroke-width:1;stroke-linecap:butt;stroke-linejoin:miter;marker:none;marker-start:none;marker-mid:none;marker-end:none;stroke-miterlimit:4;stroke-dasharray:none;stroke-dashoffset:0;stroke-opacity:1;visibility:visible;display:inline;overflow:visible" />
      <path
         sodipodi:nodetypes="cc"
         id="path14468"
         d="M 325.2519,870.98832 L 149.04135,870.98832"
         style="color:black;fill:none;fill-opacity:1;fill-rule:nonzero;stroke:black;stroke-width:1;stroke-linecap:butt;stroke-linejoin:miter;marker:none;marker-start:none;marker-mid:none;marker-end:none;stroke-miterlimit:4;stroke-dasharray:none;stroke-dashoffset:0;stroke-opacity:1;visibility:visible;display:inline;overflow:visible" />
      <path
         sodipodi:nodetypes="ccccssssssssssccsssssssssssccccsssccsssccccsssssssssccssssssssscc"
         id="text14472"
         d="M 329.6941,136.77508 L 329.73828,135.09599 L 335.80089,135.24571 L 335.66117,140.55637 C 334.71098,141.27382 333.73634,141.80664 332.73726,142.15484 C 331.73817,142.50302 330.71798,142.66343 329.67668,142.63603 C 328.27091,142.59905 327.0016,142.26444 325.86875,141.63222 C 324.7359,141 323.89159,140.10672 323.33581,138.95237 C 322.78004,137.79805 322.52065,136.51799 322.55764,135.11223 C 322.59428,133.71948 322.91972,132.42714 323.53396,131.23519 C 324.14819,130.04327 325.0097,129.16881 326.11849,128.61183 C 327.22726,128.05487 328.4943,127.79514 329.91959,127.83261 C 330.95438,127.85986 331.88552,128.05205 332.71301,128.40921 C 333.54048,128.76639 334.18389,129.2506 334.64324,129.86184 C 335.10258,130.4731 335.44324,131.26359 335.66522,132.23329 L 333.9445,132.65693 C 333.7489,131.92237 333.49712,131.34264 333.18919,130.91772 C 332.88124,130.49281 332.43444,130.14729 331.84881,129.88113 C 331.26315,129.61499 330.60912,129.47242 329.88672,129.45341 C 329.02113,129.43065 328.26922,129.54275 327.63101,129.7897 C 326.99277,130.03669 326.47439,130.36986 326.07586,130.78919 C 325.67732,131.20855 325.36391,131.67248 325.13562,132.18096 C 324.74787,133.05649 324.54039,134.01165 324.51316,135.04644 C 324.4796,136.32205 324.67117,137.39516 325.08788,138.26579 C 325.50457,139.13643 326.12722,139.79105 326.95582,140.22966 C 327.78441,140.66827 328.67055,140.89999 329.61424,140.92481 C 330.43426,140.94639 331.23891,140.80963 332.02821,140.51452 C 332.81748,140.21943 333.41859,139.89821 333.83151,139.55087 L 333.90163,136.88578 L 329.6941,136.77508 z M 344.88033,144.55844 C 346.00527,142.27507 346.59819,139.97593 346.65909,137.66101 C 346.69128,136.43748 346.58328,135.22002 346.33511,134.00865 C 346.13951,133.02661 345.85503,132.08131 345.48166,131.17272 C 345.24325,130.58032 344.74503,129.59031 343.98699,128.2027 L 345.24631,128.23583 C 346.42687,129.90158 347.28836,131.56543 347.83078,133.2274 C 348.29457,134.65937 348.50611,136.14982 348.46536,137.69876 C 348.41913,139.45597 348.03764,141.14573 347.32091,142.76807 C 346.97274,143.55614 346.5917,144.29416 346.17778,144.98215 C 346.17778,144.98215 344.88033,144.55844 344.88033,144.55844 z M 366.50162,138.33933 L 368.38291,138.8675 C 367.94499,140.41252 367.19951,141.57984 366.14649,142.36947 C 365.09345,143.1591 363.82175,143.53432 362.33139,143.49511 C 360.78895,143.45453 359.54276,143.10751 358.59282,142.45405 C 357.64288,141.80058 356.93139,140.87172 356.45834,139.66745 C 355.98529,138.4632 355.76674,137.17771 355.8027,135.81099 C 355.8419,134.32063 356.16084,133.02811 356.7595,131.93345 C 357.35816,130.8388 358.19059,130.01731 359.25682,129.46897 C 360.32304,128.92067 361.48743,128.66312 362.75002,128.69631 C 364.18181,128.734 365.37623,129.13013 366.33329,129.88471 C 367.29033,130.63932 367.94346,131.68225 368.29269,133.01349 L 366.41655,133.40375 C 366.11202,132.35372 365.65036,131.58285 365.03158,131.09114 C 364.41278,130.59944 363.62503,130.34101 362.66834,130.31583 C 361.56846,130.2869 360.64224,130.5263 359.88971,131.03401 C 359.13715,131.54175 358.5995,132.23585 358.27677,133.11634 C 357.95402,133.99684 357.78023,134.90892 357.75541,135.8526 C 357.72339,137.06962 357.87279,138.13675 358.2036,139.05396 C 358.5344,139.97119 359.06812,140.66417 359.80475,141.13293 C 360.54136,141.60168 361.34573,141.84753 362.21782,141.87047 C 363.27865,141.89838 364.18482,141.61613 364.93634,141.0237 C 365.68785,140.43128 366.20962,139.5365 366.50162,138.33933 L 366.50162,138.33933 z "
         style="font-size:19.99999809px;font-style:normal;font-variant:normal;font-weight:normal;font-stretch:normal;text-align:center;line-height:100%;writing-mode:lr-tb;text-anchor:middle;fill:black;fill-opacity:1;stroke:none;stroke-width:1px;stroke-linecap:butt;stroke-linejoin:miter;stroke-opacity:1;font-family:Arial" />
      <path
         sodipodi:nodetypes="ccccssssssssssccsssssssssssccccsssccsssccccsssssssssccssssssssscc"
         id="text14476"
         d="M 335.73385,268.03179 L 336.30633,266.45268 L 342.01101,268.51042 L 340.20036,273.50484 C 339.07214,273.88527 337.97908,274.08283 336.92118,274.09749 C 335.86325,274.11215 334.84463,273.94196 333.86535,273.58694 C 332.54329,273.10765 331.44474,272.38911 330.56972,271.43131 C 329.69468,270.47351 329.17589,269.35921 329.01334,268.0884 C 328.85081,266.8176 329.00917,265.52117 329.48847,264.19911 C 329.96331,262.88931 330.68044,261.76602 331.63984,260.82923 C 332.59924,259.89246 333.69293,259.33503 334.9209,259.15695 C 336.14885,258.97888 337.43305,259.13282 338.77346,259.61875 C 339.74663,259.97157 340.56933,260.44814 341.24157,261.04847 C 341.91377,261.64882 342.37122,262.31154 342.6139,263.03661 C 342.85655,263.76169 342.92996,264.61931 342.83416,265.60948 L 341.06774,265.4677 C 341.11427,264.70896 341.05859,264.07938 340.90071,263.57893 C 340.74279,263.07849 340.42807,262.60948 339.95654,262.1719 C 339.48498,261.73436 338.90951,261.39242 338.23014,261.14611 C 337.41609,260.851 336.66728,260.71977 335.98373,260.75241 C 335.30015,260.78507 334.70306,260.93736 334.19245,261.20928 C 333.68181,261.48122 333.23786,261.82235 332.86059,262.23264 C 332.21606,262.94079 331.71739,263.78145 331.36458,264.75462 C 330.92967,265.95426 330.77234,267.03293 330.89259,267.99062 C 331.01282,268.94833 331.39672,269.76615 332.04428,270.44411 C 332.69181,271.12207 333.45933,271.62192 334.34682,271.94366 C 335.11802,272.22325 335.92466,272.34775 336.76676,272.31718 C 337.60883,272.28659 338.28064,272.17177 338.78217,271.97271 L 339.69082,269.46633 L 335.73385,268.03179 z M 347.76526,280.13077 C 349.51115,278.34229 350.77262,276.37638 351.54968,274.23299 C 351.96682,273.08232 352.24906,271.89313 352.39639,270.6654 C 352.52112,269.67187 352.54991,268.68511 352.48277,267.7051 C 352.44376,267.06772 352.2839,265.97101 352.00316,264.41496 L 353.1875,264.84432 C 353.78122,266.79776 354.07281,268.64857 354.06228,270.39679 C 354.04984,271.90194 353.77957,273.38287 353.25147,274.83957 C 352.65236,276.49213 351.75648,277.97478 350.56383,279.28752 C 350.08593,279.81353 349.59757,280.30017 349.09874,280.74744 C 349.09874,280.74744 347.76526,280.13077 347.76526,280.13077 z M 370.16122,281.1465 L 371.77922,282.24207 C 370.87553,283.56954 369.79939,284.44149 368.55081,284.85794 C 367.30221,285.27436 365.9771,285.22852 364.5755,284.72039 C 363.1249,284.1945 362.05222,283.47148 361.35744,282.55134 C 360.66265,281.63119 360.28112,280.5251 360.21284,279.23306 C 360.14455,277.94102 360.3434,276.65234 360.80938,275.36701 C 361.3175,273.9654 362.02851,272.83988 362.9424,271.99047 C 363.85627,271.14107 364.90563,270.62471 366.0905,270.44138 C 367.27533,270.25808 368.46146,270.38165 369.64887,270.81212 C 370.99539,271.30028 372.00344,272.05354 372.67303,273.07187 C 373.34258,274.09023 373.63271,275.2861 373.5434,276.65949 L 371.64006,276.43692 C 371.68293,275.34446 371.48851,274.46721 371.0568,273.80516 C 370.62507,273.14313 369.95935,272.64902 369.05963,272.32283 C 368.02524,271.94784 367.07084,271.8823 366.19643,272.12621 C 365.322,272.37015 364.59257,272.8588 364.00815,273.59218 C 363.42371,274.32559 362.97063,275.13602 362.64889,276.02351 C 362.23395,277.16807 362.03849,278.22771 362.06253,279.20247 C 362.08656,280.17723 362.37396,281.00336 362.92473,281.68085 C 363.47548,282.35835 364.16094,282.84576 364.98112,283.1431 C 365.97876,283.50478 366.92769,283.52333 367.82792,283.19873 C 368.7281,282.87414 369.50588,282.19005 370.16122,281.1465 L 370.16122,281.1465 z "
         style="font-size:19.99998474px;font-style:normal;font-variant:normal;font-weight:normal;font-stretch:normal;text-align:center;line-height:100%;writing-mode:lr-tb;text-anchor:middle;fill:black;fill-opacity:1;stroke:none;stroke-width:1px;stroke-linecap:butt;stroke-linejoin:miter;stroke-opacity:1;font-family:Arial" />
      <path
         id="text14480"
         d="M 323.86092,321.34702 L 324.81146,308.75589 L 320.10805,308.40082 L 320.23523,306.71616 L 331.55069,307.5704 L 331.42351,309.25506 L 326.70062,308.89851 L 325.75007,321.48964 L 323.86092,321.34702 z M 337.97497,316.13496 L 338.09848,314.49898 L 347.85539,311.22027 L 347.7238,312.96335 L 339.99331,315.47447 L 347.25699,319.14693 L 347.12539,320.89002 L 337.97497,316.13496 z M 353.56156,323.58922 L 360.12173,309.72732 L 362.15695,309.88096 L 366.92198,324.59784 L 364.7699,324.43537 L 363.43112,319.98602 L 357.46179,319.53538 L 355.56757,323.74066 L 353.56156,323.58922 z M 358.12326,318.03795 L 362.963,318.40332 L 361.77157,314.33725 C 361.40779,313.10195 361.14471,312.08969 360.98231,311.30047 C 360.73142,312.20212 360.40638,313.09163 360.00718,313.96901 L 358.12326,318.03795 z "
         style="font-size:19.99998856px;font-style:normal;font-variant:normal;font-weight:normal;font-stretch:normal;text-align:center;line-height:100%;writing-mode:lr-tb;text-anchor:middle;fill:black;fill-opacity:1;stroke:none;stroke-width:1px;stroke-linecap:butt;stroke-linejoin:miter;stroke-opacity:1;font-family:Arial" />
      <path
         sodipodi:nodetypes="ccccccccccccccccsssccsssccccccccccc"
         id="text14484"
         d="M 328.46536,368.58442 L 333.33626,354.04268 L 335.37535,353.95401 L 341.85115,368.00234 L 339.69499,368.0961 L 337.83827,363.83681 L 331.8576,364.09688 L 330.47518,368.49702 L 328.46536,368.58442 z M 332.33692,362.53161 L 337.18586,362.32075 L 335.52088,358.42456 C 335.01325,357.24108 334.63204,356.26713 334.37724,355.50273 C 334.23499,356.42777 334.01767,357.34954 333.72528,358.26805 L 332.33692,362.53161 z M 350.69811,369.65031 C 350.3007,369.00426 349.93264,368.31338 349.59393,367.57768 C 348.8527,365.96774 348.44392,364.28469 348.36755,362.52854 C 348.30024,360.98052 348.48617,359.48666 348.92533,358.04694 C 349.43916,356.37592 350.27198,354.69753 351.42379,353.01178 L 352.68237,352.95705 C 351.95417,354.34417 351.47584,355.33268 351.24735,355.92258 C 350.88961,356.83743 350.61814,357.78762 350.43292,358.77315 C 350.20612,360.00162 350.11945,361.2305 350.17291,362.4598 C 350.27063,364.70718 350.87006,366.93106 351.97118,369.13145 C 351.97118,369.13145 350.69811,369.65031 350.69811,369.65031 z M 364.77871,367.00534 L 364.23015,354.39031 L 359.5178,354.59523 L 359.44441,352.90737 L 370.78135,352.41439 L 370.85475,354.10225 L 366.12289,354.30801 L 366.67145,366.92304 L 364.77871,367.00534 z "
         style="font-size:20.00000191px;font-style:normal;font-variant:normal;font-weight:normal;font-stretch:normal;text-align:center;line-height:100%;writing-mode:lr-tb;text-anchor:middle;fill:black;fill-opacity:1;stroke:none;stroke-width:1px;stroke-linecap:butt;stroke-linejoin:miter;stroke-opacity:1;font-family:Arial" />
      <path
         sodipodi:nodetypes="ccccssssssssssccsssssssssssccccsssccsssccccsssssssssccssssssssscc"
         id="text14488"
         d="M 340.65041,494.05066 L 340.80665,492.37826 L 346.84572,492.93263 L 346.35156,498.22209 C 345.35556,498.87447 344.34751,499.34099 343.32741,499.62166 C 342.30729,499.90234 341.27865,499.99424 340.24152,499.89735 C 338.84135,499.76654 337.59723,499.34789 336.50915,498.64141 C 335.42106,497.93492 334.63831,496.98723 334.16089,495.79834 C 333.68347,494.60947 333.51016,493.31495 333.64097,491.9148 C 333.77056,490.52762 334.18161,489.25989 334.8741,488.11164 C 335.56658,486.96341 336.48459,486.14845 337.6281,485.66678 C 338.7716,485.18514 340.05316,485.01062 341.47275,485.14323 C 342.50342,485.23953 343.41963,485.4935 344.22142,485.90514 C 345.02318,486.3168 345.63281,486.84291 346.05031,487.48346 C 346.46778,488.12404 346.75487,488.93551 346.91159,489.91788 L 345.16641,490.22563 C 345.02031,489.47966 344.80783,488.88439 344.52897,488.43985 C 344.25009,487.99533 343.82737,487.62072 343.26082,487.31604 C 342.69425,487.01138 342.05121,486.82543 341.33169,486.7582 C 340.46956,486.67767 339.71184,486.7393 339.05855,486.94307 C 338.40524,487.14687 337.86577,487.44466 337.44012,487.83644 C 337.01445,488.22824 336.67075,488.67019 336.409,489.16229 C 335.96363,490.00997 335.69281,490.94913 335.59652,491.97979 C 335.47783,493.2503 335.59729,494.33381 335.9549,495.23033 C 336.31251,496.12686 336.89003,496.82162 337.68749,497.31459 C 338.48492,497.80757 339.3536,498.09797 340.29353,498.18577 C 341.11027,498.26209 341.92226,498.17938 342.72951,497.93766 C 343.53673,497.69595 344.15794,497.41559 344.59316,497.09662 L 344.84114,494.44217 L 340.65041,494.05066 z M 354.85553,503.53618 C 356.39227,501.10958 357.27987,498.62014 357.51831,496.06787 C 357.63216,494.84923 357.60573,493.62728 357.43903,492.40202 C 357.30947,491.40912 357.08878,490.44692 356.77694,489.51542 C 356.57863,488.90843 356.14765,487.88735 355.484,486.4522 L 356.73831,486.56938 C 357.80495,488.31026 358.55337,490.02795 358.98355,491.72243 C 359.35065,493.18219 359.46215,494.68344 359.31803,496.22619 C 359.15452,497.97639 358.661,499.63689 357.8375,501.20773 C 357.34937,502.13883 356.81737,502.99231 356.24151,503.76818 C 356.24151,503.76818 354.85553,503.53618 354.85553,503.53618 z M 377.2712,498.07016 L 379.11301,498.72282 C 378.57284,500.23513 377.75106,501.35005 376.64765,502.06757 C 375.54421,502.7851 374.25028,503.07453 372.76588,502.93585 C 371.22959,502.79233 370.00937,502.36283 369.10521,501.64737 C 368.20104,500.93192 367.55319,499.9576 367.16164,498.72442 C 366.77009,497.49126 366.6379,496.19405 366.76508,494.83279 C 366.90375,493.34837 367.30832,492.08005 367.97876,491.02781 C 368.6492,489.97561 369.53465,489.21156 370.63513,488.73567 C 371.73558,488.25981 372.91459,488.08062 374.17214,488.19809 C 375.59821,488.33133 376.7635,488.80636 377.66801,489.62319 C 378.5725,490.44005 379.15451,491.52427 379.41404,492.87588 L 377.51602,493.13992 C 377.2823,492.07189 376.87317,491.27191 376.28862,490.73996 C 375.70404,490.20803 374.93532,489.89755 373.98245,489.80852 C 372.88696,489.70618 371.94682,489.88317 371.16205,490.33949 C 370.37727,490.79582 369.79445,491.45247 369.41362,492.30942 C 369.03278,493.16639 368.79845,494.06483 368.71064,495.00473 C 368.5974,496.2169 368.67518,497.29163 368.94398,498.22888 C 369.21277,499.16616 369.69901,499.89325 370.40268,500.41016 C 371.10633,500.92708 371.89248,501.22611 372.7611,501.30725 C 373.81768,501.40597 374.74068,501.18487 375.5301,500.64398 C 376.31951,500.10308 376.89987,499.24515 377.2712,498.07016 L 377.2712,498.07016 z "
         style="font-size:19.99999046px;font-style:normal;font-variant:normal;font-weight:normal;font-stretch:normal;text-align:center;line-height:100%;writing-mode:lr-tb;text-anchor:middle;fill:black;fill-opacity:1;stroke:none;stroke-width:1px;stroke-linecap:butt;stroke-linejoin:miter;stroke-opacity:1;font-family:Arial" />
      <path
         id="text14492"
         d="M 321.69145,546.04734 L 322.00199,533.4242 L 317.28661,533.3082 L 317.32816,531.61925 L 328.6724,531.89833 L 328.63085,533.58728 L 323.89595,533.4708 L 323.5854,546.09393 L 321.69145,546.04734 z M 345.00246,540.35915 L 335.42323,544.17746 L 335.46622,542.42994 L 343.05034,539.50034 L 335.61873,536.23064 L 335.66173,534.48312 L 345.04281,538.71903 L 345.00246,540.35915 z M 351.46761,546.77987 L 357.31608,532.603 L 359.35649,532.6532 L 364.862,547.10939 L 362.70445,547.05631 L 361.14167,542.68061 L 355.15715,542.53338 L 353.47872,546.82935 L 351.46761,546.77987 z M 355.74181,541.00433 L 360.59385,541.12369 L 359.19767,537.12331 C 358.7717,535.90804 358.45759,534.91043 358.25537,534.13047 C 358.05055,535.04369 357.77105,535.94855 357.41687,536.84504 L 355.74181,541.00433 z "
         style="font-size:20px;font-style:normal;font-variant:normal;font-weight:normal;font-stretch:normal;text-align:center;line-height:100%;writing-mode:lr-tb;text-anchor:middle;fill:black;fill-opacity:1;stroke:none;stroke-width:1px;stroke-linecap:butt;stroke-linejoin:miter;stroke-opacity:1;font-family:Arial" />
      <path
         id="text14496"
         d="M 315.62232,590.15821 L 321.12036,575.84181 L 323.16138,575.84181 L 329.02075,590.15821 L 326.86255,590.15821 L 325.19263,585.82227 L 319.2063,585.82227 L 317.63403,590.15821 L 315.62232,590.15821 z M 319.75318,584.27931 L 324.60669,584.27931 L 323.11255,580.31446 C 322.65681,579.11005 322.31827,578.12046 322.09693,577.34571 C 321.91463,578.26369 321.65747,579.17515 321.32544,580.08009 L 319.75318,584.27931 z M 335.65161,583.89845 L 335.65161,582.25782 L 345.13403,578.25392 L 345.13403,580.00196 L 337.6145,583.0879 L 345.13403,586.20313 L 345.13403,587.95118 L 335.65161,583.89845 z "
         style="font-size:20px;font-style:normal;font-variant:normal;font-weight:normal;font-stretch:normal;text-align:center;line-height:100%;writing-mode:lr-tb;text-anchor:middle;fill:black;fill-opacity:1;stroke:none;stroke-width:1px;stroke-linecap:butt;stroke-linejoin:miter;stroke-opacity:1;font-family:Arial" />
      <path
         sodipodi:nodetypes="ccccssssssssssccsssssssssssccccsssccsssccccsssssssssccssssssssscc"
         id="text14500"
         d="M 324.53891,683.2492 L 324.65263,681.57336 L 330.70383,681.9742 L 330.34416,687.27452 C 329.36505,687.95197 328.36917,688.44395 327.35652,688.75043 C 326.34386,689.05693 325.31788,689.17492 324.27862,689.10439 C 322.87559,689.00919 321.62124,688.62226 320.51556,687.94364 C 319.40987,687.265 318.60331,686.33751 318.09586,685.16112 C 317.58839,683.98475 317.38227,682.69505 317.47747,681.29202 C 317.5718,679.90199 317.95052,678.62424 318.61362,677.45877 C 319.27673,676.29332 320.17374,675.45532 321.30465,674.94476 C 322.43556,674.43424 323.71227,674.22723 325.13479,674.32374 C 326.16756,674.39384 327.08994,674.62446 327.90192,675.0156 C 328.71388,675.40677 329.33667,675.91723 329.7703,676.54698 C 330.20391,677.17675 330.51151,677.98067 330.69312,678.95874 L 328.95632,679.31071 C 328.79133,678.56869 328.5638,677.97901 328.27374,677.54169 C 327.98366,677.10439 327.55156,676.74065 326.97745,676.45044 C 326.40333,676.16028 325.75577,675.99071 325.03478,675.94178 C 324.17087,675.88317 323.41497,675.96402 322.76706,676.18432 C 322.11915,676.40464 321.5874,676.71603 321.17183,677.1185 C 320.75626,677.52098 320.42388,677.97152 320.17472,678.4701 C 319.75102,679.32882 319.50413,680.27455 319.43406,681.30733 C 319.34766,682.58045 319.4946,683.66059 319.87487,684.54774 C 320.25512,685.4349 320.8501,686.11476 321.65982,686.58733 C 322.46952,687.0599 323.3453,687.32814 324.28714,687.39205 C 325.10557,687.44759 325.9152,687.34429 326.71605,687.08215 C 327.51687,686.82002 328.13078,686.52398 328.55774,686.19406 L 328.73824,683.53416 L 324.53891,683.2492 z M 339.71246,691.03734 C 340.73022,689.00187 341.31027,686.93522 341.45263,684.8374 C 341.53549,683.61625 341.47804,682.39537 341.28029,681.17474 C 341.12555,680.18545 340.88048,679.22916 340.54509,678.30588 C 340.33143,677.70412 339.87466,676.69431 339.17479,675.27647 L 340.43166,675.36176 C 341.54217,677.075 342.33396,678.77314 342.80705,680.45615 C 343.21111,681.90611 343.36068,683.40405 343.25579,684.94997 C 343.13677,686.70375 342.68559,688.37626 341.90224,689.96751 C 341.66819,690.44293 341.4225,690.89892 341.16517,691.33549 C 341.16517,691.33549 339.71246,691.03734 339.71246,691.03734 z M 361.25003,686.33743 L 363.10782,686.94311 C 362.60623,688.46865 361.81303,689.60408 360.72819,690.34939 C 359.64333,691.09472 358.35717,691.41691 356.86972,691.31597 C 355.33028,691.21151 354.09954,690.81314 353.17751,690.12087 C 352.25546,689.4286 351.58306,688.47105 351.16032,687.24822 C 350.73759,686.02539 350.5725,684.73194 350.66507,683.36789 C 350.766,681.88043 351.13822,680.60225 351.78173,679.53332 C 352.42523,678.46443 353.291,677.67814 354.37903,677.17445 C 355.46706,676.6708 356.64114,676.46173 357.90126,676.54722 C 359.33026,676.64421 360.50724,677.08949 361.43221,677.88309 C 362.35715,678.67671 362.96651,679.74581 363.26027,681.09039 L 361.36957,681.40255 C 361.10881,680.3408 360.67949,679.55147 360.08162,679.03453 C 359.48372,678.51762 358.70736,678.22676 357.75254,678.16195 C 356.65479,678.08747 355.71946,678.28828 354.94652,678.76437 C 354.17357,679.24049 353.60763,679.91173 353.24867,680.77807 C 352.88971,681.64444 352.67828,682.54854 352.61437,683.49037 C 352.53194,684.70504 352.63699,685.77743 352.92951,686.70757 C 353.22201,687.63772 353.72656,688.35223 354.44313,688.85111 C 355.1597,689.34999 355.95317,689.62895 356.82358,689.68801 C 357.88234,689.75986 358.79942,689.51541 359.57486,688.95463 C 360.35027,688.39387 360.90866,687.52147 361.25003,686.33743 L 361.25003,686.33743 z "
         style="font-size:20.00000954px;font-style:normal;font-variant:normal;font-weight:normal;font-stretch:normal;text-align:center;line-height:100%;writing-mode:lr-tb;text-anchor:middle;fill:black;fill-opacity:1;stroke:none;stroke-width:1px;stroke-linecap:butt;stroke-linejoin:miter;stroke-opacity:1;font-family:Arial" />
      <path
         id="text14504"
         d="M 322.61099,734.49012 L 322.61099,721.86317 L 317.8942,721.86317 L 317.8942,720.17371 L 329.24185,720.17371 L 329.24185,721.86317 L 324.50552,721.86317 L 324.50552,734.49012 L 322.61099,734.49012 z M 345.77506,728.23036 L 336.29263,732.28309 L 336.29263,730.53504 L 343.8024,727.41981 L 336.29263,724.33387 L 336.29263,722.58582 L 345.77506,726.58973 L 345.77506,728.23036 z M 352.39615,734.49012 L 357.8942,720.17371 L 359.93521,720.17371 L 365.79459,734.49012 L 363.63638,734.49012 L 361.96646,730.15418 L 355.98013,730.15418 L 354.40787,734.49012 L 352.39615,734.49012 z M 356.52701,728.61121 L 361.38052,728.61121 L 359.88638,724.64637 C 359.43065,723.44196 359.09211,722.45237 358.87076,721.67762 C 358.68846,722.5956 358.4313,723.50706 358.09927,724.412 L 356.52701,728.61121 z "
         style="font-size:20px;font-style:normal;font-variant:normal;font-weight:normal;font-stretch:normal;text-align:center;line-height:100%;writing-mode:lr-tb;text-anchor:middle;fill:black;fill-opacity:1;stroke:none;stroke-width:1px;stroke-linecap:butt;stroke-linejoin:miter;stroke-opacity:1;font-family:Arial" />
      <path
         id="text14508"
         d="M 324.3877,778.16627 L 329.88574,763.84986 L 331.92676,763.84986 L 337.78613,778.16627 L 335.62793,778.16627 L 333.95801,773.83033 L 327.97168,773.83033 L 326.39942,778.16627 L 324.3877,778.16627 z M 328.51856,772.28736 L 333.37207,772.28736 L 331.87793,768.32252 C 331.42219,767.1181 331.08365,766.12852 330.86231,765.35377 C 330.68001,766.27175 330.42285,767.18321 330.09082,768.08814 L 328.51856,772.28736 z M 344.41699,771.9065 L 344.41699,770.26588 L 353.89942,766.26197 L 353.89942,768.01002 L 346.37988,771.09596 L 353.89942,774.21119 L 353.89942,775.95924 L 344.41699,771.9065 z "
         style="font-size:20px;font-style:normal;font-variant:normal;font-weight:normal;font-stretch:normal;text-align:center;line-height:100%;writing-mode:lr-tb;text-anchor:middle;fill:black;fill-opacity:1;stroke:none;stroke-width:1px;stroke-linecap:butt;stroke-linejoin:miter;stroke-opacity:1;font-family:Arial" />
      <path
         sodipodi:nodetypes="ccsssssssssccssssssssscccsssccsssccccccssssssssssccsssssssssssccc"
         id="text14512"
         d="M 339.80982,871.48439 L 341.66763,872.09001 C 341.1661,873.61556 340.37293,874.75101 339.28813,875.49637 C 338.20329,876.24173 336.91715,876.56397 335.42969,876.46309 C 333.89025,876.35868 332.6595,875.96037 331.73744,875.26813 C 330.81537,874.5759 330.14294,873.61838 329.72016,872.39556 C 329.29737,871.17275 329.13223,869.87931 329.22475,868.51525 C 329.32563,867.02779 329.6978,865.74959 330.34126,864.68065 C 330.98473,863.61173 331.85047,862.8254 332.93848,862.32169 C 334.02648,861.818 335.20055,861.60887 336.46068,861.69432 C 337.88969,861.79125 339.06668,862.23649 339.99167,863.03006 C 340.91664,863.82365 341.52604,864.89272 341.81986,866.23728 L 339.92917,866.54952 C 339.66837,865.48779 339.23902,864.69845 338.64113,864.18154 C 338.04321,863.66465 337.26684,863.37382 336.31202,863.30905 C 335.21427,863.23461 334.27894,863.43547 333.50603,863.91159 C 332.73311,864.38773 332.16718,865.05898 331.80826,865.92534 C 331.44933,866.79172 331.23793,867.69583 331.17406,868.63767 C 331.09167,869.85233 331.19676,870.92472 331.48931,871.85485 C 331.78186,872.78499 332.28642,873.49948 333.00302,873.99832 C 333.7196,874.49717 334.51308,874.77611 335.38349,874.83514 C 336.44225,874.90695 337.35933,874.66245 338.13474,874.10165 C 338.91013,873.54086 339.46849,872.66844 339.80982,871.48439 L 339.80982,871.48439 z M 350.02484,879.12426 C 351.29168,876.84414 352.00509,874.52462 352.16508,872.16572 C 352.24789,870.94458 352.1904,869.7237 351.99259,868.50308 C 351.83783,867.51379 351.59272,866.55751 351.25729,865.63425 C 351.04361,865.03249 350.5868,864.02271 349.88687,862.6049 L 351.14375,862.69014 C 352.25432,864.40333 353.04618,866.10143 353.51933,867.78443 C 353.92344,869.23437 354.07308,870.7323 353.96824,872.27823 C 353.84929,874.03201 353.39817,875.70454 352.61487,877.29581 C 352.19079,878.15734 351.72848,878.95506 351.22793,879.68899 C 351.22793,879.68899 350.02484,879.12426 350.02484,879.12426 z M 368.49525,872.83279 L 368.60891,871.15695 L 374.66013,871.55756 L 374.30066,876.85789 C 373.32156,877.53537 372.32571,878.02738 371.31307,878.33391 C 370.30041,878.64044 369.27445,878.75846 368.23518,878.68798 C 366.83215,878.59282 365.57779,878.20596 364.47208,877.52737 C 363.36637,876.84878 362.55977,875.92131 362.05228,874.74495 C 361.54477,873.5686 361.3386,872.27891 361.43375,870.87587 C 361.52802,869.48585 361.90669,868.20808 362.56976,867.04259 C 363.23282,865.87711 364.1298,865.03908 365.26069,864.52848 C 366.39158,864.01791 367.66828,863.81085 369.0908,863.90732 C 370.12357,863.97737 371.04596,864.20795 371.85794,864.59907 C 372.66992,864.99021 373.29274,865.50064 373.72639,866.13037 C 374.16002,866.76013 374.46765,867.56403 374.64929,868.5421 L 372.91251,868.89413 C 372.74748,868.15212 372.51994,867.56245 372.22987,867.12514 C 371.93977,866.68786 371.50766,866.32412 370.93354,866.03395 C 370.3594,865.7438 369.71184,865.57426 368.99085,865.52535 C 368.12694,865.46677 367.37103,865.54765 366.72314,865.76797 C 366.07523,865.98832 365.5435,866.29973 365.12795,866.70222 C 364.71239,867.10472 364.38003,867.55526 364.13089,868.05386 C 363.70722,868.91259 363.46037,869.85833 363.39032,870.89111 C 363.30398,872.16424 363.45096,873.24437 363.83125,874.1315 C 364.21155,875.01865 364.80656,875.69849 365.61629,876.17102 C 366.42601,876.64356 367.30179,876.91177 368.24365,876.97565 C 369.06207,877.03115 369.87169,876.92782 370.67253,876.66566 C 371.47334,876.40348 372.08723,876.10743 372.5142,875.77749 L 372.69459,873.11759 L 368.49525,872.83279 z "
         style="font-size:19.99999809px;font-style:normal;font-variant:normal;font-weight:normal;font-stretch:normal;text-align:center;line-height:100%;writing-mode:lr-tb;text-anchor:middle;fill:black;fill-opacity:1;stroke:none;stroke-width:1px;stroke-linecap:butt;stroke-linejoin:miter;stroke-opacity:1;font-family:Arial" />
      <path
         id="text14516"
         d="M 326.45759,920.80087 L 326.71842,908.1766 L 322.00262,908.07917 L 322.03752,906.39007 L 333.38277,906.62447 L 333.34787,908.31358 L 328.61255,908.21574 L 328.35171,920.84001 L 326.45759,920.80087 z M 349.74603,915.02093 L 340.18191,918.87692 L 340.21802,917.12925 L 347.79054,914.16981 L 340.34612,910.9294 L 340.38223,909.18172 L 349.77992,913.38065 L 349.74603,915.02093 z M 356.23641,921.41614 L 362.02902,907.21634 L 364.06961,907.2585 L 369.632,921.69291 L 367.47426,921.64832 L 365.89426,917.27881 L 359.90921,917.15516 L 358.24771,921.45769 L 356.23641,921.41614 z M 360.48783,915.62381 L 365.34032,915.72407 L 363.9284,911.7292 C 363.49763,910.51562 363.17961,909.51926 362.97431,908.7401 C 362.77309,909.65412 362.49715,910.56007 362.14651,911.45796 L 360.48783,915.62381 z "
         style="font-size:20.00000763px;font-style:normal;font-variant:normal;font-weight:normal;font-stretch:normal;text-align:center;line-height:100%;writing-mode:lr-tb;text-anchor:middle;fill:black;fill-opacity:1;stroke:none;stroke-width:1px;stroke-linecap:butt;stroke-linejoin:miter;stroke-opacity:1;font-family:Arial" />
      <path
         id="text14520"
         d="M 319.09391,965.79114 L 324.99403,951.63569 L 327.03423,951.69333 L 332.487,966.16948 L 330.32966,966.10854 L 328.78284,961.72717 L 322.7989,961.55813 L 321.10483,965.84795 L 319.09391,965.79114 z M 323.38913,960.03122 L 328.2407,960.16827 L 326.85912,956.16282 C 326.43758,954.94602 326.12712,953.94727 325.92773,953.16658 C 325.71958,954.07905 325.43679,954.98288 325.07934,955.87807 L 323.38913,960.03122 z M 339.29197,960.09945 L 339.3383,958.45948 L 348.93,954.72493 L 348.88064,956.47229 L 341.27697,959.34465 L 348.70553,962.67098 L 348.65617,964.41832 L 339.29197,960.09945 z M 360.42506,966.9587 L 360.78162,954.33678 L 356.0667,954.20359 L 356.11441,952.51481 L 367.45754,952.83525 L 367.40983,954.52402 L 362.67539,954.39028 L 362.31884,967.0122 L 360.42506,966.9587 z "
         style="font-size:19.99999619px;font-style:normal;font-variant:normal;font-weight:normal;font-stretch:normal;text-align:center;line-height:100%;writing-mode:lr-tb;text-anchor:middle;fill:black;fill-opacity:1;stroke:none;stroke-width:1px;stroke-linecap:butt;stroke-linejoin:miter;stroke-opacity:1;font-family:Arial" />
      <path
         id="text14524"
         d="M 332.22336,193.33959 C 331.2533,192.11563 330.43299,190.68334 329.76242,189.04272 C 329.09185,187.40209 328.75656,185.70288 328.75656,183.94506 C 328.75656,182.39559 329.00721,180.91122 329.50852,179.49194 C 330.09445,177.84481 330.9994,176.20419 332.22336,174.57006 L 333.48313,174.57006 C 332.69536,175.92424 332.17453,176.89104 331.92063,177.47045 C 331.52349,178.3689 331.21099,179.3064 330.98313,180.28295 C 330.70317,181.50041 330.5632,182.72437 330.5632,183.95483 C 330.5632,187.08634 331.53651,190.21459 333.48313,193.33959 L 332.22336,193.33959 z "
         style="font-size:20px;font-style:normal;font-variant:normal;font-weight:normal;font-stretch:normal;text-align:center;line-height:100%;writing-mode:lr-tb;text-anchor:middle;fill:black;fill-opacity:1;stroke:none;stroke-width:1px;stroke-linecap:butt;stroke-linejoin:miter;stroke-opacity:1;font-family:Arial" />
      <text
         sodipodi:linespacing="100%"
         id="text1968"
         y="371.69861"
         x="55.552002"
         style="font-size:40px;font-style:normal;font-variant:normal;font-weight:normal;font-stretch:normal;text-align:center;line-height:100%;writing-mode:lr-tb;text-anchor:middle;fill:#000000;fill-opacity:1;stroke:none;stroke-width:1px;stroke-linecap:butt;stroke-linejoin:miter;stroke-opacity:1;font-family:Arial"
         xml:space="preserve"><tspan
           y="371.69861"
           x="55.552002"
           id="tspan1970"
           sodipodi:role="line">Adenine</tspan></text>
      <text
         sodipodi:linespacing="100%"
         id="text1972"
         y="545.76953"
         x="63.403564"
         style="font-size:40px;font-style:normal;font-variant:normal;font-weight:normal;font-stretch:normal;text-align:center;line-height:100%;writing-mode:lr-tb;text-anchor:middle;fill:#000000;fill-opacity:1;stroke:none;stroke-width:1px;stroke-linecap:butt;stroke-linejoin:miter;stroke-opacity:1;font-family:Arial"
         xml:space="preserve"><tspan
           y="545.76953"
           x="63.403564"
           id="tspan1974"
           sodipodi:role="line">Thymine</tspan></text>
      <text
         sodipodi:linespacing="100%"
         id="text1976"
         y="690.50269"
         x="53.364502"
         style="font-size:40px;font-style:normal;font-variant:normal;font-weight:normal;font-stretch:normal;text-align:center;line-height:100%;writing-mode:lr-tb;text-anchor:middle;fill:#000000;fill-opacity:1;stroke:none;stroke-width:1px;stroke-linecap:butt;stroke-linejoin:miter;stroke-opacity:1;font-family:Arial"
         xml:space="preserve"><tspan
           y="690.50269"
           x="53.364502"
           id="tspan1978"
           sodipodi:role="line">Guanine</tspan></text>
      <text
         sodipodi:linespacing="100%"
         id="text1980"
         y="878.26459"
         x="45.630127"
         style="font-size:40px;font-style:normal;font-variant:normal;font-weight:normal;font-stretch:normal;text-align:center;line-height:100%;writing-mode:lr-tb;text-anchor:middle;fill:#000000;fill-opacity:1;stroke:none;stroke-width:1px;stroke-linecap:butt;stroke-linejoin:miter;stroke-opacity:1;font-family:Arial"
         xml:space="preserve"><tspan
           y="878.26459"
           x="45.630127"
           id="tspan1982"
           sodipodi:role="line">Cytosine</tspan></text>
      <text
         sodipodi:linespacing="100%"
         id="text1984"
         y="135.04036"
         x="556.01874"
         style="font-size:40px;font-style:normal;font-variant:normal;font-weight:normal;font-stretch:normal;text-align:start;line-height:100%;writing-mode:lr-tb;text-anchor:start;fill:#000000;fill-opacity:1;stroke:none;stroke-width:1px;stroke-linecap:butt;stroke-linejoin:miter;stroke-opacity:1;font-family:Arial"
         xml:space="preserve"><tspan
           id="tspan2086"
           y="135.04036"
           x="556.01874"
           sodipodi:role="line">Colonne </tspan><tspan
           y="175.04036"
           x="556.01874"
           sodipodi:role="line"
           id="tspan2467">sucre-phosphate</tspan></text>
      <text
         sodipodi:linespacing="100%"
         id="text1988"
         y="250.43568"
         x="666.22815"
         style="font-size:40px;font-style:normal;font-variant:normal;font-weight:normal;font-stretch:normal;text-align:center;line-height:100%;writing-mode:lr-tb;text-anchor:middle;fill:#000000;fill-opacity:1;stroke:none;stroke-width:1px;stroke-linecap:butt;stroke-linejoin:miter;stroke-opacity:1;font-family:Arial"
         xml:space="preserve"><tspan
           y="250.43568"
           x="666.22815"
           id="tspan1990"
           sodipodi:role="line">    Paire de bases</tspan></text>
      <text
         sodipodi:linespacing="100%"
         id="text1992"
         y="467.5354"
         x="675.25159"
         style="font-size:40px;font-style:normal;font-variant:normal;font-weight:normal;font-stretch:normal;text-align:center;line-height:100%;writing-mode:lr-tb;text-anchor:middle;fill:#000000;fill-opacity:1;stroke:none;stroke-width:1px;stroke-linecap:butt;stroke-linejoin:miter;stroke-opacity:1;font-family:Arial"
         xml:space="preserve"><tspan
           y="467.5354"
           x="675.25159"
           id="tspan1994"
           sodipodi:role="line">Base azote</tspan></text>
    </g>
  </g>
</svg>
