<?xml version="1.0" encoding="UTF-8"?>
<svg viewBox="0 0 140 201.25" xmlns="http://www.w3.org/2000/svg">
 <path d="m103.61408,5.66222c-.0001.16593-.083.33166-.2486.49719l-.2486-.24859c.1656-.16554.3313-.2484.4972-.2486m.9943,3.48031c-.0001.00019-.0001.08305 0,.24859h-.4971c.1656-.16554.3313-.2484.4971-.24859m-1.9887,2.48592c-.0001.16592-.083.33165-.2486.49719-.1658.00019-.3315-.08267-.4972-.24859 .1657-.16554.4142-.24841.7458-.2486m-13.424-.74577c-.1658-.33127-.4144-.41414-.7458-.2486l.2486-.49718 .4972.74578m2.7345.74577c-.3315.16592-.4973.66311-.4972,1.49156l-1.7401.2486v1.24296l-.4972-.24859c-.0001-.33127-.0001-.74559 0-1.24297 .3314.16592-.0001.33165-.9944.49719l.4972-.49719v-1.24296c.1656.16592.4142.24878.7458.24859 .3313-.497.3313-.74559 0-.74578 .3313.49738.8285.58024 1.4915.24859-.1658-.16553-.2486-.16553-.2486,0v-.24859l1.243.24859m-.9944,2.23734c-.0001.16592-.1658.41451-.4971.74578v-1.24296c-.0001.16591.1656.33164.4971.49718m-2.7345,1.98874-.4972-.49718c.1657.00018.3314.08305.4972.24859v.24859m-4.9718-.74577-.2486.24859h-.4972c.1656-.16554.4142-.24841.7458-.24859m0,.99437c-.0001.16591-.083.33164-.2486.49718-.1658.00019-.3316-.08268-.4972-.24859 .1656-.16554.4142-.24841.7458-.24859m-12.1811,13.67261-.9944-.99437c0,.1659.1657.33163.4972.49718 .3314.00018.4971.1659.4972.49719m-9.4465.24859-.2486.2486h-.2486c-.0001-.16556.1657-.24843.4972-.2486m-23.3678,9.19794c0,.33162-.0829.49735-.2486.49719h-.4971c.1656-.66276.4142-.82848.7457-.49719m-14.4184-7.95497c0,.1659-.0828.33162-.2486.49718h-.2485l.4971-.49718m22.622,29.08537-.7458-.99437 .7458.74578v.24859m-1.243-.99437-1.7401-.99437c.1657.00014.1657-.24845 0-.74578 .3314.16587.7457.41446 1.2429.74578l-.2485.49718 .7457.49719m-1.9887-2.23734h-3.2317c1.3258-.33131 2.3201-.33131 2.9831,0h.2486m-9.4465-8.20356c-.4973.82879-.9944,1.24311-1.4916,1.24296s-1.243-.33131-2.2373-.99437c-.9944-.82849-1.7402-1.24281-2.2374-1.24297l-2.2373-.49718c-.3315-.82849-1.243-1.57427-2.7345-2.23734-1.4916-.82848-2.4031-1.73999-2.7346-2.73452l-.9943.24859c.3314-.49702.4971-.82848.4972-.99437l-1.4916-1.49156c.4972.33162 1.7401,1.65745 3.7289,3.97749l2.9831,1.98874h.2486c-.4972-2.15431-1.4087-5.30315-2.7345-9.44653v-2.48593c.4971.33163.9943.99454 1.4915,1.98875l1.9888,1.49155c-.8287-.16556-1.6573-.82848-2.4859-1.98874l-.2486-.49719-.2486.2486c-.0001,1.49172.4971,3.31473 1.4915,5.46904s1.5744,3.81192 1.7402,4.97186c.4971.49734 2.5687,1.7403 6.2148,3.72889 .3314-.49703.8286-.74562 1.4916-.74577m5.9662,7.20919c-.663.16587-1.6573.5802-2.9831,1.24297 1.6572-.8285 2.6516-1.24282 2.9831-1.24297m4.2261,9.44653-.4972.2486-.2486-.74578 .4972-.49719c-.0001.16587.0828.49732.2486.99437m-7.955-8.20356c-.663.49732-1.1601.74592-1.4916.74577l1.4916-.74577m-10.4409-9.19794-.4972.74578c-.1657-.33131 0-.5799.4972-.74578m-9.4465-8.70076c-.1658.00017-.4972.08303-.9944.2486-.1658-.16557-.1658-.3313 0-.49719l.9944.24859m19.1416,17.40151c-.6629.66306-1.7402,1.16024-3.2317,1.49156l3.2317-1.49156m-20.3846-17.89869c-.3315-.16557-.7458-.24843-1.243-.24859-.1657-.16557-.1657-.41416 0-.74578 .3315.00016.7458.33162 1.243.99437m-.9944.99437-.2486-.99437c0,.33162.0829.66307.2486.99437m15.6614,17.40151c-.4972.82878-.7458,1.4917-.7458,1.98874-1.9888.16587-3.2317.00014-3.7289-.49719-.8287.00015-1.4916.16587-1.9887.49719l-.4972-.49719-1.243.99438 .9944-1.49156-1.4916-.74578v-.24859c2.9831,1.32597 5.2205,1.74029 6.712,1.24296l-5.7176-2.48593c-3.3146-2.32005-5.2205-4.39166-5.7176-6.21482-.4972-.49704-.9944-1.32568-1.4916-2.48593l.4972-.49719c.1657.66307.7458,1.07739 1.7401,1.24297 .9944.00015 1.5744.08301 1.7402.24859h.2486l-4.4747-6.9606c0-.3313-.1657-.74562-.4972-1.24297l.4972.49719 .4972-.49719c.3314.66308.58,1.57458.7458,2.73453 1.823,1.82317 3.0659,3.31472 3.7289,4.47467 1.6572.82879 3.8946,2.48608 6.712,4.97186 .1657.00015 1.3258.16587 3.4803.49718 0,.33161-.0829.49734-.2486.49719-.9944-.33131-2.486-.66277-4.4747-.99437-.1657.16587-.4972.41447-.9944.74578l.7458-.74578c0-.16558-.2486-.24845-.7458-.2486 0,.16588-.1657.33161-.4971.49719l.4971-.74578c-1.1601-.99422-2.4859-1.74-3.9774-2.23734-.3315.33161-.5801.49734-.7458.49719l-1.243-1.74015c-1.3258.16588-2.2373-.16558-2.7345-.99437v.74578l4.9718,5.71763 9.4466,3.48031m107.1435,27.59381c-.1658.00012-.4973.16585-.9943.49719-.3316.16584-.5802.33157-.7458.49718s-.3316.58017-.4972,1.24297-.4973.91162-.9944.74578l-.4972.49718c.1656.16584.4142.16584.7458,0 .1656.16584.2485.33157.2486.49719-.3316.00011-.8288.16584-1.4915.49719 .1656.16584.497.2487.9943.24859-.1658.00011-.1658.58016 0,1.74015 .4971.16584.6628.99448.4972,2.48593-.4973.33156-.9945,1.07734-1.4915,2.23733l-1.7402.2486c1.9886,2.15457 2.983,5.55201 2.9831,10.19231 .3313,1.49165 1.16,3.72898 2.486,6.71201 1.8228,6.79495 2.7343,13.67268 2.7345,20.63321-.0002,7.62358-1.1603,14.41845-3.4803,20.38462-1.6574,3.64608-3.3147,7.20924-4.9719,10.6895-1.9889,4.30898-4.1433,7.70641-6.4634,10.19231-5.6349,6.62916-10.8553,11.43529-15.6614,14.41839l-6.2148,3.97749c-2.3203,1.1601-6.0492,2.65166-11.1867,4.47467s-10.6895,2.81739-16.6557,2.98312c-14.087.33145-26.4338-2.23734-37.0403-7.70639-3.1489-1.98873-6.3806-4.06033-9.6952-6.21482-3.3146-2.32018-5.9662-4.88897-7.9549-7.70638-5.6348-5.80047-10.6895-13.92117-15.1642-24.36211-.4972-2.15442-1.4087-5.30326-2.7345-9.44653-.6629-3.14879-.9944-6.62908-.9944-10.4409 0-5.13752.9944-12.5953 2.9831-22.37337 1.3258-3.14875 3.4803-7.95488 6.4634-14.41839 1.3258-2.48582 3.8946-5.88326 7.7064-10.19231 .1657-.33134.2486-.82853.2486-1.49156-.4972.4973-1.0772.99449-1.7401,1.49156-.4972.4973-1.0773.58016-1.7402.24859l1.9887-2.73452c-.8286-.6628-.58-2.40295.7458-5.22045 .3315-.33134.4972-.74566.4972-1.24297h-.9944l-1.7401,3.23171-.4972-.49718c0,.33157-.2486.66303-.7458.99437h-.2486c0-.33134.3315-.82853.9944-1.49156-.3315-1.49144.1657-2.7344 1.4916-3.72889-.3315-1.82289-.3315-2.90013 0-3.23171 .4971-.49706 1.16-1.3257 1.9887-2.48593-.6629-.33133-1.4087-.82851-2.2373-1.49156 1.3258.66305 2.3202.91164 2.9831.74578 .1657.00013.9115-.57992 2.2373-1.74015-.8286.33159-2.2373.41445-4.2261.24859l3.2317-.74578c-1.6573.00014-3.9775-.41419-6.9606-1.24296v.24859c.3315.49732 1.243,1.07737 2.7346,1.74015-.663.33159-1.3259.16586-1.9888-.49718-.4972-.82851-.9944-1.57429-1.4915-2.23734v-.74578l.2486.49719c.1657.33159.4143.66305.7457.99437 2.6517.00013 4.7233-.74565 6.2149-2.23734 .8286.16587 1.6572.00014 2.4859-.49718 .9943-.66278 1.5744-.99424 1.7401-.99437-.8286-.49705-2.1545-1.15997-3.9774-1.98875l-2.9832-2.23733-2.2373-2.23734 1.243-.74578c-.1658.00014 1.0772.08301 3.7289.24859-.663-.16558-1.4916-.08272-2.486.2486-.8286.3316-1.4915.49732-1.9887.49718 1.1601.82879 4.4746,2.6518 9.9437,5.46905-.1657.00013 1.1601-.16559 3.9775-.49719 1.3258.66305 3.1488,1.74029 5.469,3.23171 .6629.00013 1.4916.33159 2.486.99437 1.16.66305 1.9058,1.07737 2.2373,1.24297h2.7345v.24859c-.4972-.1656.1657-.41419 1.9888-.74578-.0001-.1656.1657-.33132.4972-.49719-.0001.16587-.4973.58019-1.4916,1.24297-.8287.49732-1.3259.82877-1.4916.99437s-.3315.58018-.4971,1.24296c.8286.82878 1.5743.91164 2.2373.2486l9.4465-3.23171c.1657-.49705.1657-1.0771 0-1.74015-.8287-1.49142-1.5744-3.06584-2.2373-4.72327-.663-1.82287-.8287-3.56302-.4972-5.22045-.1658-1.49141-1.3259-3.48015-3.4803-5.96623s-3.2318-4.55738-3.2317-6.21482l-1.4916-1.49156v-2.23734c-1.4916-.49702-2.8174-1.49139-3.9775-2.98311s-2.2373-2.90009-3.2317-4.22608c-.8286.00017-1.3258.08303-1.4915.24859-.0001.1659-.0829.33163-.2486.49719 .1657.99453.1657,1.49172 0,1.49155 0,.1659.0828.24876.2486.2486l.9944-1.24297 .2485.49719c-.8286.49735-.9944,1.16026-.4971,1.98874 .3314.82881.7457,1.65745 1.2429,2.48593 .6629.66308 1.6573,1.82318 2.9831,3.4803 0,.8288.1657,1.9889.4972,3.4803 .1657.00016.4143-.08271.7458-.24859 .3314.49734.7457.66307 1.243.49719l-.9944.74578c-.663.49733-1.243.74593-1.7402.74577-.8286.00016-1.9059-.41416-3.2317-1.24296-1.1601-.99422-2.1545-1.4914-2.9831-1.49156-.9944.8288-1.5744,1.16026-1.7401.99437l1.2429-.99437c-.1657-.49703-.4143-.57989-.7457-.24859-.4973.49734-.8287.74593-.9944.74578l1.243-1.49156c-1.3259-1.32567-2.1545-1.90572-2.486-1.74015 0,.16589-.1657.24875-.4972.24859l.7458-.74578c-.4972-.82848-1.1601-1.98858-1.9887-3.4803 .4971.66308 1.3258,1.57459 2.4859,2.73452 .1657.00016.1657-.0827 0-.24859 .1657.00016.3314.08303.4972.24859l-.4972.74578 2.2373,2.73453c1.6573.49734 3.4803,1.40884 5.4691,2.73452 1.16-1.32568 1.5744-2.56864 1.2429-3.7289l-1.4915-2.48593c-.3315-.82848-.9944-1.15993-1.9888-.99437-.9944.00016-2.1545-.33129-3.4803-.99437s-2.2373-1.07707-2.7345-1.24296c-1.1601-.66275-2.7345-1.98858-4.7232-3.97749v-1.74015c.1657.00017.3314.08303.4971.24859 .4972-.16556 1.0773-.33129 1.7402-.49718 .6629-.33129 1.2429-.99421 1.7401-1.98875 .4972-1.15993 1.0773-1.65711 1.7402-1.49156 6.4634-1.65711 12.6782-1.24279 18.6445,1.24297 .6628.1659 1.5743.00017 2.7345-.49719-.1658.00018-.2487-.08269-.2486-.24859h.2486l.2486.74578c3.4802-.33129 5.5518-.24842 6.2148.24859l3.9775,1.74015c.6628.33163 1.2429.49736 1.7401.49719 .9943.00017 2.3202-.33129 3.9775-.99437 1.6572-.82848 3.0659-1.2428 4.2261-1.24297 .8286.00017 1.9887.24877 3.4803.74578s3.7288.74595 6.712.74578c3.1488-.16556 5.3032.08303 6.4634.74578 3.8117,1.82318 9.6122,4.47484 17.4015,7.95497l.4972-.49718c.1657.49734.58.99453 1.243,1.49155h1.243c-.0002-.16556-.083-.33129-.2486-.49718-.3316.00016-.1659.24875.4971.74578 .1657.16589.4971.41448.9944.74578 .6628.33161.8286.74593.4972,1.24296l-.7458,1.74015 1.243-.99437 .2486.49719 .4972-.49719 .4972.49719-.4972.24859-.2486-.24859c-.1659.16588-.2487.33161-.2486.49718 .1656.49734.4971.66307.9944.49719 .6628-.49703 1.0771-.74563 1.2429-.74578 .3314-.99422.0828-1.90572-.7458-2.73452l-1.9887-2.48593c-9.1152-5.96607-16.7387-9.61209-22.8706-10.93809-.663-.33129-1.6573-.66274-2.9831-.99437l-.2486.24859-.9943-.49719c-.4973.33163-.663.49736-.4972.49719-.0001-.16556-.4144-.33129-1.243-.49719l-1.2429-.99437c-.8288.00018-1.5745-.16555-2.2374-.49718 .1657.00017-2.7346.1659-8.7007.49718 .8285.49736 1.16.99455.9943,1.49156-.8287-1.15993-2.7346-1.65711-5.7176-1.49156-.3315.00018-.8287.33163-1.4916.99437-.4972.66309-.9944.82882-1.4915.49719-.0001.33163-.1658.66309-.4972.99437l-.2486-.74578c.8286-.33128 1.5744-.91133 2.2373-1.74015-2.6517.82882-5.7177.82882-9.1979,0-.0001.1659-.2486.49736-.7458.99437s-.9944.58023-1.4915.2486c.1656.00017.4971-.24842.9943-.74578l-.2486-.2486-4.7232-.24859c-.1658-.49701-.663-.57987-1.4916-.24859-1.3259.00017-3.2317.08304-5.7176.24859-2.3203.1659-5.7177.58023-10.1923,1.24297-.3315.33163-.9944.33163-1.9888,0-.6629.1659-1.1601.74595-1.4915,1.74015-.1658.99454-.4144,1.57459-.7458,1.74015h-1.243c1.1601-.66275 1.6573-1.2428 1.4916-1.74015-.1658-.66275.1657-1.32566.9944-1.98875v-.49718h1.4915 1.9888l2.7345-.49719c4.8061.1659 10.0265-.33128 15.6613-1.49156 .1657.00018.2486.08304.2486.2486l-.7457.49718h1.2429c-.1658-.33128.0828-.91133.7458-1.74015-.1658-.49701-.0001-.99419.4972-1.49156 .6628-.66273.9943-1.15992.9944-1.49155s-.083-.66274-.2486-.99438c-.1658-.497-.4973-1.15991-.9944-1.98874v-.24859c.8286-.497 1.7401-.99419 2.7345-1.49156s1.4086-1.24278 1.243-2.23734c.8286-.66272 1.4086-1.82282 1.7401-3.4803 1.3258-.49699 3.2317-1.65709 5.7177-3.4803s4.4746-3.06578 5.9662-3.72889l.4972-.99437 1.2429.49718c.6629-.16553 1.5744-.57985 2.7346-1.24296 .6628.16592 1.6572.0002 2.9831-.49719l4.4747,2.23734c1.6572.16592 3.8945-.16553 6.712-.99437l.4971.49718v-.74578c1.1601-.82844 3.1488-1.32563 5.9663-1.49155 1.6572,1.32602 2.6515,1.90607 2.9831,1.74015l1.7401.74577c-1.9888.16593-3.1489.08307-3.4803-.24859l-1.7401-1.24296-.2486-.49719c-.1658.16593-.2487.41452-.2486.74578 .1656.0002.1656.16593 0,.49719 .1656.82884-.0001,1.90607-.4972,3.2317l.2486.49719c-.4973.16592-.9116.00019-1.2429-.49719l.4971-.49718-1.2429-.24859c-.0001.16592-.5802.16592-1.7402,0-.663.00019-1.6574-.08267-2.9831-.2486-1.1602-.33126-2.1545-.49699-2.9831-.49718s-2.0717-.2484-3.7289-.74578c-.8287-1.1599-1.9888-1.65709-3.4803-1.49156-.663.0002-1.5745.33166-2.7345.99437-.4973-.16553-1.0773.0002-1.7402.49719h-1.4915c.1656.33165.4971.49738.9943.49718v-.24859c.4972-.33126 1.4087-.41412 2.7346-.24859 .1656.16592.3313.41452.4971.74578-.4972.82884-.7458,1.07743-.7457.74578-.9945.33165-1.4917.66311-1.4916.99437-.0001.16592-.0829.24878-.2486.24859l-.2486-.49719c-.1658.16593-.3315.66311-.4972,1.49156l-.2486-.24859c0,.49738-.2486.99456-.7457,1.49156l-.4972-.49719-.7458.49719c-.0001.00019-.0001.24878 0,.74578-.0001.33164-.1658.41451-.4972.24859-.3315.33165-.663.58024-.9944.74578l.2486.49718c0,.16592-.2486.33165-.7457.49719-.3316.00019-.4144.16592-.2486.49718 .9943.49738 2.1544,1.40889 3.4803,2.73453 1.3257-1.49137 2.4858-2.23715 3.4803-2.23734l.2486-.49719 .4971.49719-2.7345,1.49156c-.4972.33164-1.1601.91169-1.9887,1.74015 2.1544.33164 4.3917.6631 6.712.99437 2.4858.33164 4.3917,1.16028 5.7176,2.48593 .1657.33164.7457.49737 1.7402.49719-.0001-.16555-.0001-.33128 0-.49719-.3316-.497-.4973-.66273-.4972-.49719 .1656-.16554.3314-.24841.4972-.24859 .3314.33164.7457.49737 1.2429.49719l.2486-.2486-.4972-.24859c.1657.00018.2486-.33127.2486-.99437s.1657-.91132.4972-.74578c.3314.00019.4971-.33127.4972-.99437-.1658.00018-.2487-.16554-.2486-.49719l1.243.99437c.4971-.33127.6628-.497.4972-.49718 .1656.00018.2485.16591.2486.49718l-.4972.49719 2.2373.24859c-.0001.16592-.0001.33164 0,.49719 .3314-.497.8286-.66273 1.4916-.49719-.0001.49737.2485.6631.7458.49719 .3313-.33127.497-.57987.4971-.74578l.2486.24859-.7457.99438h.4971l.9944-.49719c.6628-1.15992 1.3257-2.40288 1.9888-3.72889 .8285-1.32564 1.8229-1.98856 2.9831-1.98875l4.9718-1.24296c-.1658.49737-.663.82883-1.4915.99437-.8288.00019-1.2431.16592-1.243.49718l-.4972.2486c.4971.33164 1.16.58024 1.9888.74578l.2486,1.24296c.6628.00019 1.4914-.33127 2.4859-.99437 .9943-.82845 1.74-1.24278 2.2373-1.24297l1.9888-1.49155-.7458-.74578c-.3316.49738-.7459.49738-1.243,0h-.2486c.3314-.16554.4971-.497.4972-.99437l-.4972-.99438c-.4973.0002-.9944-.16553-1.4915-.49718l.7457-.24859c.1657-.16554-.2486-.91132-1.2429-2.23734-1.4917-.49699-3.0661-.82845-4.7233-.99437 2.8173-.16553 4.806.33165 5.9662,1.49156 .4971-.16554.9943.08306 1.4916.74577l.9944.74578c.6628.16593 1.2428.41452 1.7401.74578 .6628.16592 1.16.0002 1.4916-.49718 1.4914.16592 2.983-.16554 4.4747-.99438 1.3257-.33126 3.4801-.57985 6.4634-.74577-.8288,1.32602-2.4032,2.40325-4.7233,3.2317-2.3203.66311-3.8947,1.57462-4.7233,2.73453h-3.7289c-.663.82883-1.6573,1.65747-2.9831,2.48593-.4973.00018-1.1602.4145-1.9887,1.24296-.663.82883-1.3259,1.16029-1.9888.99437-.663.49737-2.8174.99456-6.4634,1.49156-.663.49737-1.0773,1.40888-1.2429,2.73452-.0001,1.32601-.4144,2.15465-1.243,2.48593l-1.7401,1.49156c-.1659.82882-.0001,2.07178.4971,3.72889 .4971.00018 1.2429.4145 2.2374,1.24297 1.16.82881 1.9886,1.24313 2.4859,1.24296 .6628.00017 1.2429.33163 1.7402.99437 .6628.66309 1.16.99454 1.4915.99438 .3314-.16556.58-.33129.7458-.49719 .9943.82881 2.6515,1.90605 4.9718,3.23171 .8286.82881 1.5744,1.32599 2.2374,1.49156l6.2148,5.71763v3.7289c-.4973.33161-1.2431.74593-2.2373,1.24296 1.16.33161 2.4029,1.32598 3.7289,2.98312 1.4914.00015 3.3973,1.98889 5.7176,5.96623 .6628,1.4917 2.1544,3.31471 4.4747,5.46904 .1656.3316.5799.91165 1.2429,1.74015 .6628.66306.9114,1.32597.7458,1.98875 .6628,1.16023 1.9058,2.81752 3.7289,4.97186 .1656.49731.7457,1.49168 1.7402,2.98311 .9942,1.32596 1.4914,2.40319 1.4915,3.23171-.0001.49731-.083,1.07736-.2486,1.74015 .8285.16585 1.4915.49731 1.9888.99437l-.7458.74578 .4972.99437c-.4973.33158-.6631.66304-.4972.99437 .3313.33158.5799.7459.7458,1.24297 .1656.33157.5799.99449 1.2429,1.98874m-114.1041-25.35648c0,.16587-.0829.41446-.2486.74578l.2486-.74578m76.5666-46.48688v-.24859h-.4972v.24859h.4972m-7.2092,5.96623c-.0001-.33127-.0001-.74559 0-1.24296h-.2486c-.0001.33164-.4144.49737-1.2429.49718v.2486c.3313.00018.6628.08304.9943.24859-.0001.6631-.0829.91169-.2486.74578-.0001-.16555.2485-.33128.7458-.49719m0,.99437h-.2486c-.1658-.66273-.4973-.41414-.9944.74578h.2486c-.1658.16591-.3315.4145-.4971.74578l-.4972-.24859c-.3316.16591-.4144.58023-.2486,1.24296 1.3257-.99419 2.0715-1.82283 2.2373-2.48593m-2.7345.74578v-.24859h-.4972v.24859h.4972m-1.243-.49718v-.2486h-.2486v.2486h.2486m-2.7345-2.23734v-.24859h-.2486v.24859h.2486m-13.9212-13.67261v-.24859h-.2486v.24859h.2486m14.9156,15.90995v-.2486h-.2486v.2486h.2486m.7457,1.49156v-.2486h-.2485v.2486h.2485m21.379,22.12477v-.2486h-.2486v.2486h.2486m-39.7748-39.52628v-.24859h-.2486v.24859h.2486m38.7805,40.52065v-.24859h-.2486v.24859h.2486m-39.7749-40.27206c-.3315-.16553-.7458-.08267-1.243.2486 .3314.00019.7457-.08267 1.243-.2486m.4972,1.24297v-.2486h-.2486v.2486h.2486m39.2777,40.27205v-.24859h-.2486v.24859h.2486m-43.2552-40.02346c-.1658.00019-.3315.16592-.4972.49719 .3314.00019.4971-.16554.4972-.49719m25.6051,21.37899-.9944-1.49155c-.663-1.15993-1.8231-2.32003-3.4803-3.48031l-3.9775-2.98311c-4.9719-2.48575-9.4466-3.48012-13.424-2.98312l-.4972,3.23171c.9943.16591 2.403.49737 4.2261.99437-.0001.16591-1.6574.24878-4.9719.2486v.24859h4.2261l.2486.24859c-.663.16591-1.5745.33164-2.7345.49719 1.3257.16591 2.5687.4145 3.7289.74578 1.3257.1659 2.4858.49736 3.4803.99437-.0001.1659-.083.33163-.2486.49718l-7.4578-1.49155-.7458-.74578c-.663.49736-.9944,1.40887-.9944,2.73452 .6629.16591 1.5744.33163 2.7346.49719 .4971.33163 1.0771.49736 1.7401.49718 .4971.00018 1.2429-.16555 2.2374-.49718 .9942-.49701 1.74-.74561 2.2373-.74578 .6628.00017 1.3257.1659 1.9887.49718 1.4915.16591 2.403.08304 2.7346-.24859l.4971.49719c.4971-.16556.9943-.08269 1.4916.24859s.7457.58022.7458.74578c.6628.1659 1.4086.00017 2.2373-.49719l.7458.99437c.3314.16591.6628.08304.9944-.24859 .6628.1659 1.5743.66309 2.7345,1.49156v-.24859c.1656-.33129.3314-.41415.4972-.2486m-24.8593-18.14728v-.24859h-.4972v.24859h.4972m-2.2374-1.74015v-.2486c-.4972.0002-.9944.16593-1.4915.49719l.2486.24859v-.24859c.3314.00019.7457-.08267 1.2429-.24859m5.9663,6.9606v-.24859h-.2486v.24859h.2486m20.8818,20.88181m6.712,9.19794c.1656-.16558.0828-.5799-.2486-1.24297-.0001.16589.0828.58021.2486,1.24297m-7.955-6.96061c-.3315-.82848-.9944-2.07144-1.9887-3.72889l1.9887,3.72889m45.7411,45.9897-1.2429-7.2092c-.3316-2.15434-3.2319-6.21469-8.7008-12.18105-1.326-3.14871-3.8947-7.62337-7.7064-13.42402h-.9944l2.2374,3.72889c-.0001.16588.2485.5802.7458,1.24297 .497.49733.6628.99451.4971,1.49156 .9943.82878 1.2429,2.07175.7458,3.72889-.3316-.66277-.8287-.74564-1.4915-.24859l1.4915,2.23733c.1656.00014.3314.49733.4972,1.49156 .3313.82878.9114,1.07737 1.7402.74578 .497.16586.9113.58019 1.2429,1.24296h.4972c.6628.66305.9943,1.16024.9944,1.49156-.0001.16586-.0001.24873 0,.2486-.3316.49731-.3316.82877 0,.99437v-.2486c.1656-.33132.3313-.49705.4972-.49718 .1656.33159.2484.74591.2486,1.24296h.2486l.7457.74578h-.9943l1.4915.24859c-.0001.33159.2485.74591.7458,1.24297l-.9944.74578c.3314.00013.6628.16585.9944.49718 .1656.82877.2485,1.32596.2486,1.49156s.1656.66304.4972,1.49156c.3313.66304.9942,1.65741 1.9887,2.98311v.2486c-.663-.82852-1.8231-2.07149-3.4803-3.7289-.0001-.33133-.1658-.74565-.4972-1.24296s-.5801-1.07711-.7457-1.74015-.5802-1.40857-1.243-2.23734c-.1659.00013-.4973-.1656-.9944-.49718-.4973-.49706-.9945-.66279-1.4915-.49719l-.4972-.99437-2.2374-4.97186c-.3315-.49705-2.1546-4.5574-5.469-12.18105-.663-.66277-1.4088-1.74-2.2373-3.23171h-.9944c1.3257,1.98889 2.4858,5.63492 3.4803,10.93809 1.16,5.13772 2.5687,8.86661 4.2261,11.18668h.2486c.3313.16586.497.41445.4971.74578 3.9774,5.80062 5.9662,11.43539 5.9663,16.90432-.4973.99448-.2487,1.74026.7458,2.23733l1.9887,1.74015 .7458,2.23734c.497-.33135.9942-.82853 1.4915-1.49156 .1656.00011.8285.41443 1.9888,1.24297l-.4972-.99437c.1656-.82854.4142-.99427.7458-.49719 .6628.66302 1.1599.91162 1.4915.74578-.0001-.49708-.3316-1.07713-.9943-1.74015 .1656.00011-.4974-.57994-1.9888-1.74015 .4971-1.49145 1.6572-3.48019 3.4803-5.96623m-66.8715-68.86025c-.1658.00019-.8287-.41413-1.9887-1.24296-1.3259-1.82283-2.3203-2.65147-2.9831-2.48593-.8287.82883-1.1602,1.49174-.9944,1.98874 .6628-.33127 1.3258-.08267 1.9887.74578 .8286.6631 1.4087.99456 1.7402.99437l-1.243-1.49155c.1657-.16555.4143-.33127.7458-.49719l2.2373,2.98311 .4972-.99437m26.3509,26.84804c-.3316-1.32567-1.1602-3.23155-2.486-5.71764 .3314.49735.6629,1.57459.9944,3.23171 .9943.82881 1.4915,2.15463 1.4916,3.97749-.1659,3.149-.2487,4.64055-.2486,4.47467 .1656-1.32567.2485-3.31441.2486-5.96623m2.2373,7.2092c.1656-2.65151-.083-5.13743-.7458-7.45779 .3314,1.65744.4971,4.14337.4972,7.45779h.2486m-8.2036-9.44654c-.3315-2.32003-1.243-4.30877-2.7345-5.96623l2.7345,5.96623m0,1.74015c-.1658-.33129-.4144-.74561-.7457-1.24296-.8288-1.4914-1.906-3.81159-3.2318-6.9606 0,1.32599.4972,2.73469 1.4916,4.22608 1.16,1.9889 1.9058,3.31473 2.2373,3.97748h.2486m-24.1135-26.10225h-.2486-.4972 .7458m28.8368,32.31708c.3314-1.32568-.0001-3.39728-.9944-6.21483 .6629,4.3091.9943,6.38071.9944,6.21483m-34.0572-36.04598v-.24859h-.2486v.24859h.2486m2.2373.74578c-.1658.49737-.5801,1.16029-1.243,1.98874h.2486c.8286-.82845 1.1601-1.49137.9944-1.98874m21.8762,23.11914m8.9493,15.41277c-.1658-6.62899-.9944-11.26939-2.4859-13.92121l1.243,14.1698c.3313-.33131.7457-.41417 1.2429-.24859m-34.3058-39.27769c-.1658-.16554-.3315-.08267-.4972.24859 .1657.00019.3314-.08267.4972-.24859m50.9616,51.70733c-.0002.16587-.083.58019-.2486,1.24297-.0001-.33132.0827-.74564.2486-1.24297m-27.0967-25.85366-.7458-1.74015c-.1658.66308.0828,1.24313.7458,1.74015m-4.7232-3.97749v-.24859h-.7458l.7458.24859m-10.6895-17.15291c-.663,1.16028-1.3259,3.72907-1.9888,7.70638-.663.66309-1.5745,1.326-2.7345,1.98874 .6629-.49701 1.4915-.66274 2.4859-.49718l.9944-1.49156c-.1658-.82847-.0001-1.65711.4972-2.48593 .4971-.99419.7457-2.73434.7458-5.22045m-.2486,6.46341v.74578 .49719-1.24297m18.893,21.379-1.2429-2.73453c-.1658.49735-.0001,1.0774.4972,1.74016l.7457.99437m-27.5938-29.33397-.4972,1.98874 .4972-.74578v-1.24296m8.4522,9.44653-.2486.49719h.2486c-.0001.00017-.0001-.16555 0-.49719m10.9381,10.93809c-.1658-.16556-.4144-.24843-.7458-.24859 .1656.16589.4142.24876.7458.24859m5.9662,6.9606-.2486-.99437-1.243-1.24296 1.4916,2.23733m6.712,3.7289c-.0001,1.16025-.0829,2.9004-.2486,5.22045 .1657-1.15995.2485-2.9001.2486-5.22045m-25.3565-24.6107c-.4972.33163-1.3259.49736-2.4859.49718-.663-.33128-1.0773-.33128-1.243,0-.3315.00018-.5801-.08268-.7457-.24859l2.7345-.49719 1.7401-.49718v-3.23171c-.4972.16591-1.1601.08305-1.9887-.24859l.2486-.74578h-1.4916c-.9944-.16555-1.5745.24878-1.7401,1.24296l-.4972,2.48593c.3314.33164.3314.58023 0,.74578-.1658.66309-.4973,1.65747-.9944,2.98312h.2486c.4971.99454 1.16,1.326 1.9887.99437 1.1601-.33128 1.9059-.49701 2.2374-.49719 .9943-.16555 1.4915-.49701 1.4915-.99437-.1657.00018-.4972-.16555-.9943-.49719l.4972-.49718 .4971.49718c-.1657-.66273 0-1.15992.4972-1.49155m23.8649,31.5713c.1657-2.48578-.1658-5.96608-.9943-10.4409 .6628,1.49171.8285,3.56332.4972,6.21482h-.2486l-.2486-3.23171c-.0001-1.82286-.7459-3.89446-2.2374-6.21482l-3.7289-5.46905 .9944,2.23734c2.9831,6.96076 4.4746,11.43543 4.4747,13.42402-.0001,1.82316-.3316,3.48045-.9944,4.97186 .8286-.16558 1.3258-.74563 1.4916-1.74015s.2485-1.90573.2486-2.73453h.2486l.2486,2.98312h.2485m-6.2148-8.20357c-.4972-1.32567-1.3259-3.31441-2.4859-5.96623 .4971.66308.6628,1.65745.4972,2.98312 .3314.66307.9943,1.65744 1.9887,2.98311m-21.8762-31.32271c-.1657.16592-.5801.24878-1.2429.2486s-.9944.33164-.9944.99437v-.2486c.1657.00019.4143.08306.7458.2486l-1.7402,7.70638c0,.66309-.4143,1.40887-1.2429,2.23733l-.4972-.24859v.49719c-.0001-.49701.4971-.08269 1.4915,1.24296l1.4916-9.69512 1.243-1.49156-.2486.24859c-.1658.00019-.2487-.08268-.2486-.24859-.3315-.497-.2487-.82846.2486-.99437 .6628-.16554.9943-.33127.9943-.49719m52.4532,41.26643c-.3316-2.15432-.5802-3.31442-.7458-3.4803-.3316-1.32568-1.0774-2.15432-2.2374-2.48593l-1.4915-1.49156c-3.4804-.3313-7.2093.99453-11.1867,3.97749-1.6574.33161-3.9776,1.16025-6.9606,2.48593-1.1602-.16558-2.1546.41447-2.9831,1.74015-.8287,1.16024-1.4917,1.90602-1.9888,2.23734-.3315.3316-1.4087,1.07737-3.2317,2.23733v.2486c1.3258.16586 3.2317.00014 5.7177-.49719l1.9887-1.24297c.8286-.49704 1.4086-1.49141 1.7402-2.98311s.9114-2.48578 1.7401-2.98312l3.2317-.99437 .2486.2486-.9944.99437c-1.6573.3316-2.9003.99452-3.7288,1.98874 .497,1.4917.1656,2.9004-.9944,4.22608l-3.4803,3.4803c-.0001,1.16024-.0001,1.82315 0,1.98875 .1656,1.32596-.0001,3.14897-.4972,5.46904 .3314.33159.4971,1.24309.4972,2.73452 1.9886-1.65715 3.0659-4.5574 3.2317-8.70075 .3314-.49705.6628-1.32569.9944-2.48593 .1656-.16559.4142-.24845.7457-.24859l2.486-2.48593c.1656-.49705.0827-1.07709-.2486-1.74015 .4971-.66277 1.3257-1.74001 2.4859-3.23171 .1656.3316-.0001.74592-.4972,1.24296s-.7459.91166-.7458,1.24297c.3314,1.32597-.0001,2.98326-.9943,4.97186-.8288,1.82315-1.2431,3.23184-1.243,4.22608 .3314.33159.8286.74591 1.4916,1.24296l2.2373-.49718c.6628-1.15997 1.4915-3.06585 2.4859-5.71764-.4973.00014-.663-.41418-.4972-1.24297 .1657-.49704.6629-1.07709 1.4916-1.74015 .1656-.16558.3314-.08272.4972.2486-.0001.99451-.4144,2.4032-1.243,4.22608-.663,1.82315-.9945,3.3147-.9944,4.47467 .1657.33159 1.16.66305 2.9832.99437 .1656.00013.3313-.57992.4971-1.74015-.0001-.66278.4143-1.40856 1.243-2.23734s1.0771-1.65714.7458-2.48593c.4971-.16558 1.2429-.16558 2.2373,0-.663.82879-1.1602,1.24311-1.4915,1.24297-.8288,2.81752-1.2431,4.80626-1.243,5.96623l1.4916.24859 1.4915-.99437c.3314-1.32569 1.0771-3.06584 2.2374-5.22045v-.24859c1.3257-.16559 2.1543-1.0771 2.4859-2.73453s.6628-3.1487.9944-4.47467m-27.5939-1.98874c.4971-4.14307.3314-6.71186-.4971-7.70638v1.24296l.4971,6.46342m-5.469-3.7289-.7458-6.46341c-.3315-.82849-.4972-2.6515-.4972-5.46905l-.4972,1.98875c.3314,2.15463.9115,5.4692 1.7402,9.94371m32.3171,27.09663v-.24859h-.7458v.24859h.7458m8.7007,9.19794-.2486-.74578h-.2486l.4972.74578m-48.9728-51.21014c-.663-.49702-1.3259-.74561-1.9887-.74578-.9945.33162-1.3259.91167-.9944,1.74015-.0001.66308.58.91167 1.7402.74578 .9943-.49702 1.4086-1.07707 1.2429-1.74015m45.9897,48.72421-1.7401-2.48593c-.0001-.33133-.1659-.82852-.4972-1.49155-.3316-.16561-.5802-.6628-.7458-1.49156-.0001-.16561-.4144-.33133-1.243-.49719-.1658-.1656-.2487-.33133-.2486-.49718-.3315-.16561-.663.00012-.9943.49718 1.16.33158 2.1543,1.32595 2.9831,2.98312 .9942,1.49168 1.8229,2.48605 2.4859,2.98311m10.1923,9.69513m-17.4015-17.6501v-.24859h-.7458l.7458.24859m-54.1932-57.67356h-.4972c-.9945-.16555-2.0717.33164-3.2317,1.49155l.9943.99438c.3314.49736.2486,1.32601-.2486,2.48593 1.1601.00017 1.9059-.66274 2.2374-1.98875 .3314-1.98856.58-2.98293.7458-2.98311m.4971,1.74015c-.4972,1.16028-.9944,2.81756-1.4915,4.97186 .1657-.16556.4143-.57988.7458-1.24297 .4971-.66273.7457-1.9057.7457-3.72889m69.6061,73.8321c-.1659-.82853-1.2431-2.48582-3.2317-4.97186 .8285.99449 1.9057,2.65177 3.2317,4.97186m-65.1314-66.37431h-.9944c.1657.1659.3314.24876.4972.24859s.3314-.08269.4972-.24859m43.5038,43.50376h-.7458c-.0001.49732.0828.74591.2486.74578l.4972-.74578m23.3677,24.11352v-.2486l-.4972-.49718 .4972.74578m3.7289,4.72326-.7458-1.74015-.7457-.99437 1.4915,2.73452m-48.4756-43.25517c.8286-3.97734.4971-8.03769-.9944-12.18105 .1657,2.65181.4971,6.71216.9944,12.18105m-23.8649-29.33397-.7458-.74578v.74578h.7458m21.6276,23.86492c.8285-2.15431.1656-4.88883-1.9888-8.20356 .3314,2.32036.9114,5.88352 1.7402,10.68949-.0001-.49703.0827-1.32567.2486-2.48593m43.5037,42.01221c-.1658-.6628-.4973-1.15999-.9944-1.49156-.0001.4973.3314.99449.9944,1.49156m-18.6445-18.64447v-.99437h-.7457l.7457.99437m13.6727,15.16417c-.1659-.99426-1.4089-2.90013-3.7289-5.71764-.1659-.82852-.7459-1.82289-1.7402-2.98311l.2486,1.24296c.9943,1.65741 2.7344,4.14333 5.2205,7.45779m-4.4747-4.72327c-.4973-1.32571-1.5745-3.14872-3.2317-5.46904 .4971,1.32595 1.5743,3.14896 3.2317,5.46904m10.4409,10.93809c-1.326-2.15436-3.5633-5.38606-6.712-9.69512 .9942,2.32031 1.9057,4.30906 2.7345,5.96623 .9943.33157 1.5743.82875 1.7402,1.49156-.1659.16583-.3316.2487-.4972.24859 .6628.49729 1.5743,1.16021 2.7345,1.98874m-67.8659-68.11446v-1.49156c-.3315.66309-.3315,1.16028 0,1.49156m69.1089,68.61165c-.0002-.16562-.1659-.41422-.4972-.74578l-.2486.49719c.1656.16583.4142.2487.7458.24859m-10.6895-9.19794c-.9945-1.65717-2.5689-3.97737-4.7233-6.9606 .6628,1.82313 2.2372,4.14333 4.7233,6.9606m14.1698,13.67261c-.3316-1.65718-.8288-2.81728-1.4916-3.4803v.74578c-1.1602.0001-1.4917-.08276-.9944-.24859 .6628.66302 1.4915,1.65739 2.486,2.98311m1.4915,2.48593c.1656-.49708.1656-1.07713 0-1.74015-.4973-.82854-.7459-1.32573-.7458-1.49156l.7458,3.23171m-15.1642-14.66698-.7457-.74578-3.2317-2.73452c-.6631-1.65717-2.1546-4.06023-4.4747-7.2092 .4971,1.16023 1.4086,2.73465 2.7345,4.72327 .3314,2.48604 2.2372,4.47479 5.7176,5.96623m17.4016,18.64447c-.0002-.82855-.3316-2.07151-.9944-3.72889-.4973.49728-.4973,1.16019 0,1.98874 .3313.49728.6628,1.07733.9944,1.74015m-79.5498-83.03004-.9944.49718-.9943-.49718-.4972,2.98311h.7458c.6628.00018 1.0771-.33128 1.2429-.99437l.4972-1.98874m28.091,33.80864-.2486-6.71201c-.1658,4.64055-.2487,7.04361-.2486,7.20919l.4972-.49718m33.5601,32.81427-5.7177-5.22046c-.4973-1.98862-1.7402-4.72314-3.7289-8.20356 .6628,2.48605 2.1544,5.96635 4.4747,10.4409 .9943.82876 2.6515,1.82313 4.9719,2.98312m-15.91-15.90995-1.9887-3.7289c-.0001-.33132-.2487-.91137-.7458-1.74015 .4971,2.15461 1.4086,3.97762 2.7345,5.46905m11.6839,11.43527c-.1659-.6628-.663-1.65717-1.4916-2.98311-.0001.66303.4971,1.6574 1.4916,2.98311m4.9718,3.97749v-.24859c-.8287-.82853-2.2374-1.8229-4.226-2.98312 .8285.99449 2.2372,2.07172 4.226,3.23171m-13.1754-9.94372v-2.48593l-5.2204-7.70638c.1656.16586 1.8229,3.14897 4.9718,8.94935l.2486,1.24296m3.7289,4.97186-.7458-2.23734c-.0001-1.98862-.7459-4.06022-2.2373-6.21482-1.3259-2.15434-2.6518-4.14309-3.9775-5.96623l-.7458-.24859c.8286.82877 2.2373,2.90038 4.2261,6.21482-.0001,1.32595.4142,2.81751 1.243,4.47467 1.3257,2.32032 2.0715,3.64615 2.2373,3.97749m1.7402.99437c-.6631-1.49144-1.4088-3.72877-2.2374-6.71201-.0001,1.82314.7457,4.06047 2.2374,6.71201m-8.2036-3.97748c.1656-1.98863-.3316-4.22596-1.4916-6.71201-.9944-1.98862-1.9059-3.97736-2.7345-5.96623h-.4972l4.7233,12.67824m-1.7402-2.73453c-.3315-.82852-.9116-1.98862-1.7401-3.4803l-1.7402-5.71764c-.0001-.49705-.4144-.82851-1.2429-.99437l1.9887,5.46905c.6628,1.16022 1.5743,2.73464 2.7345,4.72326m10.4409,10.6895c-3.4804-1.8229-5.6348-4.22596-6.4634-7.2092-.1658-2.15435-.9944-4.55741-2.4859-7.20919 .4971.82877.9114,2.81751 1.243,5.96623 .1656,2.48605.9942,4.2262 2.4859,5.22045 1.6572.82876 2.983,1.6574 3.9775,2.48593 .4971.33157.9114.58016 1.2429.74578m-29.8311-31.32271v-2.98312l-.7458,2.98312h.7458m28.5882,29.08537c-.4973-.49707-.8288-.91139-.9944-1.24296s-1.3259-2.40295-3.4803-6.21483c-.0001,1.32595.2485,2.90037.7458,4.72327 .3313.99449 1.5743,1.90599 3.7289,2.73452m-25.1079-28.83678c-1.3259-.16558-2.8175.24874-4.4747,1.24297l4.4747-1.24297m18.6445,27.59382c-.6631-.99426-1.326-2.65154-1.9888-4.97186-.663-.49707-1.243-1.32571-1.7401-2.48593-2.4861-4.30882-4.1433-8.03771-4.9719-11.18668-.3315-1.15997-.5801-1.57429-.7458-1.24297h-.2486c.3314,1.16024 1.4086,4.39194 3.2317,9.69513 1.823,2.15459 3.9774,5.55203 6.4635,10.19231m-1.7402-1.74015c-.4973-.6628-1.0773-1.65717-1.7401-2.98312-1.8232-1.65716-3.2318-3.8945-4.2261-6.71201s-1.8231-5.55177-2.4859-8.20356c-.4973,1.16023-.4973,2.40319 0,3.72889 .8285,2.1546 1.2428,3.39756 1.2429,3.72889 .4971,1.49169 2.9002,4.97199 7.2092,10.44091m-14.1698-15.90995c.1657-.82851-.0829-1.90574-.7458-3.23171-.663-1.49142-.9944-2.65152-.9943-3.4803h-.2486c.1656,1.65742.8285,3.89476 1.9887,6.71201m-30.5769-33.06286h-.9944c-.4972-.33129-.663-.91134-.4972-1.74015-.3315.00017-.6629.74594-.9943,2.23733 1.3257.33163 2.1544.1659 2.4859-.49718m36.5431,37.53753-.2485-1.24296-.4972-.2486 .7457,1.49156m-39.2776-40.02346v-.24859h-.2486c-.4973.33162-.663.58021-.4972.74577l.7458-.49718m28.3396,29.08537v-.74578h-.2486v.74578h.2486m-2.486-4.97186c-.8287.99452-2.1545,2.23748-3.9775,3.7289l.9944-.24859 .2486.24859c-.1658.16587-.3315.24873-.4972.24859h.9944c.6628-.16559 1.0771-.57991 1.243-1.24296-.1659.16587-.4973.24873-.9944.24859 .6628-.33132 1.3257-1.32569 1.9887-2.98312m2.9831,8.45216c0-.66277-.0829-1.65714-.2486-2.98311-.1658.82878-.0829,1.82315.2486,2.98311m3.7289,5.96623c-.4972-1.82288-1.1601-4.64026-1.9887-8.45216l-.4972-.49718c.8286,1.98888 1.5743,4.97199 2.2373,8.94934h.2486m-33.0628-35.30019c-.0001-.49702-.2487-1.07707-.7458-1.74015-.3315-.49702-.5801-.16556-.7458.99437 .4972.00016.9943.24876 1.4916.74578m31.8199,35.0516c-.3316-1.65715-.9945-4.30881-1.9888-7.95497-.0001,2.32033.6629,4.97199 1.9888,7.95497m15.6613,13.92121c-.0001-.16562-.4973-.6628-1.4915-1.49156-1.326-1.49144-2.9832-3.8945-4.9719-7.2092l1.4916,3.4803c.9942,1.49168 2.6515,3.23183 4.9718,5.22046m-3.7289-2.48593c-1.3259-.99425-2.486-2.81727-3.4803-5.46905-.9944-2.81726-1.6573-4.64027-1.9887-5.46904l-.9944.99437c.1657.9945.58,2.32033 1.243,3.97749 .3313,2.81751 2.0715,4.80625 5.2204,5.96623m-16.6557-30.07975-.4972-2.98311c-.9944-2.48578-1.5745-6.13181-1.7401-10.93809-.8288.00016-1.9889-.16557-3.4803-.49719l.7457-.74578 2.7346.49719v-1.24297c-.4973-.16556-1.1602-.82847-1.9888-1.98874h1.9888c-.4973-.16556-1.3259-.24843-2.486-.24859l-.7457.99437-.4972-.49719c.3314.00017-.0001.33163-.9944.99437-1.4916,1.82318-3.729,2.2375-6.712,1.24297-.3315-.33129-.3315-.57989 0-.74578l.9944-.49719c.1656.1659.6628.24876 1.4915.2486l-.4972-.2486c-.1658-.66274.0828-1.40852.7458-2.23733h-2.2373l-.4972,1.98874c-.1658.00017-.4973.24876-.9944.74578 .1657.00017.4143.16589.7458.49719-.3315.00016-.663.16589-.9944.49718-.4972-.33129-.5801-.74561-.2486-1.24296s.4143-.91134.2486-1.24297c-.1658.1659-.5801.24876-1.2429.2486-.0001-.3313.1656-.66275.4971-.99438-.1657-.16556-.4143-.08269-.7457.2486-.1658.16589-.4973.08303-.9944-.2486l.2486-.49718h-1.4916c-.1658.00017-.3315-.0827-.4972-.2486 0-.33128-.3315-.74561-.9943-1.24296l-2.2374.99437v.99437c.3314-.16556.6629-.16556.9944,0-.1658.1659-.3315.41449-.4972.74578-.6629.00017-1.0773.49735-1.2429,1.49156-.0001.82881-.2487,1.32599-.7458,1.49156l.2486.49718c-.0001.1659-.3315.33162-.9944.49719-.4972.00016-.7458.16589-.7458.49719 .6629-.3313 1.2429-.41416 1.7402-.2486l-.4972.49719c-.0001.16589-.7458.58021-2.2373,1.24296-.3316,1.32599-1.0773,3.23187-2.2374,5.71764h-2.2373c-.1658.00016-.3315.41448-.4972,1.24297 .3314.00015.7457.16588 1.243.49718-.1658.16588-.1658.5802 0,1.24297 .4971.3316.9943.49733 1.4915.49718 .3314.00015.7457-.16558 1.243-.49718 .9943.3316 1.8229.16588 2.4859-.49719 .6629-.82849 1.2429-1.57427 1.7402-2.23734 .8285.16589 1.5743-.24843 2.2373-1.24296 .6629-1.15994 1.4086-1.65713 2.2373-1.49156l.7458,1.24297c-.8287.66307-1.6573.82879-2.4859.49718-.1658.33161-.4144.66307-.7458.99437l-.4972.99438c0,.33161-.0829.66306-.2486.99437 0-.49704-.0829-1.07709-.2486-1.74015l-1.9887,2.23733 .9944.74578c.8285.16588 1.5743-.08271 2.2373-.74578 .1657.00016.2485.08302.2486.2486 .3314.00015.58-.16558.7458-.49719 .4971.33161 2.1544.08302 4.9718-.74578 .3314-.82849 1.0772-2.07145 2.2374-3.72889 1.6572.33161 3.8945,1.07739 6.712,2.23733 1.3257,1.49171 1.9058,3.149 1.7401,4.97186-.0001.66307-.4144,1.57457-1.2429,2.73452 .3313-.99422.4971-2.6515.4971-4.97185-1.3259-2.15432-2.9003-3.31442-4.7232-3.48031-.663.00016-1.5745-.16557-2.7345-.49718-.3316,1.49171-1.1602,3.56332-2.486,6.21482-.1658.16588-.8287.66307-1.9887,1.49156-.9944.82879-1.906,1.07738-2.7345.74578-.0001-.33131-.083-.8285-.2486-1.49156-.3315-.16558-.5801-.08271-.7458.24859l-.4972.49719c-.4972-.33131-.7458-.41417-.7458-.24859-.4972-.33131-.7458-1.07709-.7458-2.23734h-.4971c-.0001.16588-.083.41447-.2486.74578-.1658,1.49171-.083,2.40321.2486,2.73452 .4971.82879 1.3257,1.32598 2.4859,1.49156 .1657.82879.4971,1.90602.9944,3.23171-1.9888,2.6518-2.0717,5.55204-.2486,8.70075 2.1544.82878 4.0603,1.16023 5.7176.99437 2.8173-2.32006 6.2976-6.13182 10.4409-11.43527l.4972.49718c-.0001.16588-.0001.24874 0,.2486 .9943-.8285 2.0715-2.65152 3.2317-5.46905m7.2092,22.37337v-3.48031c-.1658.49732-.2487,1.07737-.2486,1.74016s.0828,1.24309.2486,1.74015m-5.469-7.70639v-2.23733c-.4973-.49705-.7459-.82851-.7458-.99437l-.2486.99437c-.663.33159-1.0773.49732-1.243.49718 .9943-1.49142 1.2429-2.81724.7458-3.97748-.3315.66305-.7459,1.65742-1.243,2.98311-.3315,1.32597-.663,2.32034-.9943,2.98312l1.4915,2.48593c-.0001-.82851-.1658-1.3257-.4972-1.49156-.1658-1.3257 0-2.15434.4972-2.48593 .1657,1.16023.6629,2.90038 1.4916,5.22045v-3.72889c.3314-.33133.5799-.41419.7458-.2486m-32.8143-33.56004c-.0001-.16556-.4144-.33129-1.243-.49719 0-.16556-.1658-.41415-.4972-.74578l1.7402-.49718-.4972-.74578c-.4972.1659-1.1601.1659-1.9887,0v.74578c-.3315.00017-.8287.08303-1.4916.24859l.2486.99437h-.2486c-.1658.00017-.2486-.08269-.2486-.24859 0,.1659.0828.58022.2486,1.24296 0-.16556.0828-.33129.2486-.49718 .4971.33162.7457.99454.7458,1.98874 .1657.00017.4971-.0827.9943-.24859l.2486.74578c.3314.16589.4972.08303.4972-.2486 .1657-.49702.3314-.74561.4972-.74577-.1658.00016-.3315.08303-.4972.24859-.3315-.33129-.2486-.66275.2486-.99437l.9944-.74578m6.2148,3.4803c-.9944.00016-2.3202-.41416-3.9775-1.24297-.3315.49736-.5801.74595-.7458.74578-.1657-.33129-.2486-.57988-.2485-.74578 .1656-.16556.3314-.24842.4971-.24859v-1.24296c-.6629.33162-.9115,1.16026-.7457,2.48593h.7457c.3314.33162.0829,1.32599-.7457,2.98311-.3315,1.9889.0828,3.56332 1.2429,4.72327l.2486-.74578c.1657-.66276.4972-1.4914.9944-2.48593s.8286-1.73999.9944-2.23734c-.4973.00016-1.1602.08303-1.9888.2486l.4972-.99438c.8286.00017 1.3258-.0827 1.4916-.24859h-.9944c-.1658-.16556-.3315-.41416-.4972-.74578 .8286.16589 1.9058.08303 3.2317-.24859m22.1248,25.10789c-.4973-.49705-1.0773-.57991-1.7402-.2486-.8287.3316-1.4916.49733-1.9887.49719v.24859c.9943.00014 2.2372-.16559 3.7289-.49718m2.2373-.49719h-.9944c0,.16587-.6629,2.4032-1.9887,6.71201 .4971.33159 1.2429,1.16023 2.2373,2.48593-.3315-.82851-.8287-1.57429-1.4915-2.23734-.1658-1.15996.0828-2.48579.7458-3.97748l1.4915-2.98312m2.7345,10.93809c0-.99424-.0829-2.40293-.2486-4.22608-.1658.9945-.0829,2.4032.2486,4.22608m15.6614,14.1698c-.3316-1.32572-1.4917-2.56868-3.4803-3.7289 .8285.82876 1.9886,2.07173 3.4803,3.7289m-35.0516-36.54317c-.3315.00016-.8287.16588-1.4916.49719 .4972.49734.8286.74593.9944.74578l.4972-1.24297m22.6219,28.3396c-.3315-2.4858-1.243-6.04897-2.7345-10.6895-.0001.33159.0828,2.32034.2486,5.96623 .1657,2.32033.9943,3.89475 2.4859,4.72327m-12.4296-15.66136m-28.3396-28.58818c-.3315.16589-.4972.41448-.4972.74578 .3314-.16557.4972-.41416.4972-.74578m4.2261,2.98311-1.7402,3.4803 .7458-1.24296 .9944-2.23734m-.4972-1.24296c-.663.99453-1.5745,2.56895-2.7345,4.72326 1.16-.99421 2.0715-2.56863 2.7345-4.72326m24.8593,28.58819c-.3315-.1656-.8287-.08273-1.4916.24859 .3314.00013.8286-.08273 1.4916-.24859m2.2373,1.98874c-.3315-.16559-.7458.00013-1.2429.49718-.3316.3316-.5802.49732-.7458.49719h1.7401c.1657-.16559.2486-.49705.2486-.99437m-.7457-1.74015c-1.1602.16586-2.6518.66305-4.4747,1.49156 1.8229-.33133 3.3145-.82851 4.4747-1.49156m12.6782,15.66135v-.24859l-.7458-.24859 .7458.49718m-39.5263-39.52627-.7458,1.74015 .7458-1.74015m24.8593,26.35085c-.3315-.1656-.7458-.08273-1.243.24859l1.243-.24859m.7458-1.24297c-1.1602.00014-2.7346.49732-4.7233,1.49156 1.1601-.33132 2.7345-.82851 4.7233-1.49156m-25.1079-22.87055c-.4972.33162-.7458.91167-.7458,1.74015l.7458-1.74015m.4972.74578c-.9944,1.49171-1.4088,2.73468-1.243,3.7289l1.243-3.7289m3.9775,7.95498c-.3315-.66277-.8287-.5799-1.4916.24859 0,.49733.1657,1.24311.4972,2.23733-.1658-.66276 0-1.15995.4972-1.49155l.2486,1.49155c-.0001-.16558-.0001-.33131 0-.49718l.2486-1.98874m.7458,0c-.1658,1.32597-.3316,3.23185-.4972,5.71763 .8286-2.32005.9943-4.22593.4972-5.71763m-18.3959-13.67262c-.0001-.33129-.0829-.82848-.2486-1.49155-.1658.33162-.0829.74594.2486,1.24296h-.2486l.2486.24859m21.6276,20.13603-.4972,1.49156 .4972-1.49156m-2.2374-3.23171-.9943,4.22608c.6628-1.65714.9943-3.06583.9943-4.22608m.4972.99438c-.3315.99451-.8287,2.56893-1.4915,4.72326l.4971,2.98312c.6629-5.30318.9944-7.87197.9944-7.70638m.4972,3.72889-.7458,2.98311 .7458-1.24296v-1.74015m1.9887-1.49156c-.4972,2.15461-1.243,5.22059-2.2373,9.19794 .6629-.82851 1.4086-3.89448 2.2373-9.19794m-26.848-20.13603v-.24859c-.3315-.33129-.5801-.49702-.7458-.49719l.7458.74578m24.8593,25.10789-.2486,1.98874 .2486-1.98874m-17.1529,5.46905h-.2486l-.2486.74577 .4972-.74577m-1.7402-.49719-.2486-.49719c-.3315.16587-.9115,1.07737-1.7401,2.73453 .4971-.49706 1.1601-1.24284 1.9887-2.23734m-.4972,2.73452c-.4972-.1656-.9115.16586-1.2429.99437l1.2429-.99437m-5.9662-5.46904h-.4972l-2.9831,2.23733c1.4915-.66278 2.6516-1.40855 3.4803-2.23733m3.2317,7.20919-1.2429,1.24297 .7457-.49719 .4972-.74578m-4.7232-5.22045c-.8287.66305-2.0717,1.57455-3.7289,2.73452l.2486-.74578c-.663.16586-1.4088.66305-2.2374,1.49156 .9944-.1656 1.4087-.24846 1.243-.24859l-.2486.24859c.3314.00013 1.9058-1.15997 4.7233-3.4803m-1.243-2.48593c-.1658.00014-1.0773.41446-2.7345,1.24297l-1.4916.49718c.6629-.16559 1.4087-.74564 2.2373-1.74015-.3314.49732-1.7401,1.16024-4.226,1.98874 .3314-.16559.7457-.08273 1.2429.2486-.6629.16586-2.0716.58018-4.226,1.24296 3.3145.66305 6.3805-.49705 9.1979-3.4803m3.9775,9.69513-.9944.99437 .9944-.99437m2.4859-4.97186c-3.8118,3.3147-7.1263,5.80062-9.9437,7.45779 .1657.00012 2.6516-1.24284 7.4578-3.7289 0-.49706.4143-1.07711 1.2429-1.74015s1.243-1.3257 1.243-1.98874m-4.9718,2.98311-1.243,1.24297h.4972l.7458-1.24297m3.9774-6.71201h-.4971l-4.9719,5.22045-7.2092,3.48031-1.243,1.74015 6.4634-3.23171c1.9888-1.3257 4.4747-3.72876 7.4578-7.2092m.7458.99437c-1.4916.99451-3.5632,2.81752-6.2148,5.46905-3.6461,1.82314-6.3806,3.48043-8.2036,4.97186 1.3258-.66279 2.7345-1.07711 4.2261-1.24297 4.9718-3.6459 8.3693-6.71187 10.1923-9.19794m-3.4803.2486c-1.4916,1.98887-4.9719,4.14334-10.4409,6.46341l-.4972.74578c1.9888-.82851 4.0604-1.74002 6.2148-2.73452 2.1545-1.15997 3.7289-2.65153 4.7233-4.47467m1.9888,11.18668c-.3315.00012-.9116.16585-1.7402.49719 .3314.00012.9115-.16561 1.7402-.49719m5.9662-8.20357c-2.486,2.32033-6.3806,5.05485-11.6839,8.20357l-.2486-.24859c.1657-.16561.4972-.4142.9944-.74578l-3.7289,1.74015 1.243-.24859c-.1658.16585-.9944.58017-2.486,1.24296-.6629.33158-1.1601.99449-1.4915,1.98874s-.6629,1.65741-.9944,1.98875c1.4916-2.32008 4.6404-4.30883 9.4465-5.96623 1.823-.66279 4.8061-3.31445 8.9494-7.95498m-10.6895,6.21483c-.3315.16585-.6629.24871-.9944.24859 .1657.00012.4972-.08274.9944-.24859m12.6782-6.71201-.4972-.2486-5.7176,5.96623c-1.1601,1.16023-2.8174,2.32033-4.9718,3.48031-2.8175,1.32595-4.6405,2.32032-5.4691,2.98311-.8287.49731-2.7345,2.56891-5.7176,6.21482 1.1601-.33134 2.2373-1.32571 3.2317-2.98311 1.1601-1.65717 1.9058-2.65154 2.2373-2.98312 2.4859-1.3257 6.1319-3.31445 10.9381-5.96623 1.4915-1.3257 3.4803-3.48017 5.9662-6.46341m-14.9155,5.71763c-.3315.16586-.4144.41445-.2486.74578 .1657-.1656.2485-.41419.2486-.74578m2.4859,5.46905c-.4972.49731-1.243,1.16022-2.2374,1.98874 .4972-.49706 1.243-1.15998 2.2374-1.98874m-3.9775-2.73452c-.8287-.33134-1.823.08298-2.9831,1.24296 .6629-.49706 1.6572-.91138 2.9831-1.24296m-3.9775.24859c-.8286.00012-1.6573.49731-2.4859,1.49156 .3314-.33134 1.1601-.82852 2.4859-1.49156m5.7176,3.23171c-1.4915.82876-2.9831,2.8175-4.4746,5.96623l1.4915-1.49156c0-.6628.4143-1.40858 1.243-2.23734 .9943-.99425 1.5744-1.74003 1.7401-2.23733m112.6127,52.45311-1.7402-14.91558-3.7289-12.42964-6.712-11.68387c-1.1602-.66281-2.9004-1.74005-5.2205-3.23171-.0001.33157-.0829.66302-.2485.99437-.1659-.33135-.4974-.6628-.9944-.99437-1.1602-.49708-2.8175-1.15999-4.9719-1.98874l-4.4747-3.97749c.6629,1.16021 1.7401,2.73463 3.2318,4.72326 .1656.16584.497.41444.9943.74578 .6628.16584.8286.4973.4972.99437-.8287.00011-1.3259-.08275-1.4915-.24859-.0002-.16562-1.2431-.9114-3.7289-2.23733l-5.9663-3.97749c-.3315.82876-.1658,1.74026.4972,2.73452 .8286.99448 1.2429,1.57453 1.243,1.74015h-.2486l-3.4803-4.47467h-.2486c-.1658.16584-.083.4973.2486.99437-.663-.49707-1.6574-.82853-2.9831-.99437-.1659.4973-.083,1.07735.2486,1.74015s.4971,1.07735.4972,1.24296v.2486c-.6631-.82853-1.5746-1.98863-2.7346-3.4803-3.4804-2.48582-5.552-4.80601-6.2148-6.96061l.2486-.24859c.1656.66304.9114,1.65741 2.2373,2.98312-.4972-1.8229-1.5745-4.47455-3.2317-7.95498-.0001.82877.1657,2.07173.4972,3.7289 .3314.33158.4971.7459.4972,1.24296l-.9944-1.74015c-.1658,1.98887.58,3.89474 2.2374,5.71764 1.8229,1.6574 3.563,3.23182 5.2204,4.72326l-.2486.2486c-2.486-1.15999-5.9663-3.31446-10.4409-6.46342l-3.7289-4.22608c-.0001-1.3257-.7458-2.81726-2.2373-4.47467-1.8231-.1656-3.2318-1.3257-4.2261-3.4803h-7.7064c-3.1489.9945-5.3033,1.24309-6.4634.74577-.3315.00014-.7458-.24846-1.243-.74577-2.8174.33158-6.712,1.24309-11.6838,2.73452-2.6517.49731-5.6348,1.82314-8.9494,3.97748-2.6517,1.65742-5.3033,3.48043-7.9549,5.46905-2.6517,1.82313-6.4635,5.1377-11.4353,9.94372-.4972,1.32594-1.7402,2.90036-3.7289,4.72326-1.9888,2.98322-5.0547,9.69522-9.1979,20.13603-.4972,3.31466-1.0773,6.62923-1.7402,9.94372-.6629,3.97756-.8286,7.45786-.4972,10.4409-.1657,6.62921 2.4859,16.24146 7.955,28.83678 1.4915,2.48597 4.5575,6.71204 9.1979,12.67824 2.3202,2.98314 8.9493,7.95499 19.8875,14.91558l15.9099,4.97186c6.7948.99437 12.3467,1.40869 16.6557,1.24296 3.1488-.16572 7.7063-.82864 13.6726-1.98874s12.0981-3.81175 18.3959-7.95497c6.7948-3.48029 14.2526-11.18666 22.3734-23.11915 6.2975-14.08688 9.1149-24.61064 8.4522-31.5713m-116.8387-54.19326c-.663.33158-1.3259,1.24308-1.9888,2.73452l-.7458,2.23734c.4972-1.49144 1.4087-3.14873 2.7346-4.97186m67.3687-53.19889c-.663-.82847-1.8231-1.65711-3.4803-2.48593l-.4972-.49719c1.9886.49737 3.3145,1.49174 3.9775,2.98312m-5.2205-3.23171-.4972-.49719c.1657.00018.3314.08305.4972.2486v.24859m-1.7401-.99437c-.1659.49736-.663.49736-1.4916,0h1.4916m-4.9719-.99437c-.0001.1659-.0001.33163 0,.49718l-2.4859-.74578c.4971.00018 1.3257.08305 2.4859.2486m-14.4184-1.74015c-.0001.16591-.0001.33163 0,.49718-.1658.00018-.3315-.08268-.4972-.24859 .1657-.16555.3314-.24841.4972-.24859m8.9494,14.66698c-.0001.16589-.083.41449-.2486.74578l-.7458-.74578c-.0001-.16556.0828-.33129.2486-.49719 .4971.00017.7457.1659.7458.49719m5.2204,5.96623-.2486,1.24296c-1.3259.16589-2.0717-.16556-2.2373-.99437l.7458-1.24296c.3313.00016.7457.16589 1.2429.49718-.3315.33162-.5801.66308-.7458.99438 .1657.16588.3314.24875.4972.24859-.0001-.3313.2485-.57989.7458-.74578m-3.7289-2.73452-.9944.74578h-.2486l1.243-.74578m-2.2373.74578c-.8287.00016-1.9888.24875-3.4803.74578l.4972.24859c-.3316.33162-.7459.33162-1.243,0-.4973-.16557-.9944-.66275-1.4916-1.49156 .4972-.16556 1.1601.00016 1.9888.49719h3.7289m-6.9606-2.98312-.4972.49719c-.1658-.16557-.0001-.33129.4972-.49719m-.4972-.74578c-.1658.49735-.4973.99454-.9944,1.49156-.1658-.33129.1657-.82848.9944-1.49156m-3.7289-.74578h-.4972l.2486-.49718c.1657.16589.2485.33162.2486.49718m13.9212,15.16417c-.663-1.32567-1.5745-2.23718-2.7345-2.73452 .4971.00016 1.4086.91166 2.7345,2.73452m-14.4184-14.66698c-.0001.16589-.0829.41449-.2486.74578h-.2486c.1657-.49702.3314-.74561.4972-.74578m4.4747,4.97186c-.0001.16589-.0829.33162-.2486.49718-.0001-.16556.0828-.33129.2486-.49718m3.4803,4.97186c-.8287-.49703-1.906-.49703-3.2317,0-.1658.16588-.3315.16588-.4972,0 .1657.00015.3314-.3313.4972-.99437 .3314.00015.4142-.91135.2486-2.73453l-.2486-.49718 .4972-.49719c.4971.99453 1.4086,2.56895 2.7345,4.72327m-4.4747-4.72327c-.0001.16589-.0001.33162 0,.49719-.1658.00016-.3315-.08271-.4972-.2486 .1657-.16556.3314-.24843.4972-.24859m4.4747,12.92683c-.1658.33161-.4144.74593-.7458,1.24297l-.7458-.49719 .7458-.24859-.2486-.49719h.9944m-19.3903-18.64447c0,.1659-.1657.33163-.4972.49719-.1657.16589-.3315.16589-.4971,0-.0001-.16556.3314-.33129.9943-.49719m12.6783,14.1698c-.1658-.16557-.3315-.24844-.4972-.24859-.1658.16588-.3315.24874-.4972.24859h.4972c.3314-.16557.4971-.3313.4972-.49718-.0001.00015-.0001.16588 0,.49718m4.9718,5.96623-.2486-.24859h.2486v.24859m-.4972.24859v.49719c-.3315.16588-.6629.00015-.9943-.49719h.9943m-.7457.99438c-.3316.16587-.5801.00014-.7458-.49719l.7458.49719m-.9944.24859-.2486.24859c-.3315.00015-.663-.24844-.9944-.74578 .3314.00015.7457.16588 1.243.49719m-11.6839-7.70638-.2486.49718h-.2486c0-.49703.1657-.66276.4972-.49718m12.4297,18.39588-.4972.74577h-1.7402c-.4972-.16559-.6629-.91137-.4972-2.23733 0,.49732.3314.91164.9944,1.24296-.1658.3316.1657.49732.9944.49719 .4971-.33132.6628-.49705.4972-.49719 .1656.00014.2485.083.2486.2486"/>
</svg>
