<?xml version="1.0" encoding="UTF-8"?>
<!DOCTYPE svg PUBLIC "-//W3C//DTD SVG 1.1//EN" "http://www.w3.org/Graphics/SVG/1.1/DTD/svg11.dtd">
<svg version="1.2" width="350mm" height="150mm" viewBox="0 0 35000 15000" preserveAspectRatio="xMidYMid" fill-rule="evenodd" clip-path="url(#presentation_clip_path)" stroke-width="28.222" stroke-linejoin="round" xmlns="http://www.w3.org/2000/svg" xmlns:ooo="http://xml.openoffice.org/svg/export" xmlns:xlink="http://www.w3.org/1999/xlink" xml:space="preserve">
 <defs class="ClipPathGroup">
  <clipPath id="presentation_clip_path" clipPathUnits="userSpaceOnUse">
   <rect x="0" y="0" width="35000" height="15000"/>
  </clipPath>
 </defs>
 <defs class="TextShapeIndex">
  <g ooo:slide="id1" ooo:id-list="id3 id4 id5 id6 id7 id8 id9 id10 id11 id12 id13 id14 id15 id16 id17 id18 id19 id20 id21 id22 id23"/>
 </defs>
 <defs class="EmbeddedBulletChars">
  <g id="bullet-char-template(57356)" transform="scale(0.00048828125,-0.00048828125)">
   <path d="M 580,1141 L 1163,571 580,0 -4,571 580,1141 Z"/>
  </g>
  <g id="bullet-char-template(57354)" transform="scale(0.00048828125,-0.00048828125)">
   <path d="M 8,1128 L 1137,1128 1137,0 8,0 8,1128 Z"/>
  </g>
  <g id="bullet-char-template(10146)" transform="scale(0.00048828125,-0.00048828125)">
   <path d="M 174,0 L 602,739 174,1481 1456,739 174,0 Z M 1358,739 L 309,1346 659,739 1358,739 Z"/>
  </g>
  <g id="bullet-char-template(10132)" transform="scale(0.00048828125,-0.00048828125)">
   <path d="M 2015,739 L 1276,0 717,0 1260,543 174,543 174,936 1260,936 717,1481 1274,1481 2015,739 Z"/>
  </g>
  <g id="bullet-char-template(10007)" transform="scale(0.00048828125,-0.00048828125)">
   <path d="M 0,-2 C -7,14 -16,27 -25,37 L 356,567 C 262,823 215,952 215,954 215,979 228,992 255,992 264,992 276,990 289,987 310,991 331,999 354,1012 L 381,999 492,748 772,1049 836,1024 860,1049 C 881,1039 901,1025 922,1006 886,937 835,863 770,784 769,783 710,716 594,584 L 774,223 C 774,196 753,168 711,139 L 727,119 C 717,90 699,76 672,76 641,76 570,178 457,381 L 164,-76 C 142,-110 111,-127 72,-127 30,-127 9,-110 8,-76 1,-67 -2,-52 -2,-32 -2,-23 -1,-13 0,-2 Z"/>
  </g>
  <g id="bullet-char-template(10004)" transform="scale(0.00048828125,-0.00048828125)">
   <path d="M 285,-33 C 182,-33 111,30 74,156 52,228 41,333 41,471 41,549 55,616 82,672 116,743 169,778 240,778 293,778 328,747 346,684 L 369,508 C 377,444 397,411 428,410 L 1163,1116 C 1174,1127 1196,1133 1229,1133 1271,1133 1292,1118 1292,1087 L 1292,965 C 1292,929 1282,901 1262,881 L 442,47 C 390,-6 338,-33 285,-33 Z"/>
  </g>
  <g id="bullet-char-template(9679)" transform="scale(0.00048828125,-0.00048828125)">
   <path d="M 813,0 C 632,0 489,54 383,161 276,268 223,411 223,592 223,773 276,916 383,1023 489,1130 632,1184 813,1184 992,1184 1136,1130 1245,1023 1353,916 1407,772 1407,592 1407,412 1353,268 1245,161 1136,54 992,0 813,0 Z"/>
  </g>
  <g id="bullet-char-template(8226)" transform="scale(0.00048828125,-0.00048828125)">
   <path d="M 346,457 C 273,457 209,483 155,535 101,586 74,649 74,723 74,796 101,859 155,911 209,963 273,989 346,989 419,989 480,963 531,910 582,859 608,796 608,723 608,648 583,586 532,535 482,483 420,457 346,457 Z"/>
  </g>
  <g id="bullet-char-template(8211)" transform="scale(0.00048828125,-0.00048828125)">
   <path d="M -4,459 L 1135,459 1135,606 -4,606 -4,459 Z"/>
  </g>
 </defs>
 <defs class="TextEmbeddedBitmaps"/>
 <g>
  <g id="id2" class="Master_Slide">
   <g id="bg-id2" class="Background"/>
   <g id="bo-id2" class="BackgroundObjects"/>
  </g>
 </g>
 <g class="SlideGroup">
  <g>
   <g id="id1" class="Slide" clip-path="url(#presentation_clip_path)">
    <g class="Page">
     <g class="com.sun.star.drawing.TextShape">
      <g id="id3">
       <text class="TextShape"><tspan class="TextParagraph" font-family="DejaVu Sans, sans-serif" font-size="529px" font-weight="400"><tspan class="TextPosition" x="14350" y="2540"><tspan fill="rgb(0,0,0)" stroke="none">Georges III</tspan></tspan></tspan><tspan class="TextParagraph" font-family="DejaVu Sans, sans-serif" font-size="353px" font-weight="400"><tspan class="TextPosition" x="14032" y="2989"><tspan fill="rgb(0,0,0)" stroke="none">roi du Royaume-Uni</tspan></tspan></tspan><tspan class="TextParagraph" font-family="DejaVu Sans, sans-serif" font-size="353px" font-weight="400"><tspan class="TextPosition" x="14809" y="3400"><tspan fill="rgb(0,0,0)" stroke="none">1738-1820</tspan></tspan></tspan><tspan class="TextParagraph" font-family="DejaVu Sans, sans-serif" font-size="353px" font-weight="400"><tspan class="TextPosition" x="12307" y="3811"><tspan fill="rgb(0,0,0)" stroke="none">ép. Charlotte de Mecklembourg-Strelitz</tspan></tspan></tspan></text>
      </g>
     </g>
     <g class="com.sun.star.drawing.TextShape">
      <g id="id4">
       <text class="TextShape"><tspan class="TextParagraph" font-family="DejaVu Sans, sans-serif" font-size="529px" font-weight="400"><tspan class="TextPosition" x="1991" y="6116"><tspan fill="rgb(0,0,0)" stroke="none">Georges IV</tspan></tspan></tspan><tspan class="TextParagraph" font-family="DejaVu Sans, sans-serif" font-size="353px" font-weight="400"><tspan class="TextPosition" x="1698" y="6565"><tspan fill="rgb(0,0,0)" stroke="none">roi du Royaume-Uni</tspan></tspan></tspan><tspan class="TextParagraph" font-family="DejaVu Sans, sans-serif" font-size="353px" font-weight="400"><tspan class="TextPosition" x="2475" y="6976"><tspan fill="rgb(0,0,0)" stroke="none">1762-1830</tspan></tspan></tspan><tspan class="TextParagraph" font-family="DejaVu Sans, sans-serif" font-size="353px" font-weight="400"><tspan class="TextPosition" x="2382" y="7387"><tspan fill="rgb(0,0,0)" stroke="none">ép. Caroline</tspan></tspan></tspan><tspan class="TextParagraph" font-family="DejaVu Sans, sans-serif" font-size="353px" font-weight="400"><tspan class="TextPosition" x="2261" y="7798"><tspan fill="rgb(0,0,0)" stroke="none">de Brunswick</tspan></tspan></tspan></text>
      </g>
     </g>
     <g class="com.sun.star.drawing.TextShape">
      <g id="id5">
       <text class="TextShape"><tspan class="TextParagraph" font-family="DejaVu Sans, sans-serif" font-size="459px" font-weight="400"><tspan class="TextPosition" x="6988" y="6048"><tspan fill="rgb(0,0,0)" stroke="none">Frédéric</tspan></tspan></tspan><tspan class="TextParagraph" font-family="DejaVu Sans, sans-serif" font-size="353px" font-weight="400"><tspan class="TextPosition" x="6994" y="6480"><tspan fill="rgb(0,0,0)" stroke="none">duc d&apos;York</tspan></tspan></tspan><tspan class="TextParagraph" font-family="DejaVu Sans, sans-serif" font-size="353px" font-weight="400"><tspan class="TextPosition" x="6937" y="6891"><tspan fill="rgb(0,0,0)" stroke="none">1763-1827</tspan></tspan></tspan><tspan class="TextParagraph" font-family="DejaVu Sans, sans-serif" font-size="353px" font-weight="400"><tspan class="TextPosition" x="5747" y="7302"><tspan fill="rgb(0,0,0)" stroke="none">ép. Frédérique-Charlotte</tspan></tspan></tspan><tspan class="TextParagraph" font-family="DejaVu Sans, sans-serif" font-size="353px" font-weight="400"><tspan class="TextPosition" x="7045" y="7713"><tspan fill="rgb(0,0,0)" stroke="none">de Prusse</tspan></tspan></tspan></text>
      </g>
     </g>
     <g class="com.sun.star.drawing.TextShape">
      <g id="id6">
       <text class="TextShape"><tspan class="TextParagraph" font-family="DejaVu Sans, sans-serif" font-size="529px" font-weight="400"><tspan class="TextPosition" x="10419" y="6117"><tspan fill="rgb(0,0,0)" stroke="none">Guillaume IV</tspan></tspan></tspan><tspan class="TextParagraph" font-family="DejaVu Sans, sans-serif" font-size="353px" font-weight="400"><tspan class="TextPosition" x="10372" y="6566"><tspan fill="rgb(0,0,0)" stroke="none">roi du Royaume-Uni</tspan></tspan></tspan><tspan class="TextParagraph" font-family="DejaVu Sans, sans-serif" font-size="353px" font-weight="400"><tspan class="TextPosition" x="11149" y="6977"><tspan fill="rgb(0,0,0)" stroke="none">1765-1837</tspan></tspan></tspan><tspan class="TextParagraph" font-family="DejaVu Sans, sans-serif" font-size="353px" font-weight="400"><tspan class="TextPosition" x="10741" y="7388"><tspan fill="rgb(0,0,0)" stroke="none">ép. Adélaïde de</tspan></tspan></tspan><tspan class="TextParagraph" font-family="DejaVu Sans, sans-serif" font-size="353px" font-weight="400"><tspan class="TextPosition" x="10707" y="7799"><tspan fill="rgb(0,0,0)" stroke="none">Saxe-Meiningen</tspan></tspan></tspan></text>
      </g>
     </g>
     <g class="com.sun.star.drawing.TextShape">
      <g id="id7">
       <text class="TextShape"><tspan class="TextParagraph" font-family="DejaVu Sans, sans-serif" font-size="459px" font-weight="400"><tspan class="TextPosition" x="15695" y="6072"><tspan fill="rgb(0,0,0)" stroke="none">Édouard</tspan></tspan></tspan><tspan class="TextParagraph" font-family="DejaVu Sans, sans-serif" font-size="353px" font-weight="400"><tspan class="TextPosition" x="15596" y="6504"><tspan fill="rgb(0,0,0)" stroke="none">duc de Kent</tspan></tspan></tspan><tspan class="TextParagraph" font-family="DejaVu Sans, sans-serif" font-size="353px" font-weight="400"><tspan class="TextPosition" x="15683" y="6915"><tspan fill="rgb(0,0,0)" stroke="none">1767-1820</tspan></tspan></tspan><tspan class="TextParagraph" font-family="DejaVu Sans, sans-serif" font-size="353px" font-weight="400"><tspan class="TextPosition" x="15370" y="7326"><tspan fill="rgb(0,0,0)" stroke="none">ép. Victoria de</tspan></tspan></tspan><tspan class="TextParagraph" font-family="DejaVu Sans, sans-serif" font-size="353px" font-weight="400"><tspan class="TextPosition" x="14639" y="7737"><tspan fill="rgb(0,0,0)" stroke="none">Saxe-Cobourg-Saalfeld</tspan></tspan></tspan></text>
      </g>
     </g>
     <g class="com.sun.star.drawing.TextShape">
      <g id="id8">
       <text class="TextShape"><tspan class="TextParagraph" font-family="DejaVu Sans, sans-serif" font-size="529px" font-weight="400"><tspan class="TextPosition" x="19050" y="6133"><tspan fill="rgb(0,0,0)" stroke="none">Ernest-Auguste I</tspan></tspan><tspan class="TextPosition" x="23415" y="5911"><tspan font-size="307px" fill="rgb(0,0,0)" stroke="none">er</tspan></tspan></tspan><tspan class="TextParagraph" font-family="DejaVu Sans, sans-serif" font-size="353px" font-weight="400"><tspan class="TextPosition" x="20092" y="6582"><tspan fill="rgb(0,0,0)" stroke="none">roi du Hanovre</tspan></tspan></tspan><tspan class="TextParagraph" font-family="DejaVu Sans, sans-serif" font-size="353px" font-weight="400"><tspan class="TextPosition" x="20428" y="6993"><tspan fill="rgb(0,0,0)" stroke="none">1771-1851</tspan></tspan></tspan><tspan class="TextParagraph" font-family="DejaVu Sans, sans-serif" font-size="353px" font-weight="400"><tspan class="TextPosition" x="19846" y="7404"><tspan fill="rgb(0,0,0)" stroke="none">ép. Frédérique de</tspan></tspan></tspan><tspan class="TextParagraph" font-family="DejaVu Sans, sans-serif" font-size="353px" font-weight="400"><tspan class="TextPosition" x="19406" y="7815"><tspan fill="rgb(0,0,0)" stroke="none">Mecklembourg-Strelitz</tspan></tspan></tspan></text>
      </g>
     </g>
     <g class="com.sun.star.drawing.TextShape">
      <g id="id9">
       <text class="TextShape"><tspan class="TextParagraph" font-family="DejaVu Sans, sans-serif" font-size="459px" font-weight="400"><tspan class="TextPosition" x="25127" y="6072"><tspan fill="rgb(0,0,0)" stroke="none">Auguste-Frédéric</tspan></tspan></tspan><tspan class="TextParagraph" font-family="DejaVu Sans, sans-serif" font-size="353px" font-weight="400"><tspan class="TextPosition" x="25790" y="6504"><tspan fill="rgb(0,0,0)" stroke="none">duc de Sussex</tspan></tspan></tspan><tspan class="TextParagraph" font-family="DejaVu Sans, sans-serif" font-size="353px" font-weight="400"><tspan class="TextPosition" x="26097" y="6915"><tspan fill="rgb(0,0,0)" stroke="none">1773-1843</tspan></tspan></tspan><tspan class="TextParagraph" font-family="DejaVu Sans, sans-serif" font-size="353px" font-weight="400"><tspan class="TextPosition" x="24852" y="7326"><tspan fill="rgb(0,0,0)" stroke="none">ép. Lady Augusta Murray</tspan></tspan></tspan></text>
      </g>
     </g>
     <g class="com.sun.star.drawing.TextShape">
      <g id="id10">
       <text class="TextShape"><tspan class="TextParagraph" font-family="DejaVu Sans, sans-serif" font-size="459px" font-weight="400"><tspan class="TextPosition" x="30575" y="6072"><tspan fill="rgb(0,0,0)" stroke="none">Adolphe</tspan></tspan></tspan><tspan class="TextParagraph" font-family="DejaVu Sans, sans-serif" font-size="353px" font-weight="400"><tspan class="TextPosition" x="29887" y="6504"><tspan fill="rgb(0,0,0)" stroke="none">duc de Cambridge</tspan></tspan></tspan><tspan class="TextParagraph" font-family="DejaVu Sans, sans-serif" font-size="353px" font-weight="400"><tspan class="TextPosition" x="30546" y="6915"><tspan fill="rgb(0,0,0)" stroke="none">1774-1850</tspan></tspan></tspan><tspan class="TextParagraph" font-family="DejaVu Sans, sans-serif" font-size="353px" font-weight="400"><tspan class="TextPosition" x="30175" y="7326"><tspan fill="rgb(0,0,0)" stroke="none">ép. Augusta de</tspan></tspan></tspan><tspan class="TextParagraph" font-family="DejaVu Sans, sans-serif" font-size="353px" font-weight="400"><tspan class="TextPosition" x="30345" y="7737"><tspan fill="rgb(0,0,0)" stroke="none">Hesse-Cassel</tspan></tspan></tspan></text>
      </g>
     </g>
     <g class="com.sun.star.drawing.ConnectorShape">
      <g id="id11">
       <path fill="none" stroke="rgb(52,101,175)" d="M 3437,5500 L 3437,4800 15771,4800 15771,4022"/>
      </g>
     </g>
     <g class="com.sun.star.drawing.ConnectorShape">
      <g id="id12">
       <path fill="none" stroke="rgb(52,101,175)" d="M 31507,5524 L 31507,4800 15771,4800 15771,4022"/>
      </g>
     </g>
     <g class="com.sun.star.drawing.ConnectorShape">
      <g id="id13">
       <path fill="none" stroke="rgb(52,101,175)" d="M 7898,5500 L 7898,4800 15771,4800 15771,4022"/>
      </g>
     </g>
     <g class="com.sun.star.drawing.ConnectorShape">
      <g id="id14">
       <path fill="none" stroke="rgb(52,101,175)" d="M 12111,5501 L 12111,4800 15771,4800 15771,4022"/>
      </g>
     </g>
     <g class="com.sun.star.drawing.ConnectorShape">
      <g id="id15">
       <path fill="none" stroke="rgb(52,101,175)" d="M 27058,5524 L 27058,4800 15771,4800 15771,4022"/>
      </g>
     </g>
     <g class="com.sun.star.drawing.ConnectorShape">
      <g id="id16">
       <path fill="none" stroke="rgb(52,101,175)" d="M 16644,5524 L 16644,4800 15771,4800 15771,4022"/>
      </g>
     </g>
     <g class="com.sun.star.drawing.ConnectorShape">
      <g id="id17">
       <path fill="none" stroke="rgb(52,101,175)" d="M 21390,5502 L 21390,4800 15771,4800 15771,4022"/>
      </g>
     </g>
     <g class="com.sun.star.drawing.TextShape">
      <g id="id18">
       <text class="TextShape"><tspan class="TextParagraph" font-family="DejaVu Sans, sans-serif" font-size="459px" font-weight="400"><tspan class="TextPosition" x="2388" y="9924"><tspan fill="rgb(0,0,0)" stroke="none">Charlotte</tspan></tspan></tspan><tspan class="TextParagraph" font-family="DejaVu Sans, sans-serif" font-size="353px" font-weight="400"><tspan class="TextPosition" x="1733" y="10356"><tspan fill="rgb(0,0,0)" stroke="none">princesse de Galles</tspan></tspan></tspan><tspan class="TextParagraph" font-family="DejaVu Sans, sans-serif" font-size="353px" font-weight="400"><tspan class="TextPosition" x="2483" y="10767"><tspan fill="rgb(0,0,0)" stroke="none">1796-1817</tspan></tspan></tspan><tspan class="TextParagraph" font-family="DejaVu Sans, sans-serif" font-size="353px" font-weight="400"><tspan class="TextPosition" x="2146" y="11178"><tspan fill="rgb(0,0,0)" stroke="none">ép. Léopold de</tspan></tspan></tspan><tspan class="TextParagraph" font-family="DejaVu Sans, sans-serif" font-size="353px" font-weight="400"><tspan class="TextPosition" x="1439" y="11589"><tspan fill="rgb(0,0,0)" stroke="none">Saxe-Cobourg-Saalfeld</tspan></tspan></tspan></text>
      </g>
     </g>
     <g class="com.sun.star.drawing.ConnectorShape">
      <g id="id19">
       <path fill="none" stroke="rgb(52,101,175)" d="M 3444,9376 L 3444,8693 3437,8693 3437,8009"/>
      </g>
     </g>
     <g class="com.sun.star.drawing.TextShape">
      <g id="id20">
       <text class="TextShape"><tspan class="TextParagraph" font-family="DejaVu Sans, sans-serif" font-size="529px" font-weight="400"><tspan class="TextPosition" x="15623" y="9907"><tspan fill="rgb(0,0,0)" stroke="none">Victoria</tspan></tspan></tspan><tspan class="TextParagraph" font-family="DejaVu Sans, sans-serif" font-size="353px" font-weight="400"><tspan class="TextPosition" x="14671" y="10356"><tspan fill="rgb(0,0,0)" stroke="none">reine du Royaume-Uni</tspan></tspan></tspan><tspan class="TextParagraph" font-family="DejaVu Sans, sans-serif" font-size="353px" font-weight="400"><tspan class="TextPosition" x="15668" y="10767"><tspan fill="rgb(0,0,0)" stroke="none">1819-1901</tspan></tspan></tspan><tspan class="TextParagraph" font-family="DejaVu Sans, sans-serif" font-size="353px" font-weight="400"><tspan class="TextPosition" x="15492" y="11178"><tspan fill="rgb(0,0,0)" stroke="none">ép. Albert de</tspan></tspan></tspan><tspan class="TextParagraph" font-family="DejaVu Sans, sans-serif" font-size="353px" font-weight="400"><tspan class="TextPosition" x="14550" y="11589"><tspan fill="rgb(0,0,0)" stroke="none">Saxe-Cobourg-et-Gotha</tspan></tspan></tspan></text>
      </g>
     </g>
     <g class="com.sun.star.drawing.ConnectorShape">
      <g id="id21">
       <path fill="none" stroke="rgb(52,101,175)" d="M 16629,9291 L 16629,8620 16644,8620 16644,7948"/>
      </g>
     </g>
     <g class="com.sun.star.drawing.TextShape">
      <g id="id22">
       <text class="TextShape"><tspan class="TextParagraph" font-family="DejaVu Sans, sans-serif" font-size="529px" font-weight="400"><tspan class="TextPosition" x="20022" y="9907"><tspan fill="rgb(0,0,0)" stroke="none">Georges V</tspan></tspan></tspan><tspan class="TextParagraph" font-family="DejaVu Sans, sans-serif" font-size="353px" font-weight="400"><tspan class="TextPosition" x="20092" y="10356"><tspan fill="rgb(0,0,0)" stroke="none">roi du Hanovre</tspan></tspan></tspan><tspan class="TextParagraph" font-family="DejaVu Sans, sans-serif" font-size="353px" font-weight="400"><tspan class="TextPosition" x="20429" y="10767"><tspan fill="rgb(0,0,0)" stroke="none">1819-1878</tspan></tspan></tspan><tspan class="TextParagraph" font-family="DejaVu Sans, sans-serif" font-size="353px" font-weight="400"><tspan class="TextPosition" x="20295" y="11178"><tspan fill="rgb(0,0,0)" stroke="none">ép. Marie de</tspan></tspan></tspan><tspan class="TextParagraph" font-family="DejaVu Sans, sans-serif" font-size="353px" font-weight="400"><tspan class="TextPosition" x="19931" y="11589"><tspan fill="rgb(0,0,0)" stroke="none">Saxe-Altenbourg</tspan></tspan></tspan></text>
      </g>
     </g>
     <g class="com.sun.star.drawing.ConnectorShape">
      <g id="id23">
       <path fill="none" stroke="rgb(52,101,175)" d="M 21390,9291 L 21390,8026"/>
      </g>
     </g>
    </g>
   </g>
  </g>
 </g>
</svg>