<?xml version="1.0" encoding="UTF-8"?>
<svg viewBox="0 0 256 256" xmlns="http://www.w3.org/2000/svg" xmlns:xlink="http://www.w3.org/1999/xlink">
 <defs>
  <filter id="ac">
   <feGaussianBlur stdDeviation="1.78105"/>
  </filter>
  <filter id="ab">
   <feGaussianBlur stdDeviation="1.36043"/>
  </filter>
  <filter id="h" x="-.073" y="-.3573" width="1.146" height="1.7146">
   <feGaussianBlur stdDeviation="2.55921"/>
  </filter>
  <filter id="aa" x="-.03465" y="-.5198" width="1.0693" height="2.0396">
   <feGaussianBlur stdDeviation="2.14405"/>
  </filter>
  <linearGradient id="a">
   <stop stop-color="#fff" offset="0"/>
   <stop stop-color="#fff" stop-opacity="0" offset="1"/>
  </linearGradient>
  <linearGradient id="c">
   <stop stop-color="#ccc" offset="0"/>
   <stop stop-color="#666" offset="1"/>
  </linearGradient>
  <linearGradient id="d">
   <stop stop-color="#ccc" offset="0"/>
   <stop stop-color="#0e232e" offset="1"/>
  </linearGradient>
  <linearGradient id="e">
   <stop stop-color="#ccc" offset="0"/>
   <stop stop-color="#999" offset="1"/>
  </linearGradient>
  <linearGradient id="f">
   <stop stop-color="#364e59" offset="0"/>
   <stop stop-color="#364e59" stop-opacity="0" offset="1"/>
  </linearGradient>
  <linearGradient id="g">
   <stop stop-color="#ccc" offset="0"/>
   <stop stop-color="#fff" offset="1"/>
  </linearGradient>
  <linearGradient id="b" x1="158.12" x2="149.32" y1="118.1" y2="90.796" gradientUnits="userSpaceOnUse">
   <stop stop-color="#2d2d2d" offset="0"/>
   <stop stop-color="#2d2d2d" stop-opacity="0" offset="1"/>
  </linearGradient>
  <linearGradient id="n" x1="155.89" x2="154.21" y1="256.16" y2="358.32" gradientUnits="userSpaceOnUse">
   <stop stop-color="#fff" offset="0"/>
   <stop stop-color="#999" offset="1"/>
  </linearGradient>
  <linearGradient id="z" x1="142.95" x2="164.67" y1="87.762" y2="89.571" gradientTransform="matrix(.43783 0 0 .46429 58.206 823.64)" gradientUnits="userSpaceOnUse" xlink:href="#g"/>
  <linearGradient id="y" x1="134.46" x2="124.49" gradientUnits="userSpaceOnUse" xlink:href="#f"/>
  <linearGradient id="x" x2="0" y1="839.76" y2="850.61" gradientUnits="userSpaceOnUse" xlink:href="#e"/>
  <linearGradient id="w" x1="201.76" x2="200.86" y1="580.08" y2="539.36" gradientTransform="matrix(.23356 0 0 .25501 78.983 704.76)" gradientUnits="userSpaceOnUse" xlink:href="#d"/>
  <linearGradient id="v" x1="204.48" x2="202.67" y1="-114" y2="-95.905" gradientTransform="matrix(.23356 0 0 .25501 78.983 861.68)" gradientUnits="userSpaceOnUse" xlink:href="#c"/>
  <linearGradient id="u" x1="142.95" x2="164.67" y1="87.762" y2="89.571" gradientTransform="matrix(.19508 .11263 -.07884 .13656 154.83 851.97)" gradientUnits="userSpaceOnUse" xlink:href="#g"/>
  <linearGradient id="t" x1="176.43" x2="154.71" gradientTransform="matrix(.20461 .11813 -.08491 .14706 205.6 759.14)" gradientUnits="userSpaceOnUse" xlink:href="#f"/>
  <linearGradient id="s" x2="0" y1="529.41" y2="571.93" gradientTransform="matrix(.10825 .0625 -.0625 .10825 195.05 801.17)" gradientUnits="userSpaceOnUse" xlink:href="#e"/>
  <linearGradient id="r" x1="201.76" x2="200.86" y1="580.08" y2="539.36" gradientTransform="matrix(.10825 .0625 -.0625 .10825 195.05 801.17)" gradientUnits="userSpaceOnUse" xlink:href="#d"/>
  <linearGradient id="q" x1="204.48" x2="202.67" y1="-114" y2="-95.905" gradientTransform="matrix(.10825 .0625 -.0625 .10825 156.59 867.78)" gradientUnits="userSpaceOnUse" xlink:href="#c"/>
  <linearGradient id="p" x1="55.752" x2="43.024" y1="903.58" y2="988.43" gradientUnits="userSpaceOnUse" xlink:href="#a"/>
  <linearGradient id="o" x1="110.32" x2="115.34" y1="301.26" y2="199.73" gradientUnits="userSpaceOnUse" xlink:href="#a"/>
  <radialGradient id="j" cx="368.85" cy="820.05" r="23.293" gradientTransform="matrix(.1126 .04324 -.8148 2.1216 995.5 -936)" gradientUnits="userSpaceOnUse">
   <stop stop-color="#ccc" offset="0"/>
   <stop stop-color="#2d2d2d" offset="1"/>
  </radialGradient>
  <radialGradient id="i" cx="441.44" cy="838.87" r="10.607" gradientTransform="matrix(-.51135 .29816 -.48749 -.9623 1076.1 1514.6)" gradientUnits="userSpaceOnUse">
   <stop stop-color="#999" offset="0"/>
   <stop stop-color="#2d2d2d" offset="1"/>
  </radialGradient>
  <radialGradient id="m" cx="394.26" cy="793.68" r="206.88" gradientTransform="matrix(-1.0674 .02007 -.018 -.88068 829.37 1477.1)" gradientUnits="userSpaceOnUse">
   <stop stop-color="#fff" offset="0"/>
   <stop stop-color="#0e232e" stop-opacity="0" offset="1"/>
  </radialGradient>
  <radialGradient id="l" cx="281.38" cy="778.9" r="164.86" gradientTransform="matrix(.17013 .5543 -.46204 .14181 499.7 637.13)" gradientUnits="userSpaceOnUse">
   <stop stop-color="#666" offset="0"/>
   <stop stop-color="#fff" offset="1"/>
  </radialGradient>
  <radialGradient id="k" cx="156" cy="682.25" r="182.11" gradientTransform="matrix(-.53906 -.41982 .29697 -.38134 -18.586 1285.3)" gradientUnits="userSpaceOnUse">
   <stop stop-color="#fff" offset="0"/>
   <stop stop-color="#ccc" offset="1"/>
  </radialGradient>
 </defs>
 <g transform="translate(0 -796.36)">
  <g transform="matrix(.5 0 0 .5 131.6 521.68)" stroke="#000" stroke-linecap="round" stroke-linejoin="bevel">
   <path d="m-7.2265 568.65c-27.162-0.36438-53.863 15.817-63.95 39.899-9.6886 21.787-4.2353 48.507 13.085 65.462 19 19.593 50.934 25.964 76.839 15.984 24.049-8.6863 41.994-31.322 42.692-55.909 1.3267-23.804-13.667-47.087-35.912-57.832-10.05-5.02-21.401-7.6191-32.754-7.6035zm0 7.4566c26.404-0.44821 52.13 17.172 58.663 41.664 6.5248 21.893-3.6994 46.678-23.6 59.164-22.826 15.341-56.528 13.196-76.853-5.0882-18.263-15.352-24.147-42.19-13.43-63.053 9.6455-19.953 32.201-32.926 55.22-32.688z" fill="#ccc" stroke-width=".184"/>
   <path d="m-6.8922 571.41c-25.583-0.34322-50.733 14.898-60.233 37.58-9.1255 20.521-3.9891 45.687 12.324 61.657 17.896 18.454 47.974 24.455 72.373 15.055 22.651-8.1814 39.553-29.501 40.21-52.659 1.2495-22.42-12.873-44.35-33.825-54.471-9.4659-4.7283-20.157-7.1763-30.85-7.1616zm0 7.0232c24.869-0.42213 49.1 16.174 55.254 39.243 6.1455 20.621-3.4844 43.965-22.229 55.726-21.5 14.449-53.242 12.429-72.386-4.7925-17.202-14.459-22.744-39.737-12.649-59.388 9.0849-18.794 30.33-31.012 52.01-30.788z" fill="#666" filter="url(#ac)" stroke-width=".1733"/>
   <path d="m-7.2248 572.35c-24.399-0.32735-48.385 14.208-57.445 35.841-8.7032 19.571-3.8045 43.573 11.754 58.804 17.068 17.6 45.754 23.323 69.024 14.358 21.603-7.8028 37.723-28.136 38.349-50.222 1.1917-21.383-12.277-42.298-32.259-51.95-9.0278-4.5095-19.225-6.8442-29.423-6.8301zm0 6.6982c23.718-0.40257 46.828 15.426 52.697 37.426 5.8611 19.666-3.3231 41.93-21.2 53.147-20.505 13.78-50.778 11.854-69.036-4.5707-16.406-13.79-21.691-37.898-12.064-56.639 8.6644-17.924 28.926-29.577 49.603-29.363z" fill="#ccc" stroke-width=".16528"/>
  </g>
  <path transform="matrix(1.0109 0 0 1.0115 -42.595 87.774)" d="m168.34 769.92c-52.15 0-94.426 39.85-94.426 89.012s42.277 89.012 94.426 89.012 94.426-39.85 94.426-89.012-42.277-89.012-94.426-89.012zm0 10.535c45.967 0 83.233 35.143 83.233 78.477s-37.265 78.456-83.233 78.456-83.232-35.121-83.232-78.456 37.265-78.477 83.232-78.477z" fill="#666" filter="url(#ab)" opacity=".44878"/>
  <path d="m129.34 879.52c-45.524 0-82.429 35.671-82.429 79.678s36.905 79.678 82.429 79.678 82.429-35.671 82.429-79.678-36.905-79.678-82.429-79.678zm0 9.4305c40.127 0 72.658 31.457 72.658 70.247s-32.53 70.228-72.658 70.228-72.658-31.438-72.658-70.228 32.53-70.247 72.658-70.247z" fill="url(#l)"/>
  <path transform="matrix(.49124 -.00685 .00807 .53087 45.058 809.03)" d="m329.51 285.68c0 82.01-75.03 148.49-167.58 148.49s-167.58-66.482-167.58-148.49 75.03-148.49 167.58-148.49 167.58 66.482 167.58 148.49z" fill="url(#n)" stroke="#8e8e8e" stroke-linecap="round" stroke-linejoin="bevel" stroke-width="1.1784"/>
  <g transform="matrix(.55342 -.00773 .00805 .53124 -90.585 440.86)" fill="#fff" stroke="#808080" stroke-width="2.5232">
   <path d="m378.23 830.77v19.739" opacity=".45366"/>
   <path d="m378.23 1112.8v19.739" opacity=".45366"/>
   <path d="m453.67 850.98-9.8694 17.094" opacity=".45366"/>
   <path d="m312.67 1095.2-9.8694 17.094" opacity=".45366"/>
   <path d="m508.89 906.2-17.094 9.8693" opacity=".45366"/>
   <path d="m264.67 1047.2-17.094 9.8693" opacity=".45366"/>
   <path d="m529.1 981.63-19.739-1e-4" opacity=".45366"/>
   <path d="m247.1 981.63-19.739-1e-4" opacity=".45366"/>
   <path d="m508.89 1057.1-17.094-9.8694" opacity=".45366"/>
   <path d="m264.67 916.07-17.094-9.8694" opacity=".45366"/>
   <path d="m453.67 1112.3-9.8693-17.094" opacity=".45366"/>
   <path d="m312.67 868.07-9.8693-17.094" opacity=".45366"/>
  </g>
  <path d="m165.36 932.67h-1.7382" fill="none" stroke="#000" stroke-width=".18719"/>
  <g fill="#0e232e" font-family="Segoe UI" font-size="10.082" font-weight="bold" letter-spacing="0" word-spacing="0">
   <path d="m128.87079,895.85641v1.2997c-.35775-.20348-.74831-.30523-1.1717-.30523-.52185,0-.94277.19939-1.26277.59815s-.48657.93293-.49969,1.60247h.0295c.33805-.49887.832-.74831 1.48186-.74831 .59076,0 1.05928.20021 1.40554.60062s.51938.93047.51939,1.59016c-1e-005,.70893-.22975,1.29806-.68924,1.76739s-1.0437.704-1.75262.704c-.79426,0-1.41457-.28718-1.86093-.86154s-.66954-1.38011-.66954-2.41724c0-1.22092.28718-2.19652.86154-2.92678s1.35385-1.09538 2.33847-1.09539c.54482,1e-005 .96821.064 1.27016.192zm-1.94954,3.59878c-.28555,1e-005-.51283.10011-.68185.30031s-.25355.45621-.25354.76801c-1e-005,.34462.0862.63918.25846.88369s.40123.36677.68677.36677c.27897,0 .50215-.10912.66954-.32738s.25108-.50298.25108-.85416c0-.75815-.31016-1.13723-.93046-1.13724z"/>
   <path d="m132.58 902.97c-1.6804 0-2.5206-1.1799-2.5206-3.5397 0-1.2242 0.22728-2.1571 0.68185-2.7988s1.1134-0.96246 1.9766-0.96247c1.641 1e-5 2.4616 1.1996 2.4616 3.5988 0 1.1947-0.224 2.1104-0.672 2.7471s-1.0905 0.95508-1.9274 0.95508zm0.0689-6.1145c-0.67283 0-1.0092 0.84513-1.0092 2.5354 0 1.5918 0.32985 2.3877 0.98955 2.3877 0.64328 0 0.96492-0.82051 0.96492-2.4616s-0.31508-2.4615-0.94523-2.4615z"/>
  </g>
  <g fill="#0e232e" font-family="Segoe UI" font-size="10.082" font-weight="bold" letter-spacing="0" word-spacing="0">
   <path d="m95.66542,911.2598v-1.32924c.48246.29539.99611.44308 1.54093.44308 .41026,0 .73108-.0976.96247-.29292s.34708-.46031.34708-.79508c-3e-006-.69908-.49395-1.04862-1.48185-1.04862-.32164,0-.71057.0295-1.16677.0886v-3.94341h3.90894v1.27016h-2.5797v1.41293c.20677-.0197.40205-.0295.58585-.0295 .72533,1e-005 1.29313.19037 1.70339.57108s.61539.89273.61539,1.53601c0,.71221-.24452,1.29395-.73354,1.74524s-1.15201.67692-1.98893.67692c-.67939,0-1.25047-.10174-1.71324-.30523z"/>
   <path d="m101.47467,911.2598v-1.32924c.48247.29539.99611.44308 1.54093.44308 .41026,0 .73108-.0976.96247-.29292s.34707-.46031.34708-.79508c-1e-005-.69908-.49396-1.04862-1.48185-1.04862-.32165,0-.71057.0295-1.16678.0886v-3.94341h3.90894v1.27016h-2.5797v1.41293c.20676-.0197.40205-.0295.58585-.0295 .72533,1e-005 1.29313.19037 1.70339.57108s.61538.89273.61538,1.53601c0,.71221-.24451,1.29395-.73354,1.74524s-1.152.67692-1.98893.67692c-.67939,0-1.25047-.10174-1.71324-.30523z"/>
  </g>
  <g fill="#0e232e" font-family="Segoe UI" font-size="10.082" font-weight="bold" letter-spacing="0" word-spacing="0">
   <path d="m72.70694,961.92863h-.84677v1.50155h-1.41785v-1.50155h-3.07694v-.98954l2.9637-4.56864h1.53108v4.45048h.84677zm-2.24493-4.00248h-.02954c-.04595.11816-.13457.30196-.26585.55139l-1.51139,2.34339h1.78708v-2.22031c-3e-006-.19692.0066-.42174.01969-.67447z"/>
   <path d="m73.79002,963.24802v-1.32923c.48246.29538.99611.44307 1.54093.44307 .41026,0 .73108-.0976.96247-.29292s.34707-.46031.34708-.79508c-4e-006-.69908-.49395-1.04862-1.48185-1.04862-.32164,0-.71057.0295-1.16677.0886v-3.94341h3.90894v1.27016h-2.5797v1.41293c.20677-.0197.40205-.0295.58585-.0295 .72533,1e-005 1.29313.19037 1.70339.57108s.61538.89273.61539,1.53601c-5e-006,.71221-.24452,1.29395-.73354,1.74524s-1.15201.67692-1.98893.67692c-.67939,0-1.25047-.10174-1.71324-.30523z"/>
  </g>
  <g transform="scale(1.1959,.83619)" fill="#0e232e" font-family="Sans" font-size="13.086" letter-spacing="0" word-spacing="0">
   <path d="m131.34823,1087.9784 1.20763-.1022c.0894.5878.29711,1.0298.62298,1.3258s.71883.4441 1.17888.4441c.55376,0 1.02233-.2087 1.40571-.6262s.57505-.9712.57506-1.6613c-1e-005-.656-.18424-1.1735-.5527-1.5526s-.85088-.5687-1.44724-.5687c-.3706,0-.70498.084-1.00316.2524s-.53247.3865-.70286.6549l-1.07983-.1406 .90732-4.8113h4.658v1.099h-3.73791l-.50477,2.5175c.56228-.3919 1.15225-.5879 1.76991-.5879 .81786,0 1.50794.2833 2.07022.8499s.84342,1.2949.84343,2.1852c-1e-005,.8477-.24707,1.5803-.74119,2.198-.60063.7582-1.42062,1.1373-2.45999,1.1373-.85195,0-1.54734-.2385-2.0862-.7156s-.84662-1.1096-.92329-1.8977z"/>
  </g>
  <g fill="#0e232e" font-family="Segoe UI" font-size="10.082" font-weight="bold" letter-spacing="0" word-spacing="0">
   <path d="m180.48 934.26h-4.4652v-1.2308h1.4622v-4.3963l-1.5015 0.32493v-1.2603l3.0523-0.61538v5.9471h1.4523z"/>
   <path d="m183.86 934.38c-1.6804 0-2.5206-1.1799-2.5206-3.5397 0-1.2242 0.22728-2.1571 0.68185-2.7988s1.1134-0.96246 1.9766-0.96246c1.641 0 2.4615 1.1996 2.4616 3.5988-1e-5 1.1947-0.22401 2.1104-0.67201 2.7471s-1.0905 0.95508-1.9274 0.95508zm0.0689-6.1145c-0.67283 1e-5 -1.0092 0.84514-1.0092 2.5354 0 1.5918 0.32985 2.3877 0.98954 2.3877 0.64328 0 0.96493-0.82052 0.96493-2.4616s-0.31508-2.4615-0.94523-2.4616z"/>
  </g>
  <g fill="#0e232e" font-family="Segoe UI" font-size="10.082" font-weight="bold" letter-spacing="0" word-spacing="0">
   <path d="m184.81 963.92h-4.4652v-1.2308h1.4622v-4.3963l-1.5016 0.32492v-1.2603l3.0523-0.61539v5.9471h1.4523z"/>
   <path d="m186.12674,963.73343v-1.32923c.48247.29538.99611.44308 1.54093.44308 .41026,0 .73108-.0976.96247-.29293s.34707-.46031.34708-.79508c-1e-005-.69907-.49396-1.04861-1.48186-1.04862-.32164,1e-005-.71056.0295-1.16677.0886v-3.9434h3.90894v1.27016h-2.5797v1.41293c.20676-.0197.40205-.0295.58585-.0295 .72533,0 1.29312.19036 1.70339.57108s.61538.89272.61538,1.536c0,.71221-.24452,1.29396-.73354,1.74524s-1.15201.67693-1.98893.67693c-.67939,0-1.25047-.10175-1.71324-.30524z"/>
  </g>
  <g fill="#0e232e" font-family="Segoe UI" font-size="10.082" font-weight="bold" letter-spacing="0" word-spacing="0">
   <path d="m176.71844,992.79121v.0295h2.86524v1.28986h-4.6474v-1.21109l2.02339-1.93477c.40697-.39057.69333-.71795.85908-.98216s.24861-.54236.24862-.83447c-1e-005-.64984-.34955-.97476-1.04862-.97477-.60719,1e-005-1.18811.24124-1.74278.7237v-1.36862c.61374-.39713 1.30626-.59569 2.07755-.5957 .72205,1e-005 1.28574.18134 1.69108.544s.608.85252.608,1.46955c0,.8238-.49395,1.67549-1.48185,2.55508z"/>
   <path d="m183.07 994.23c-1.6804 0-2.5206-1.1799-2.5206-3.5397 0-1.2242 0.22728-2.1571 0.68185-2.7988s1.1134-0.96246 1.9766-0.96247c1.641 1e-5 2.4615 1.1996 2.4616 3.5988-1e-5 1.1947-0.22401 2.1104-0.672 2.7471s-1.0905 0.95508-1.9274 0.95508zm0.0689-6.1145c-0.67283 0-1.0092 0.84513-1.0092 2.5354 0 1.5918 0.32985 2.3877 0.98955 2.3877 0.64328 0 0.96492-0.82051 0.96492-2.4615s-0.31508-2.4616-0.94523-2.4616z"/>
  </g>
  <g transform="scale(.9647 1.0366)" fill="#0e232e" font-family="Segoe UI" font-size="10.082" font-weight="bold" letter-spacing="0" word-spacing="0">
   <path d="m161.09553,974.25013v.0295h2.86524v1.28985h-4.6474v-1.21108l2.02339-1.93478c.40697-.39056.69333-.71795.85908-.98216s.24861-.54235.24862-.83446c-1e-005-.64985-.34955-.97477-1.04862-.97478-.60719,1e-005-1.18811.24124-1.74278.7237v-1.36862c.61374-.39712 1.30626-.59569 2.07755-.5957 .72205,1e-005 1.28574.18134 1.69108.54401s.608.85252.608,1.46954c0,.8238-.49395,1.6755-1.48185,2.55509z"/>
   <path d="m165.39339,975.38736v-1.32923c.48246.29539.99611.44308 1.54093.44308 .41026,0 .73108-.0976.96247-.29293s.34707-.4603.34707-.79508c0-.69907-.49395-1.04861-1.48185-1.04862-.32164,1e-005-.71057.0295-1.16677.0886v-3.9434h3.90894v1.27016h-2.57971v1.41293c.20677-.0197.40205-.0295.58585-.0295 .72533,0 1.29313.19036 1.70339.57108s.61539.89272.61539,1.536c0,.71221-.24452,1.29396-.73354,1.74524s-1.15201.67693-1.98893.67693c-.67939,0-1.25047-.10175-1.71324-.30524z"/>
  </g>
  <g fill="#0e232e" font-family="Segoe UI" font-size="10.082" font-weight="bold" letter-spacing="0" word-spacing="0">
   <path d="m123.8096,1020.8233v-1.3538c.47262.3446 1.024.5169 1.65416.5169 .39713,0 .70646-.085.92801-.256s.3323-.4086.33231-.7139c-1e-005-.3151-.13703-.5579-.41108-.7286s-.65067-.256-1.12985-.256h-.63508v-1.1914h.58585c.91897,0 1.37846-.3052 1.37846-.9157 0-.5743-.35282-.8615-1.05846-.8615-.47262,0-.93211.1526-1.37847.4578v-1.2701c.49559-.2495 1.07323-.3742 1.73293-.3742 .72205,0 1.2841.1625 1.68616.4874s.60307.7467.60308,1.2652c-1e-005,.9223-.4677,1.4999-1.40308,1.733v.025c.49887.062.89271.2437 1.18154.544s.43323.6687.43323,1.1052c0,.6597-.24123,1.1816-.72369,1.5656s-1.14873.576-1.99878.576c-.72862,0-1.32103-.1182-1.77724-.3545z"/>
   <path d="m131.7604,1021.1778c-1.68041,0-2.52062-1.1799-2.52062-3.5397 0-1.2242.22728-2.1572.68185-2.7988s1.11344-.9625 1.97662-.9625c1.64103,0 2.46154,1.1996 2.46155,3.5988-1e-005,1.1947-.22401,2.1104-.672,2.7471s-1.09047.9551-1.9274.9551zm.0689-6.1145c-.67283,0-1.00924.8451-1.00924,2.5354 0,1.5918.32985,2.3877.98954,2.3877 .64329,0 .96493-.8205.96493-2.4616s-.31508-2.4615-.94523-2.4615z"/>
  </g>
  <g fill="#0e232e" font-family="Segoe UI" font-size="10.082" font-weight="bold" letter-spacing="0" word-spacing="0">
   <path d="m97.73792,1013.7324v-1.3538c.47262.3446 1.024.5169 1.65416.5169 .39713,0 .70646-.085.928-.256s.33231-.4086.33231-.7139c0-.315-.13703-.5579-.41108-.7286s-.65067-.256-1.12985-.256h-.63508v-1.1914h.58585c.91898,0 1.37846-.3052 1.37847-.9157-1e-005-.5743-.35283-.8615-1.05847-.8615-.47262,0-.93211.1526-1.37847.4578v-1.2701c.49559-.2494 1.07323-.3742 1.73293-.3742 .72205,0 1.28411.1625 1.68616.4874s.60308.7467.60308,1.2653c0,.9222-.46769,1.4999-1.40308,1.7329v.025c.49887.062.89272.2437 1.18154.544s.43323.6687.43324,1.1052c-1e-005,.6597-.24124,1.1816-.7237,1.5656s-1.14872.576-1.99878.576c-.72862,0-1.32103-.1182-1.77724-.3545z"/>
   <path d="m103.63086,1013.7817v-1.3293c.48247.2954.99611.4431 1.54093.4431 .41026,0 .73108-.098.96247-.2929 .23138-.1953.34707-.4603.34708-.7951-1e-005-.6991-.49396-1.0486-1.48186-1.0486-.32164,0-.71056.029-1.16677.089v-3.9434h3.90894v1.2701h-2.5797v1.413c.20676-.02.40205-.03.58584-.03 .72534,0 1.29313.1904 1.7034.5711s.61538.8927.61538,1.536c0,.7122-.24452,1.294-.73354,1.7453s-1.15201.6769-1.98893.6769c-.67939,0-1.25047-.1018-1.71324-.3052z"/>
  </g>
  <g fill="#0e232e" font-family="Segoe UI" font-size="10.082" font-weight="bold" letter-spacing="0" word-spacing="0">
   <path d="m81.51229,991.94023h-.84677v1.50154h-1.41785v-1.50154h-3.07694v-.98954l2.9637-4.56864h1.53108v4.45048h.84677zm-2.24493-4.00248h-.02954c-.04595.11816-.13457.30196-.26585.55139l-1.51139,2.34339h1.78709v-2.22032c-4e-006-.19691.0066-.42174.01969-.67446z"/>
   <path d="m84.653 993.56c-1.6804 0-2.5206-1.1799-2.5206-3.5397 0-1.2242 0.22728-2.1571 0.68185-2.7988s1.1134-0.96246 1.9766-0.96246c1.641 0 2.4615 1.1996 2.4616 3.5988-6e-6 1.1947-0.22401 2.1104-0.672 2.7471s-1.0905 0.95508-1.9274 0.95508zm0.06892-6.1145c-0.67283 1e-5 -1.0092 0.84514-1.0092 2.5354-2e-6 1.5918 0.32985 2.3877 0.98954 2.3877 0.64328 0 0.96492-0.82051 0.96493-2.4616s-0.31508-2.4615-0.94524-2.4616z"/>
  </g>
  <g transform="matrix(.53049 .28537 -.30628 .49428 197.16 440.15)">
   <path d="m345.79 870.4c0.4836 3.3467 2.285 3.3205 4.7009 1.7214l41.884-104.77-0.17682-0.0509z" fill="url(#j)"/>
  </g>
  <path transform="matrix(.3093 .28819 -.2883 .26862 234.25 607.21)" d="m452.55 837.7c0 6.4158-4.7487 11.617-10.607 11.617s-10.607-5.201-10.607-11.617 4.7487-11.617 10.607-11.617 10.607 5.201 10.607 11.617z" fill="url(#i)"/>
  <text x="141.29335" y="833.11292" fill="#0e232e" font-family="Sans" font-size="11" letter-spacing="0" word-spacing="0">
   <tspan x="141.29335" y="833.11292"/>
  </text>
  <use transform="matrix(.83256 0 0 -.83256 11.427 504.34)" x="-50.393" y="-23.148" width="100.786" height="46.297"/>
  <g fill="#0e232e" font-family="Segoe UI" font-size="10.082" font-weight="bold" letter-spacing="0" word-spacing="0">
   <path d="m71.98077,935.24802v-1.32923c.48246.29538.99611.44307 1.54093.44307 .41026,0 .73108-.0976.96247-.29292s.34707-.46031.34708-.79508c-4e-006-.69908-.49395-1.04862-1.48185-1.04862-.32164,0-.71057.0295-1.16677.0886v-3.94341h3.90894v1.27016h-2.5797v1.41293c.20677-.0197.40205-.0295.58585-.0295 .72533,1e-005 1.29313.19037 1.70339.57108s.61538.89273.61539,1.53601c-5e-006,.71221-.24452,1.29395-.73354,1.74524s-1.15201.67692-1.98893.67692c-.67939,0-1.25047-.10174-1.71324-.30523z"/>
   <path d="m79.848 935.55c-1.6804 0-2.5206-1.1799-2.5206-3.5397 0-1.2242 0.22728-2.1571 0.68185-2.7988s1.1134-0.96246 1.9766-0.96247c1.641 1e-5 2.4615 1.1996 2.4616 3.5988-6e-6 1.1947-0.22401 2.1104-0.672 2.7471s-1.0905 0.95508-1.9274 0.95508zm0.06892-6.1145c-0.67283 0-1.0092 0.84513-1.0092 2.5354-2e-6 1.5918 0.32985 2.3877 0.98954 2.3877 0.64328 0 0.96492-0.82051 0.96493-2.4615s-0.31508-2.4616-0.94523-2.4616z"/>
  </g>
  <path transform="matrix(.5 0 0 .5 49.084 820.76)" d="m163.75 278.19c0 1.5533-1.3991 2.8125-3.125 2.8125s-3.125-1.2592-3.125-2.8125 1.3991-2.8125 3.125-2.8125 3.125 1.2592 3.125 2.8125z" fill="#2d2d2d" stroke="#000" stroke-linecap="round" stroke-linejoin="bevel" stroke-width=".3"/>
  <path d="m128.92199,887.50842v9.72293h.24084v-9.72293h-.24084zm-2.34778.0431-.24078.0144 .36119,9.66532h.24079l-.3612-9.67972zm4.93641,0-.34614,9.73734 .24078.0144 .34613-9.73734-.24077-.0144zm-7.50997.12966-.24078.0144 .69226,9.60768c.0804-.005.16034-.0105.24079-.0144l-.69227-9.60767zm10.09859,0-.70734,9.75173 .22572.0288 .7224-9.76614-.24078-.0143zm-12.68722.21605-.24078.0144 1.05347,9.56447 .24085-.0287-1.05354-9.55007zm15.27584,0-1.0686,9.76614c.0751.009.15082.005.22578.0144l1.06854-9.76614-.22572-.0144zm-17.8494.28808-.22574.0432 1.38463,9.47806 .24078-.0288-1.39967-9.49245zm20.40789,0-1.42973,9.76615 .24077.0431 1.42974-9.76614-.24078-.0431zm-22.96637.38893-.22578.0431 1.7308,9.40602 .2257-.0431-1.73072-9.40601zm25.52487,0-1.80602,9.75173c.0801.0152.16079.0277.24084.0432l1.80601-9.75173-.24083-.0431zm-28.05329.47534-.24078.0431 2.06185,9.3196c.0799-.0158.16079-.0276.24079-.0431l-2.06186-9.31959zm30.59677,0-2.15215,9.73732c.0747.017.15107.0259.22572.0431l2.16721-9.73733-.24078-.0431zm-33.12518.54737-.24078.0576 2.40799,9.23319 .24078-.0576-2.40799-9.23317zm35.65359,0-2.52841,9.7085 .22571.0576 2.52841-9.70853-.22571-.0576zm-38.15192.63378-.2408.072 2.73913,9.13235 .24078-.072-2.73911-9.13235zm40.6502,0-2.88962,9.67971 .22578.072 2.88962-9.67972-.22578-.072zm-43.13342.72022-.22578.072 3.07019,9.03153 .22577-.072-3.07018-9.03148zm45.61669,0-3.26589,9.6365c.0749.0255.1511.0466.22578.072l3.26588-9.6365-.22577-.072zm-48.06989.80664-.22571.072 3.38624,8.91629c.0745-.0258.15105-.0466.22578-.072l-3.38631-8.91628zm-2.40799.87866-.22578.0864 3.70237,8.78665c.0731-.0282.15246-.0439.22571-.072l-3.7023-8.80107zm55.33907,0-4.00336,9.50686 .21071.0864 4.01836-9.50687-.22571-.0864zm-57.732.9651-.21071.10083 4.03337,8.65701 .21071-.0864-4.03337-8.6714zm60.12493,0-4.39461,9.42043 .22575.10083 4.37956-9.42043-.2107-.10083zm-62.47277,1.0515-.2107.10084 4.33441,8.52737c.0748-.0351.15079-.0659.22578-.10083l-4.34949-8.52737zm64.82061,0-4.75583,9.31962 .2107.11524 4.7558-9.33402-.21067-.10084zm-67.12327,1.12355-.2107.10083 4.65049,8.38332 .21071-.11523-4.6505-8.36892zm69.42591,0-5.11704,9.21879 .19564.11522 5.1321-9.23318-.2107-.10083zm-71.69846,1.19556-.21071.11523 4.96652,8.22488 .2107-.12964-4.96651-8.21043zm73.97103,0-5.49332,9.08914 .19571.11523 5.49324-9.08914-.19563-.11523zm-76.18339,1.26758-.2107.12963 5.26752,8.05203 .19565-.12964-5.25247-8.05199zm78.39574,0-5.85451,8.9739 .2107.12964 5.85452-8.97391-.21071-.12963zm-80.578,1.35401-.19565.11523 5.55347,7.89357 .19565-.12963-5.55347-7.87916zm82.76022,0-6.21565,8.81544 .19564.12965 6.21571-8.82986-.1957-.11523zm-84.88228,1.41162-.19565.12964 5.85447,7.70632 .19565-.12964-5.85447-7.70628zm87.00435,0-6.57685,8.67142 .18057.12963 6.57691-8.67141-.18063-.12964zm-89.0662,1.48365-.19566.14405 6.14043,7.51905 .19565-.14403-6.14042-7.51906zm91.12806,0-6.93806,8.49856c.0635.0504.13231.0933.19564.14404l6.93806-8.49855-.19564-.14405zm-93.14477,1.55567-.1806.15845 6.41132,7.30299 .1806-.14402-6.41132-7.31739zm95.16149,0-7.28425,8.31131c.0615.0523.11941.10593.18063.15844l7.28425-8.3113-.18063-.15845zm-97.118,1.62769-.1806.15845 6.68222,7.10134 .1806-.15845-6.68221-7.10133zm99.0745,0-7.63038,8.10963c.0588.0536.12203.1046.18063.15846l7.63039-8.10964-.18064-.15845zm-100.9708,1.68531-.1806.15844 6.95312,6.88528 .16555-.15845-6.93807-6.88523zm102.8671,0-7.96145,7.89357c.0548.0535.11093.10477.16556.15845l7.96145-7.89358-.16556-.15844zm-104.70321,1.75732-.16555.15846 7.20898,6.6548c.0539-.0543.11143-.10438.16555-.15845l-7.20898-6.65478zm106.53936,0-8.29258,7.64871c.0553.0578.11048.11488.1655.17285l8.29258-7.6631-.1655-.15846zm-108.31527,1.80056-.1505.17284 7.44978,6.42433c.054-.0582.11134-.11479.16555-.17285l-7.46483-6.4243zm110.07607,0-8.60857,7.41822c.0532.0595.11254.11314.1655.17285l8.60864-7.41823-.16557-.17284zm-111.77673,1.87255-.1505.17285 7.69058,6.17946c.0525-.0607.0978-.12674.1505-.18725l-7.69058-6.16498zm113.47739,0-8.90963,7.15896c.0489.0585.10192.11417.15049.17286l8.92471-7.15897-.16557-.17285zm-115.10279,1.91577-.1505.18726 7.91633,5.92018c.0502-.0624.10008-.12509.1505-.18725l-7.91633-5.92015zm116.74329,0-9.22568,6.89969c.0489.063.10164.12401.15049.18725l9.22569-6.89968-.1505-.18726zm-118.30849,1.9734-.13546.18726 8.14208,5.6609c.046-.0614.0892-.12602.13545-.18725l-8.14207-5.66088zm119.87366,0-9.51161,6.61159c.0451.0621.0906.12498.13543.18727l9.51165-6.6116-.13547-.18726zm-121.36362,2.03101-.13545.18726 8.36783,5.40163c.0462-.0664.089-.13549.13545-.20166l-8.36783-5.38721zm122.83854,0-9.78256,6.30911 .13549.20166 9.78253-6.32351-.13546-.18726zm-124.25324,2.07423-.12041.20166 8.54843,5.11353c.0421-.0653.078-.13655.12041-.20165l-8.54843-5.11354zm125.66794,0-10.03838,6.00661c.0411.0658.0794.13566.12043.20165l10.05338-6.0066-.13543-.20166zm-126.99235,2.13184-.1204.18725 8.72903,4.82546c.0383-.0641.0819-.12328.1204-.18726l-8.72903-4.82545zm128.33181,0-10.27916,5.68972c.0359.0621.0695.12504.10535.18725l10.29423-5.68972-.12042-.18725zm-129.59602,2.16065-.12039.20165 8.90963,4.53737c.0376-.0683.0825-.13347.12039-.20165l-8.90963-4.53737zm130.86021,0-10.53503,5.35841c.0354.0663.0701.13518.10536.20166l10.53501-5.35842-.10534-.20165zm-132.03411,2.20386-.10535.20167 9.07519,4.23487c.0344-.0681.0707-.13369.10534-.20166l-9.07518-4.23486zm133.20805,0-10.74578,5.01271 .10535.21608 10.74578-5.02712-.10535-.20167zm2.408,2.0022-12.14539,5.17116c.032.0714.0588.1445.0903.21607l12.16046-5.18556-.10535-.20167zm-136.7147.24488-.10535.20166 9.22568,3.93238c.0318-.0687.0733-.13305.10535-.20166l-9.22568-3.93237zm135.40531,0-10.95642,4.667c.0331.073.0727.14294.10535.21607l10.95642-4.68141-.10535-.20166zm2.19735,2.07423-1.08361.41772-11.13705,4.32131c.0266.0661.0485.13542.0752.20166l12.23569-4.72463-.0903-.21606zm-1.08361.41772-.0903-.21607-11.15208,4.3069c.0294.0718.0611.14418.0903.21607l11.15212-4.3069zm-137.54246-.21607-.0903.21607 9.37618,3.61549 .0903-.21606-9.37619-3.6155zm139.43876,2.14625-.99332.34571-.0602-.17285-11.31762,3.94679c.0478.12831.0887.2602.13545.38891l12.31093-4.29249-.0752-.21607zm-140.37186.17286-.07525.21606 9.48153,3.2986c.0262-.0689.0639-.13285.0903-.20167l-9.49659-3.313zm141.07919,2.20386-.8729.27368-.0452-.14404-11.48319,3.57227c.0412.12413.0799.25006.12043.37451l12.35608-3.84595-.0753-.23047zm-141.92199.12964-.07525.21606 9.60193,2.9817c.0244-.0719.0506-.14424.0752-.21606l-9.60193-2.98169zm142.55411,2.27588-12.35609,3.39942c.021.0723.0394.14369.0602.21608l12.35609-3.39943-.0602-.21607zm-143.32167.10084-.0602.21606 9.70729,2.65039 .0602-.20166-9.70729-2.66478zm143.86344,2.31909-.64712.15845-.0151-.0864-11.72397,2.79445 .0752.30248 12.37116-2.95288-.0602-.21607zm-144.52564.072-.0602.21608 9.78254,2.33349c.019-.0723.041-.14383.0602-.21606l-9.78253-2.33349zm144.9772,2.36231-.5117.10083-.0151-.0576-11.82936,2.40551 .0602.28808 12.34108-2.50635-.0452-.23047zm-145.56415.0432-.0602.23046 9.85778,2.00221c.0172-.0763.0277-.1543.0452-.23047l-9.84273-2.00217zm145.92535,2.40551-12.29595,2.07425c.0143.077.0312.15337.0452.23044l12.29594-2.0742-.0452-.23049zm-146.422.0288-.04515.23049 9.90293,1.67088c.0144-.0768.0304-.15376.0451-.23045l-9.90293-1.67092zm146.70792,2.43434-.27092.0288v-.0144l-11.97982,1.61329c.0122.0822.0331.16256.0452.24488l12.23567-1.6421-.0301-.23048zm-147.12932.0144-.03008.23048 9.94808,1.33959c.0117-.0767.0181-.15382.0301-.23044l-9.94807-1.33952zm147.30995,2.44873-3.14546.31691-8.99998.89306c.01.0819.0207.16284.0301.24487l12.13032-1.22435-.0151-.23049zm-147.62601.0144-.03008.21608 9.97819,1.0083c.009-.0772.0208-.15336.0301-.23048l-9.97818-.99389zm147.73134,2.46314-12.04007.80665c.006.0715.01.14455.0151.21607l12.04003-.79224-.0151-.23048zm-148.09254,2.47755-.01506.21608 9.97819.33129c.004-.0717.0115-.14438.0151-.21606l-9.97819-.33113zm.07525,2.46315v.0144h-.13545v.21608h9.96314c.00095-.0771.0138-.15343.0151-.23049h-9.84274zm136.17287.0144c.001.0722-.001.14383 0,.21608h12.02502v-.21608h-12.02502zm0,2.07422c-.001.0716-.0134.14454-.0151.21607l11.99489.40331 .015-.21605-11.99491-.40333zm-126.33013.0576-9.67719.33129 .01507.23046 9.66214-.33129c-.002-.0762.002-.15422 0-.23046zm.0752,2.14624-9.87284.66261 .01507.23045 .3913-.0287 9.48153-.6338c-.004-.0769-.0109-.15348-.0151-.23048zm126.04423,1.94459c-.006.0766-.0233.15397-.0301.23046l11.85946,1.19556 .0151-.23046-11.8444-1.19556zm-125.89373.20165-9.81264.99391 .03008.23046 .52675-.0576 9.27084-.92188c-.007-.0808-.008-.16398-.0151-.24488zm125.66795,1.87257c-.009.0718-.006.14431-.015.21607l11.73904,1.58447 .0452-.21606-11.76912-1.58448zm-125.4422.27369-9.72234,1.31079 .03008.21606 .6622-.0864v.0288l9.06014-1.22438c-.0105-.0817-.0199-.16309-.0301-.24486zm125.17129,1.78612c-.0118.0773-.0329.1533-.0452.23048l11.63368,1.95898 .0452-.23046-11.63369-1.959zm-124.85524.37451-8.83438,1.49807 .03007.23045 8.83438-1.49803c-.0126-.0763-.0178-.1541-.0301-.23049zm124.49404,1.68527c-.0146.0769-.0303.15367-.0452.23046l11.49826,2.33351 .0452-.23048-11.49825-2.33349zm-124.13284.40331-9.51164,1.93018 .0602.23048 .903-.18725 .01507.0576 8.59359-1.74292c-.0193-.0958-.0413-.19211-.0602-.28809zm123.71143,1.64209c-.0173.0761-.0276.15448-.0452.23049l11.33269,2.69359 .0602-.21604-11.34776-2.70804zm-123.25992.46094-9.37619,2.2471 .0602.21604 1.0234-.24486 .03007.0864 8.33773-1.9878-.0752-.31691zm122.77835,1.58449c-.0191.073-.0409.14315-.0602.21607l11.15206,3.06812 .0753-.23048-11.16713-3.05371zm-122.20645.63379-8.09694,2.21827 .0602.23046 8.09694-2.21827-.0602-.23046zm121.63454,1.38282c-.0217.0728-.0532.14341-.0753.21605l10.98656,3.41384 .0753-.21608-10.98656-3.41381zm-121.06264.59056-9.10529,2.82325 .07525.21608 1.26421-.38892 .04515.14406 7.82602-2.43435c-.0378-.11908-.0683-.24072-.10534-.36012zm120.41545,1.41164c-.0244.072-.0507.14417-.0752.21606l10.79085,3.75953 .0753-.21606-10.79093-3.75953zm-119.7382.6482-8.93974,3.11133 .07525.21606 8.93974-3.11134-.0752-.21605zm119.03087,1.33959c-.0268.0719-.0479.14427-.0752.21608l10.5651,4.07642 .0903-.21608-10.58021-4.07642zm-118.27837.69141-8.77418,3.38501 .0903.21608 8.77419-3.38502c-.0287-.0727-.0619-.14323-.0903-.21607zm117.51082,1.26759-.0903.21606 10.3243,4.39332 .10535-.20166-10.33937-4.40772zm-116.68307.73461-8.59357,3.67311 .10535.20166 8.57853-3.6587-.0903-.21607zm115.84025,1.20997c-.0332.0728-.0718.14339-.10535.21607l10.08358,4.69581 .10535-.20167-10.08358-4.71021zm-114.93724.79224-8.39793,3.91797 .10535.20167 8.39793-3.91799c-.0327-.0682-.0729-.13327-.10535-.20165zm114.0192,1.12353c-.0339.0683-.071.13351-.10536.20167l9.82769,4.99831 .10534-.20167-9.82767-4.99831zm-113.056.82105-8.20227,4.17726 .12039.20167 8.18724-4.16285c-.0372-.0711-.0684-.14485-.10536-.21608zm112.06273,1.06594c-.0358.0661-.0692.13571-.10535.20166l9.55676,5.27198 .12042-.18725-9.57183-5.28639zm-111.00922.87867-7.99158,4.40772 .1204.18725 7.97653-4.4077c-.0354-.0621-.0702-.12502-.10535-.18727zm109.97076.96512c-.0431.0734-.0919.14281-.13549.21608l9.2859,5.54566 .13543-.20166-9.28584-5.56008zm-108.87211.90747-7.76583,4.65261 .12041.20166 7.76582-4.6526-.1204-.20167zm107.74336.92188c-.0429.0676-.0921.13419-.13549.20167l8.99995,5.80494 .13546-.18726-8.99992-5.81935zm-106.55441.9507-7.55512,4.86865 .13545.18726 7.55513-4.86866c-.0429-.0642-.0928-.12287-.13546-.18725zm105.36545.83543c-.044.0642-.0761.13766-.12042.20167l8.69892,6.04984 .13547-.1873-8.71397-6.06421zm-104.11629.97951-7.31433,5.0847 .13546.1873 7.31432-5.08474c-.0449-.0623-.0908-.1248-.13545-.18726zm102.86712.77783c-.046.0621-.0894.12535-.13543.18726l8.39793,6.28031 .1505-.1873-8.413-6.28027zm-101.55776.97951-7.07353,5.30076 .1505.1873 7.07352-5.28639-.15049-.20165zm100.24838.73463c-.0495.0626-.10056.12483-.1505.18725l8.08188,6.48198 .16557-.1729-8.09695-6.49633zm-98.86378,1.0083-6.83273,5.48803 .1505.1729 6.83273-5.47367c-.0513-.0615-.0995-.12558-.1505-.18726zm97.49425.6626c-.052.0611-.0983.12636-.1505.18726l7.75075,6.68357 .16557-.1728-7.76582-6.69803zm-96.04945,1.02273-6.57687,5.6753 .1505.1728 6.59192-5.6753c-.0533-.059-.11249-.1132-.16555-.1728zm94.60465.605c-.0516.057-.0986.1164-.1505.1728l7.43475,6.8853 .1655-.1729-7.44975-6.8852zm-93.08459,1.0371-6.33607,5.8481 .16555.1729 6.33607-5.8482-.16555-.1728zm91.59463.5618c-.0531.054-.11222.1043-.16556.1584l7.10362,7.0437 .16556-.1584-7.10362-7.0437zm-90.02943,1.0226-6.08021,6.0211 .1806.1584 6.06517-6.021-.16556-.1585zm88.4642.5042-.1655.1584 6.77249,7.2022 .18064-.1584-6.78763-7.2022zm-86.83879,1.0227-5.80932,6.1795 .1806.1584 5.80933-6.1794-.18061-.1585zm85.22848.461-.18063.1584 6.44143,7.3462 .18063-.1441-6.44143-7.3605zm-83.52782,1.0226-5.55347,6.3379 .1806.1441 5.55347-6.3235c-.0613-.052-.11948-.1067-.1806-.1585zm81.85724.4034c-.0617.051-.11876.1075-.18057.1584l6.09523,7.4758 .19564-.144-6.1103-7.4902zm-80.12649,1.0083-5.28257,6.4819 .19566.144 5.28256-6.4675-.19565-.1584zm78.39576.3889-.18064.1296 5.76417,7.5912 .18063-.1298-5.76416-7.591zm-76.58975.9795-5.02672,6.6115 .19565.1298 5.01167-6.6117-.1806-.1296zm74.81381.3313-.19564.1441 5.43304,7.6919 .1957-.1296-5.4331-7.7064zm-72.9777.9651-4.74077,6.7413 .19565.1296 4.74077-6.7413-.19565-.1296zm71.15663.3025-.19564.1297 5.07189,7.7783 .21071-.1152-5.08696-7.7928zm-69.26033.9363-4.46986,6.8565 .2107.1152 4.46986-6.8421-.2107-.1296zm67.3791.2737-.19565.1153 4.74078,7.8503 .19563-.1152-4.74076-7.8504zm-65.43764.893-4.19897,6.9574 .21071.1152 4.19896-6.9429-.2107-.1297zm63.51121.245-.19565.1152 4.39464,7.908 .2107-.1009-4.40969-7.9223zm-61.5246.8643-3.91302,7.058 .2107.1009 3.91302-7.0437-.2107-.1152zm59.56809.2016c-.069.037-.14149.065-.21069.1008l4.06355,7.98 .21067-.1008-4.06353-7.98zm-57.53633.821-3.64212,7.159 .2107.1008 3.64209-7.159-.21067-.1008zm55.51967.1874-.2107.1007 3.73238,8.0232 .2107-.1008-3.73238-8.0231zm-53.44278.7777-3.37118,7.2454 .21071.1008 3.37118-7.2597-.21071-.087zm51.38092.144-.2107.1009 3.40131,8.0664 .22571-.087-3.41632-8.0808zm-49.27391.7347-3.10033,7.3462 .22578.087 3.10032-7.3318-.22577-.1008zm47.18192.1441-.21071.086 3.07025,8.0808 .22572-.072-3.08526-8.0952zm-2.10701.7922c-.0744.029-.15121.043-.22575.072l2.75417,8.1097 .22577-.072-2.75419-8.1097zm-40.77057.6193-2.54348,7.4903 .22578.072 2.54341-7.4903c-.0756-.026-.15023-.046-.22571-.072zm38.60337.087-.21072.072 2.42307,8.124 .22578-.072-2.43813-8.124zm-36.40608.5762-2.27257,7.5478 .2408.072 2.25755-7.5622-.22578-.058zm34.23886.072-.24078.058 2.12207,8.1241 .22571-.058-2.107-8.1241zm-32.02651.4898-1.98657,7.6343 .24078.058 1.98658-7.6344-.24079-.058zm29.81415.072-.24078.058 1.80602,8.124 .24078-.058-1.80602-8.1241zm-27.57165.4322-1.70066,7.6919 .24078.058 1.70066-7.7063c-.0799-.017-.16099-.029-.24078-.041zm25.34423.058c-.0798.017-.16083.03-.24078.041l1.48996,8.1095 .24083-.041-1.49001-8.1097zm-23.07173.3602-1.42974,7.7495 .22578.041 1.42974-7.7639-.22578-.031zm20.81423.031-.24078.041 1.18896,8.0953 .24078-.015-1.18896-8.1242zm-18.54166.3025-1.14379,7.8215 .22574.016 1.14382-7.807-.22577-.031zm16.2691.031-.22571.03 .88796,8.0663 .22572-.016-.88797-8.0808zm-13.98147.2159-.8729,7.8791h.24078l.85786-7.8647-.22574-.016zm11.70896.03c-.0802.01-.16057.01-.24084.015l.58698,8.0522h.24078l-.58692-8.0665zm-9.42139.1442-.57184,7.9224h.24078l.57191-7.908c-.0805,0-.16047-.01-.24085-.015zm7.13376.015-.24078.016 .28593,8.0232h.24077l-.28592-8.0376zm-4.83105.072-.30099,7.9654h.24078l.30099-7.9654h-.24078zm2.28757,0v8.023h.24084v-8.023h-.24084z" fill="#0e232e"/>
  <path d="m103.19 1026.4 2.7143-7.0119" fill="none" stroke="#000" stroke-width=".15"/>
  <path d="m56.524 953.77 9.5 0.67858" fill="none" stroke="#000" stroke-width=".2"/>
  <path d="m189.89 963.04 13.345 0.67858" fill="none" stroke="#000" stroke-width=".2"/>
  <path d="m150.82 900.9 3.619-9.0476" fill="none" stroke="#000" stroke-width=".15"/>
  <path d="m192.89 956.48 12.667-0.67857" fill="none" stroke="#000" stroke-width=".25"/>
  <path transform="matrix(.10157 0 0 .10589 91.963 851.32)" d="m573.12 729.6c0 99.978-92.084 181.03-205.68 181.03s-205.68-81.048-205.68-181.03 92.084-181.03 205.68-181.03 205.68 81.048 205.68 181.03z" fill="url(#m)" opacity=".61951" stroke="#0a0707" stroke-linecap="round" stroke-linejoin="bevel" stroke-opacity=".89941" stroke-width="2.3987"/>
  <path d="m126.65 908.9v3.5724" fill="#0e232e" stroke="#000" stroke-width=".38472"/>
  <path d="m129.33 944.56v3.5728" fill="none" stroke="#000" stroke-width=".38472"/>
  <path d="m146.36 928.42h-3.5724" fill="#0e232e" stroke="#000" stroke-width=".38472"/>
  <path d="m110.7 928.62h-3.5724" fill="#0e232e" stroke="#000" stroke-width=".38472"/>
  <path d="m136.47 911.48-1.7862 3.094" fill="#0e232e" stroke="#000" stroke-width=".38472"/>
  <path d="m118.81 942.46-1.7862 3.0936" fill="#0e232e" stroke="#000" stroke-width=".38472"/>
  <path d="m143.68 918.63-3.0938 1.7862" fill="#0e232e" stroke="#000" stroke-width=".38472"/>
  <path d="m112.9 936.63-3.0938 1.7862" fill="#0e232e" stroke="#000" stroke-width=".38472"/>
  <path d="m116.85 911.58 1.7862 3.094" fill="#0e232e" stroke="#000" stroke-width=".38472"/>
  <path d="m134.85 942.36 1.7862 3.0935" fill="#0e232e" stroke="#000" stroke-width=".38472"/>
  <path d="m143.78 938.24-3.0938-1.7866" fill="#0e232e" stroke="#000" stroke-width=".38472"/>
  <path d="m112.8 920.58-3.0938-1.7862" fill="#0e232e" stroke="#000" stroke-width=".38472"/>
  <g fill="#0e232e" font-family="Sans" font-size="6.8409" letter-spacing="0" word-spacing="0">
   <path d="m126.57601,914.21672-.59792.0468c-.0534-.23604-.12916-.40751-.22714-.51441-.16256-.17146-.36298-.2572-.60125-.2572-.19151,0-.35964.0534-.50439.16033-.18928.13807-.33848.33961-.4476.6046-.10911.265-.1659.64245-.17035,1.13236 .14474-.22046.32178-.38413.53111-.49102s.42867-.16033.65804-.16034c.40083,1e-005 .7421.14754 1.0238.44259s.42254.67642.42255,1.14406c-1e-005,.3073-.0663.5929-.19875.85678s-.31455.46597-.54614.60627-.49437.21044-.78831.21044c-.50105,0-.90968-.18428-1.22589-.55282s-.47433-.97593-.47433-1.82214c0-.94641.17481-1.63451.52443-2.0643 .30508-.37411.71594-.56117 1.23257-.56117 .38525,0 .70091.108.94698.324s.39359.51441.44259.89521zm-2.45512,2.11107c0,.2071.044.40529.13194.59457s.21099.33347.3691.43257 .32401.14864.49771.14864c.25386,0 .47209-.10243.6547-.30731s.2739-.48323.2739-.83507c0-.33848-.0902-.60515-.27056-.8s-.40752-.29228-.68143-.29228-.50216.0974-.69144.29228-.28392.45038-.28392.7666z"/>
   <path d="m127.26411,915.49939c0-.57898.0596-1.04495.17871-1.39792s.29617-.62518.5311-.8167 .53055-.28726.88685-.28726c.26277,0 .49325.0529.69145.15866s.36186.25832.49102.45762 .23048.44204.30397.72819 .11023.67196.11023,1.15741c0,.57453-.059,1.03828-.17704,1.39124s-.2945.62575-.52944.81837-.53166.28894-.89019.28894c-.47209,0-.84287-.16925-1.11232-.50773-.32289-.40752-.48434-1.07112-.48434-1.99082zm.61796,0c0,.8039.0941,1.33891.28225,1.60502s.42032.39916.69645.39916 .50828-.13361.69646-.40083 .28225-.80168.28225-1.60335c0-.80612-.0941-1.34168-.28225-1.60668s-.42255-.3975-.70314-.3975-.49659.11691-.66138.35073c-.2071.29841-.31064.84955-.31064,1.65345z"/>
  </g>
  <g fill="#0e232e" font-family="Sans" font-size="6.8409" letter-spacing="0" word-spacing="0">
   <path d="m112.42209,923.56913 .63132-.0534c.0468.3073.15532.53834.32568.69311s.37578.23215.61629.23215c.28949,0 .53444-.10912.73486-.32735s.30063-.50772.30063-.86848c0-.34293-.0963-.6135-.28894-.81169s-.44482-.29729-.75658-.29729c-.19373,0-.36854.044-.52442.13194s-.27836.20209-.36744.34238l-.56451-.0735 .47433-2.51525h2.43508v.57453h-1.95408l-.26388,1.31608c.29394-.20487.60236-.3073.92526-.30731 .42756,1e-005 .78831.14809 1.08226.44426s.44091.67697.44092,1.14239c-1e-005,.44314-.12916.82617-.38748,1.14906-.31399.39638-.74266.59457-1.28601.59457-.44538,0-.80891-.1247-1.09061-.37411s-.44259-.5801-.48268-.99207z"/>
   <path d="m116.23004,922.43677c0-.57898.0596-1.04496.1787-1.39792s.29618-.62519.53111-.8167 .53055-.28726.88685-.28727c.26277,1e-005 .49325.0529.69144.15867s.36187.25832.49103.45762 .23048.44204.30397.72818 .11022.67196.11023,1.15742c-1e-005,.57453-.059,1.03828-.17704,1.39123s-.29451.62575-.52944.81838-.53166.28893-.89019.28893c-.4721,0-.84287-.16924-1.11232-.50772-.3229-.40752-.48434-1.07112-.48434-1.99082zm.61795,0c0,.8039.0941,1.3389.28226,1.60501s.42032.39917.69645.39917 .50828-.13361.69645-.40084 .28226-.80167.28226-1.60334c0-.80612-.0941-1.34169-.28226-1.60669s-.42255-.39749-.70313-.39749-.49659.11691-.66138.35073c-.2071.2984-.31065.84955-.31065,1.65345z"/>
  </g>
  <g fill="#0e232e" font-family="Sans" font-size="6.8409" letter-spacing="0" word-spacing="0">
   <path d="m136.99567,925.07233h-.60125v-3.83133c-.14475.13807-.33459.27614-.56952.4142s-.44594.24162-.63299.31065v-.58122c.33625-.1581.6302-.34961.88184-.57453s.42978-.44314.53445-.6547h.38747z"/>
   <path d="m138.53889,922.65729c0-.57898.0596-1.04496.17871-1.39792s.29617-.62519.5311-.8167 .53055-.28726.88685-.28727c.26277,1e-005 .49325.0529.69145.15867s.36186.25832.49102.45762 .23048.44204.30397.72818 .11023.67196.11023,1.15742c0,.57453-.059,1.03828-.17704,1.39123s-.2945.62575-.52943.81838-.53167.28893-.8902.28893c-.47209,0-.84287-.16924-1.11232-.50772-.32289-.40752-.48434-1.07112-.48434-1.99082zm.61796,0c0,.8039.0941,1.3389.28225,1.60501s.42032.39917.69645.39917 .50828-.13361.69646-.40084 .28225-.80167.28225-1.60334c0-.80612-.0941-1.34169-.28225-1.60669s-.42255-.39749-.70314-.39749-.49659.11691-.66138.35073c-.2071.2984-.31064.84955-.31064,1.65345z"/>
  </g>
  <g fill="#0e232e" font-family="Sans" font-size="6.8409" letter-spacing="0" word-spacing="0">
   <path d="m139.49935,935.78059v.57787h-3.23676c-.004-.14475.0189-.28393.0702-.41754 .0824-.22046.21434-.43758.39583-.65136s.4437-.46096.78664-.74154c.53222-.43647.89186-.78219 1.07892-1.03717s.28058-.49603.28058-.72317c0-.23827-.0852-.43925-.25553-.60293s-.39249-.2455-.66639-.24551c-.2895,1e-005-.52109.0868-.69479.26054s-.26165.41421-.26388.72151l-.61795-.0635c.0423-.46095.20153-.81224.47766-1.05386s.6469-.36242 1.11232-.36242 .84175.13027 1.11566.39081 .41085.58344.41086.96869c-1e-005,.19597-.0401.38859-.12025.57787s-.21323.38859-.39917.59791-.49492.4966-.92693.8618c-.36076.30286-.59235.50829-.69479.61629s-.18705.21656-.25386.32568z"/>
   <path d="m140.14737,933.94342c0-.57898.0596-1.04495.1787-1.39791s.29617-.62519.53111-.81671 .53055-.28726.88685-.28726c.26277,0 .49325.0529.69144.15866s.36186.25832.49103.45762 .23047.44204.30396.72819 .11023.67196.11023,1.15741c0,.57454-.059,1.03828-.17703,1.39124s-.29451.62575-.52944.81837-.53167.28894-.89019.28894c-.4721,0-.84287-.16924-1.11232-.50773-.3229-.40751-.48434-1.07112-.48434-1.99082zm.61795,0c0,.8039.0941,1.33891.28226,1.60502s.42032.39916.69645.39916 .50828-.13361.69645-.40083 .28225-.80167.28226-1.60335c-1e-005-.80612-.0941-1.34168-.28226-1.60668s-.42255-.39749-.70313-.3975-.49659.11692-.66138.35073c-.2071.29841-.31065.84956-.31065,1.65345z"/>
  </g>
  <g fill="#0e232e" font-family="Sans" font-size="6.8409" letter-spacing="0" word-spacing="0">
   <path d="m123.19407,941.78506 .60125-.0802c.069.34072.1865.58623.3524.73654s.36799.22547.60627.22547c.28281,0 .52164-.098.71649-.29394s.29227-.4387.29228-.72819c-1e-005-.27613-.0902-.50383-.27057-.68309s-.40974-.26889-.6881-.2689c-.11357,1e-005-.25498.0223-.42422.0668l.0668-.52777 .0969.007c.25608,1e-005 .48657-.0668.69144-.20042s.3073-.33959.30731-.61795c-1e-005-.22046-.0746-.40306-.2238-.54781s-.34183-.21712-.57788-.21712c-.23382,0-.42867.0735-.58455.22046s-.25609.36744-.30063.66138l-.60125-.10689c.0735-.40306.2405-.71538.50105-.93695s.58455-.33236.97202-.33236c.26723,0 .51329.0573.73821.17202s.39694.27113.51608.46931 .1787.40864.1787.63132c0,.21156-.0568.40418-.17035.57787s-.2817.31177-.50439.4142c.28949.0668.51441.20543.67474.41587s.2405.47376.2405.78998c0,.42756-.15588.78998-.46764,1.08727s-.70592.44593-1.18246.44593c-.42979,0-.78665-.12805-1.07057-.38414s-.44593-.58789-.48601-.99541z"/>
   <path d="m126.99867,940.66272c0-.57898.0596-1.04495.1787-1.39792s.29618-.62518.53111-.8167 .53055-.28726.88685-.28726c.26277,0 .49325.0529.69144.15866s.36187.25832.49103.45762 .23048.44204.30397.72819 .11022.67196.11023,1.15741c-1e-005,.57453-.059,1.03828-.17704,1.39124s-.29451.62575-.52944.81837-.53166.28894-.89019.28894c-.47209,0-.84287-.16925-1.11232-.50773-.32289-.40752-.48434-1.07112-.48434-1.99082zm.61795,0c0,.8039.0941,1.33891.28226,1.60502s.42032.39916.69645.39916 .50828-.13361.69646-.40083 .28225-.80168.28225-1.60335c0-.80612-.0941-1.34168-.28225-1.60668s-.42255-.3975-.70314-.3975-.49659.11691-.66138.35073c-.2071.29841-.31065.84955-.31065,1.65345z"/>
  </g>
  <g fill="#0e232e" font-family="Sans" font-size="6.8409" letter-spacing="0" word-spacing="0">
   <path d="m114.44 936.89v-1.1724h-2.1244v-0.55115l2.2347-3.1733h0.49102v3.1733h0.66138v0.55115h-0.66138v1.1724zm0-1.7236v-2.2079l-1.5332 2.2079z"/>
   <path d="m116.31646,934.47479c0-.57898.0596-1.04495.1787-1.39791s.29617-.62519.53111-.81671 .53055-.28726.88685-.28726c.26277,0 .49325.0529.69144.15866s.36187.25832.49103.45762 .23047.44204.30396.72819 .11023.67196.11023,1.15741c0,.57454-.059,1.03828-.17703,1.39124s-.29451.62575-.52944.81837-.53167.28894-.89019.28894c-.4721,0-.84287-.16924-1.11232-.50773-.3229-.40751-.48434-1.07112-.48434-1.99082zm.61795,0c0,.8039.0941,1.33891.28226,1.60502s.42032.39916.69645.39916 .50828-.13361.69645-.40083 .28226-.80167.28226-1.60335c0-.80612-.0941-1.34168-.28226-1.60668-.18817-.26499-.42255-.39749-.70313-.3975s-.49659.11692-.66138.35073c-.2071.29841-.31065.84956-.31065,1.65345z"/>
  </g>
  <g transform="matrix(.15442 0 0 .15442 73.234 797.33)" fill="#0e232e">
   <path d="m344.78 869.9c-0.9008 1.8326 5.0345 4.1526 5.7078 2.2248 12.786-36.612 42.412-102.2 42.412-102.2l0.30268-0.11092s-28.744 60.051-48.422 100.08z" fill="#0e232e" stroke="#000" stroke-width="1.1206"/>
   <path transform="matrix(1.2047 .3228 -.30088 1.1229 80.362 -240.65)" d="m452.55 837.7c0 6.4158-4.7487 11.617-10.607 11.617s-10.607-5.201-10.607-11.617 4.7487-11.617 10.607-11.617 10.607 5.201 10.607 11.617z"/>
  </g>
  <g opacity=".37073" stroke="#000" stroke-width="5.8301">
   <g transform="matrix(.07832 .11831 -.12728 .0722 224.02 812.89)">
    <path d="m378.23 830.77v19.739" opacity=".45366"/>
    <path d="m378.23 1112.8v19.739" opacity=".45366"/>
    <path d="m453.67 850.98-9.8694 17.094" opacity=".45366"/>
    <path d="m312.67 1095.2-9.8694 17.094" opacity=".45366"/>
    <path d="m508.89 906.2-17.094 9.8693" opacity=".45366"/>
    <path d="m264.67 1047.2-17.094 9.8693" opacity=".45366"/>
    <path d="m529.1 981.63-19.739-1e-4" opacity=".45366"/>
    <path d="m247.1 981.63-19.739-1e-4" opacity=".45366"/>
    <path d="m508.89 1057.1-17.094-9.8694" opacity=".45366"/>
    <path d="m264.67 916.07-17.094-9.8694" opacity=".45366"/>
    <path d="m453.67 1112.3-9.8693-17.094" opacity=".45366"/>
    <path d="m312.67 868.07-9.8693-17.094" opacity=".45366"/>
   </g>
   <g transform="matrix(.08826 .11099 -.12055 .0831 213.65 804.97)">
    <path d="m378.23 830.77v19.739" opacity=".45366"/>
    <path d="m378.23 1112.8v19.739" opacity=".45366"/>
    <path d="m453.67 850.98-9.8694 17.094" opacity=".45366"/>
    <path d="m312.67 1095.2-9.8694 17.094" opacity=".45366"/>
    <path d="m508.89 906.2-17.094 9.8693" opacity=".45366"/>
    <path d="m264.67 1047.2-17.094 9.8693" opacity=".45366"/>
    <path d="m529.1 981.63-19.739-1e-4" opacity=".45366"/>
    <path d="m247.1 981.63-19.739-1e-4" opacity=".45366"/>
    <path d="m508.89 1057.1-17.094-9.8694" opacity=".45366"/>
    <path d="m264.67 916.07-17.094-9.8694" opacity=".45366"/>
    <path d="m453.67 1112.3-9.8693-17.094" opacity=".45366"/>
    <path d="m312.67 868.07-9.8693-17.094" opacity=".45366"/>
   </g>
   <g transform="matrix(.09752 .10282 -.1129 .09337 202.64 797.98)">
    <path d="m378.23 830.77v19.739" opacity=".45366"/>
    <path d="m378.23 1112.8v19.739" opacity=".45366"/>
    <path d="m453.67 850.98-9.8694 17.094" opacity=".45366"/>
    <path d="m312.67 1095.2-9.8694 17.094" opacity=".45366"/>
    <path d="m508.89 906.2-17.094 9.8693" opacity=".45366"/>
    <path d="m264.67 1047.2-17.094 9.8693" opacity=".45366"/>
    <path d="m529.1 981.63-19.739-1e-4" opacity=".45366"/>
    <path d="m247.1 981.63-19.739-1e-4" opacity=".45366"/>
    <path d="m508.89 1057.1-17.094-9.8694" opacity=".45366"/>
    <path d="m264.67 916.07-17.094-9.8694" opacity=".45366"/>
    <path d="m453.67 1112.3-9.8693-17.094" opacity=".45366"/>
    <path d="m312.67 868.07-9.8693-17.094" opacity=".45366"/>
   </g>
   <g transform="matrix(.10605 .09386 -.10439 .10292 191.06 791.99)">
    <path d="m378.23 830.77v19.739" opacity=".45366"/>
    <path d="m378.23 1112.8v19.739" opacity=".45366"/>
    <path d="m453.67 850.98-9.8694 17.094" opacity=".45366"/>
    <path d="m312.67 1095.2-9.8694 17.094" opacity=".45366"/>
    <path d="m508.89 906.2-17.094 9.8693" opacity=".45366"/>
    <path d="m264.67 1047.2-17.094 9.8693" opacity=".45366"/>
    <path d="m529.1 981.63-19.739-1e-4" opacity=".45366"/>
    <path d="m247.1 981.63-19.739-1e-4" opacity=".45366"/>
    <path d="m508.89 1057.1-17.094-9.8694" opacity=".45366"/>
    <path d="m264.67 916.07-17.094-9.8694" opacity=".45366"/>
    <path d="m453.67 1112.3-9.8693-17.094" opacity=".45366"/>
    <path d="m312.67 868.07-9.8693-17.094" opacity=".45366"/>
   </g>
   <g transform="matrix(.11377 .0842 -.09508 .11169 179.01 787.03)">
    <path d="m378.23 830.77v19.739" opacity=".45366"/>
    <path d="m378.23 1112.8v19.739" opacity=".45366"/>
    <path d="m453.67 850.98-9.8694 17.094" opacity=".45366"/>
    <path d="m312.67 1095.2-9.8694 17.094" opacity=".45366"/>
    <path d="m508.89 906.2-17.094 9.8693" opacity=".45366"/>
    <path d="m264.67 1047.2-17.094 9.8693" opacity=".45366"/>
    <path d="m529.1 981.63-19.739-1e-4" opacity=".45366"/>
    <path d="m247.1 981.63-19.739-1e-4" opacity=".45366"/>
    <path d="m508.89 1057.1-17.094-9.8694" opacity=".45366"/>
    <path d="m264.67 916.07-17.094-9.8694" opacity=".45366"/>
    <path d="m453.67 1112.3-9.8693-17.094" opacity=".45366"/>
    <path d="m312.67 868.07-9.8693-17.094" opacity=".45366"/>
   </g>
   <g transform="matrix(.12062 .07389 -.08506 .11961 166.57 783.15)">
    <path d="m378.23 830.77v19.739" opacity=".45366"/>
    <path d="m378.23 1112.8v19.739" opacity=".45366"/>
    <path d="m453.67 850.98-9.8694 17.094" opacity=".45366"/>
    <path d="m312.67 1095.2-9.8694 17.094" opacity=".45366"/>
    <path d="m508.89 906.2-17.094 9.8693" opacity=".45366"/>
    <path d="m264.67 1047.2-17.094 9.8693" opacity=".45366"/>
    <path d="m529.1 981.63-19.739-1e-4" opacity=".45366"/>
    <path d="m247.1 981.63-19.739-1e-4" opacity=".45366"/>
    <path d="m508.89 1057.1-17.094-9.8694" opacity=".45366"/>
    <path d="m264.67 916.07-17.094-9.8694" opacity=".45366"/>
    <path d="m453.67 1112.3-9.8693-17.094" opacity=".45366"/>
    <path d="m312.67 868.07-9.8693-17.094" opacity=".45366"/>
   </g>
  </g>
  <path d="m129.34 877.1c-46.905 0-84.929 36.753-84.929 82.094s38.025 82.094 84.929 82.094 84.929-36.753 84.929-82.094-38.025-82.094-84.929-82.094zm0 9.7165c41.344 0 74.861 32.411 74.861 72.378s-33.517 72.358-74.861 72.358-74.861-32.392-74.861-72.358 33.517-72.378 74.861-72.378z" fill="#666" opacity=".20488"/>
  <path d="m129.34 871.3c-50.218 0-90.929 39.349-90.929 87.894s40.711 87.894 90.929 87.894 90.929-39.349 90.929-87.894-40.711-87.894-90.929-87.894zm0 10.403c44.265 0 80.15 34.701 80.15 77.491s-35.885 77.47-80.15 77.47-80.15-34.68-80.15-77.47 35.885-77.491 80.15-77.491z" fill="url(#k)" opacity=".20488" stroke="#000" stroke-linecap="round" stroke-linejoin="bevel" stroke-width=".25"/>
  <path d="m120.63 873.24 0.56488-23.556 14.657-0.42007 0.39613 23.524z" fill="url(#z)"/>
  <path d="m126.84 871.53-0.10424-21.866 1.9285-0.39756 0.0521 22.264z" fill="#364e59" opacity=".36585"/>
  <path d="m126.56 872.79-0.53616-23.104 9.9188-0.42006 0.26807 23.524z" fill="url(#y)" opacity=".66341"/>
  <path d="m113.70144,835.62687c-.26466.006-.48172.35307-.48172.66941v15.30876c0,.36154.2769.53972.5912.65347l.0949.0319v-16.6157l-.0949-.0319c-.0392-.0144-.0717-.0168-.10948-.0159zm30.52336.008c-.0382-.002-.0769-.004-.11678.008l-1.37946.42237v16.56789c.45959-.12397.92161-.24366 1.37946-.37455 .0534-.0152.10336-.0343.15328-.0558v-16.41647c0-.0483-.005-.0965-.007-.14345l-.0292-.008zm.22627.0956c-.0116.0938-.0219.19454-.0219.29486v16.08974c.1639-.11276.27005-.28024.27005-.51003v-15.30875c0-.21812-.0977-.44083-.24815-.56582zm-30.26791.0478v16.60773c.51429.18113 1.03135.35137 1.54003.51003v-16.59179c-.50376-.16621-1.01869-.33896-1.54003-.52597zm28.34104.34268c-.51412.15637-1.03085.31661-1.54734.47018v16.49616c.51679-.12736 1.03305-.26105 1.54734-.39846v-16.55194c0-.006 4e-005-.0104 0-.0159zm-26.64043.23907v16.5918c1.03301.31785 2.04702.59048 3.05818.82082v-16.50413c-.98262-.25896-2.00293-.56361-3.05818-.90849zm24.88143.29486c-.51057.1509-1.02286.29522-1.54004.43831v16.4085c.51387-.1132 1.02897-.2342 1.54004-.35861v-16.4882zm-1.58383.44627c-.50743.14006-1.01528.27824-1.53273.40643v16.32084c.51312-.0997 1.02268-.20675 1.53273-.31876v-16.40851zm-20.14454.19126v16.49617c.51218.11543 1.02582.22446 1.53273.31876v-16.44037c-.50148-.11358-1.01221-.23847-1.53273-.37456zm18.50962.23908c-.99268.24379-2.00896.46061-3.05817.63753v16.1774c1.02657-.13999 2.04536-.29903 3.05817-.49409v-16.32084zm-16.93309.14344v16.44038c.51906.096 1.03356.17229 1.54733.24705v-16.36866c-.50678-.0952-1.02063-.20002-1.54733-.31877zm1.75899.35862v16.36068c.51511.0722 1.03001.13939 1.54004.19126v-16.29693c-.50377-.0719-1.01615-.15938-1.54004-.25501zm11.95535.16735c-.50472.0828-1.01781.15309-1.54003.21517v16.13755c.51563-.0527 1.02827-.11512 1.54003-.18329v-16.16943zm-10.21095.11156v16.28897c.51475.0498 1.0229.0974 1.53274.12751 .00022-.0132 0-.0265 0-.0399v-16.20131c-.49907-.0475-1.01363-.10412-1.53274-.17532zm8.34247.14345c-.50247.0547-1.01863.0952-1.54003.12751v16.12958c.51502-.0322 1.02914-.0788 1.54003-.12751v-16.12958zm-6.64186.0478v16.23318c.51451.0283 1.03026.0464 1.54004.0558v-16.1774c-.50459-.0231-1.01485-.0641-1.54004-.11157zm4.99234.0877c-.5032.0295-1.01696.0498-1.54003.0558v16.13756c.51591-.0133 1.02848-.033 1.54003-.0637v-16.12959zm-3.31362.0318v16.16943c.51263.008 1.02461.002 1.53273-.008v-16.13755c-.50154.002-1.01098-.002-1.53273-.0238z" fill="url(#x)" opacity=".66341"/>
  <path d="m113.2729,834.44653c-.22458.005-.40016.14701-.51821.31877s-.18976.3838-.18976.60565v15.30876c0,.25185.10864.47298.25545.61363s.32403.22454.49631.28689l.0949.0319 .13868-.11157 .13867.2072c.51713.18212 1.03642.35066 1.54734.51002l.0803-.0637 .0803.11953c1.03786.31935 2.0561.5972 3.07277.8288l.0511-.0478 .0437.0637c.51394.11583 1.02949.22379 1.54003.31877l.0219-.0239 .0219.0319c.52403.0969 1.04778.17223 1.56193.24704l.10219-.1036 .10948.13548c.51645.0724 1.0332.13897 1.54734.19126l.10218-.1036 .10218.11954c.51514.0498 1.02529.0971 1.54003.12751l.0876-.0877 .0803.0956c.51732.0284 1.03513.0464 1.54733.0558l.073-.0717 .0657.0717c.51629.008 1.03054.002 1.54003-.008l.1241-.13551 .12408.13548c.5177-.0133 1.0327-.0328 1.54734-.0637l.0584-.0638 .0511.0558c.51902-.0325 1.03579-.0788 1.54733-.12751l.16058-.19923 .16787.16735c.51838-.053 1.03398-.1149 1.54733-.18328l.0803-.10361 .0803.0797c1.02929-.14037 2.04766-.29806 3.06547-.49409l.0511-.0717 .0511.0478c.51524-.10015 1.0287-.20648 1.54004-.31877l.0219-.0319 .0219.0239c.51584-.11363 1.03512-.23392 1.54733-.35861l.10948-.15141 .10219.0956c.51843-.12778 1.03197-.26874 1.54733-.40643l.10218-.14345 .10219.0877c.45817-.1236.92541-.24266 1.38676-.37456l.18246-.0638 .10219-.17532 .10218.0637c.21368-.147.37953-.40966.37953-.72519v-15.30876c0-.30122-.12488-.58386-.34303-.76504l-.13868-.0558-.0511.0478-.11678-.12751c.052.008.0336-.0113-.0511-.0159h-.007c-.0394-.002-.10244-.008-.18246.0159l-1.37947.42236-.0949.14345-.10948-.0877c-.51488.15661-1.03248.31709-1.54734.47018l-.10218.15141-.10948-.0877c-.5088.15037-1.01621.2954-1.53274.43831l-.0219.0319-.0219-.0239c-.50692.13991-1.01115.27901-1.52544.40642l-.0511.0717-.0511-.0478c-.98832.24272-2.00033.46162-3.04358.63753l-.0803.1036-.0803-.0717c-.50093.0822-1.01301.14542-1.53274.2072l-.16057.19922-.16058-.15938c-.49805.0543-1.01362.0953-1.53273.12751l-.0584.0637-.0511-.0558c-.50042.0294-1.01357.0498-1.53274.0558l-.11678.12751-.11678-.12751c-.49979.002-1.00839-.002-1.52544-.0239l-.007.14345-.13138-.15142c-.49964-.0229-1.00895-.0642-1.53274-.11156l-.0803.0797-.0803-.0956c-.49692-.0473-1.01008-.0967-1.52544-.16736l-.10218.0956-.10218-.11953c-.49978-.0713-1.01043-.15967-1.53274-.25502l-.10218.0956-.10948-.13547c-.50454-.0948-1.01614-.20066-1.54004-.31877l-.0219.0159-.0219-.0238c-.49902-.11302-1.00709-.23903-1.52544-.37454l-.0438.0399-.0511-.0638c-.97785-.25771-1.99175-.55676-3.04358-.90052l-.0803.0638-.0803-.11954c-.50305-.16598-1.0142-.33997-1.53273-.52597l-.13868.1036-.13868-.2072c-.0423-.0154-.0735-.024-.0949-.0319-.0684-.025-.14019-.033-.18977-.0319zm-.0219.53393v15.99411c-.0377-.0233-.0984-.0391-.12408-.0638-.0702-.0673-.0949-.12142-.0949-.23111v-15.30876c0-.0945.0383-.21243.0949-.29486 .0457-.0665.0859-.0843.12408-.0956zm30.35549.0239v16.08974c-.35097.10003-.70991.19196-1.06561.28689v-16.04989l1.06561-.32674zm-29.61102.19923c.36145.12661.72116.25002 1.07292.36659v16.06583c-.35657-.11373-.71439-.23406-1.07292-.35862v-16.0738zm27.87392.32674v16.03395c-.36019.0955-.71902.18829-1.08022.27892v-15.98613l1.08022-.32674zm-26.17333.23909c.88893.28571 1.75312.54073 2.59106.76504v15.9941c-.85681-.20159-1.71752-.42838-2.59106-.69331v-16.06583zm24.41432.28689v15.95426c-.35613.0859-.71566.17445-1.07292.25501v-15.89848l1.07292-.31079zm-1.58383.44627v15.87457c-.35532.0772-.70933.15194-1.06562.22314v-15.81082c.35856-.0908.71344-.19048 1.06562-.28689zm-19.67742.18329 1.06561.26298v15.93035c-.35333-.0689-.709-.144-1.06561-.22313v-15.9702zm18.0425.23111v15.79487c-.85881.16153-1.72066.30062-2.59105.42237v-15.67534c.8864-.15436 1.74618-.33966 2.59105-.5419zm-16.46598.14344 1.08022.22314v15.8666c-.35987-.0531-.7199-.11186-1.08022-.17533v-15.91441zm1.759.35064 1.07292.17533v15.7869l-1.07292-.1275v-15.83473zm11.48823.15939v15.65143c-.3571.0464-.71452.0807-1.07291.11954v-15.62753c.36035-.0446.72029-.0889 1.07291-.14344zm-9.74383.10359c.36024.0462.71591.0847 1.06562.11954v15.73113c-.35297-.0246-.70795-.0536-1.06562-.0877v-15.76301zm7.87535.13548v15.61159l-1.07291.0877v-15.61159c.36215-.0242.71874-.0526 1.07291-.0877zm-6.17474.0399c.36234.0313.71867.0602 1.07292.0797v15.67535c-.35628-.008-.71453-.0222-1.07292-.0399v-15.71519zm4.52523.0797v15.61956c-.35634.0193-.71384.037-1.07292.0478v-15.62752c.36163-.007.72126-.0215 1.07292-.0399zm-2.84651.0239 1.06561.0239v15.62753c-.35451.006-.71001.0106-1.06561.008v-15.65941z" fill="url(#w)" opacity=".47732"/>
  <path d="m113.01 834.23s3.9121-1.1412 5.9168-1.3844c6.8611-0.83231 12.895-1.7749 19.652-0.23072 1.5121 0.34555 5.2829 2.0765 5.2829 2.0765-8.326 1.7168-14.05 5.9198-30.852-0.46145z" fill="url(#v)"/>
  <path transform="matrix(.26541 0 0 .51003 141.5 892.37)" d="m-19-113.55c0 1.7489-13.368 3.1667-29.857 3.1667s-29.857-1.4178-29.857-3.1667 13.368-3.1667 29.857-3.1667 29.857 1.4178 29.857 3.1667z" fill="#fff" opacity=".30732"/>
  <path d="m174.22 882.62 4.2518-6.783 6.6017 3.6468-3.8181 7.0208z" fill="url(#u)"/>
  <path d="m177.28 883.71 3.6666-6.4581 0.92677 0.37917-3.7574 6.5616z" fill="#364e59" opacity=".36585"/>
  <path d="m176.94 884.01 3.6844-6.9332 4.4907 2.428-3.8752 6.9878z" fill="url(#t)" opacity=".66341"/>
  <path d="m179.07198,866.01099c-.12417-.0682-.3098.0209-.38734.15526l-3.75195,6.49857c-.0886.15347-.004.30321.11386.4356l.0361.0389 4.07226-7.05338-.0361-.0389c-.0146-.0166-.0291-.0263-.0469-.0361zm14.14533,8.17143-.0561-.0278-.74289-.18984-4.06055,7.03307 .73117.21015 .0847.0173 4.02343-6.96879 .0317-.0629-.0115-.0113zm.0814.10112-.0824.11932-3.94335,6.8301c.1036-.004.19384-.0467.25016-.14424l3.75195-6.49857c.0535-.0926.0628-.21327.0237-.3066zm-14.04066-8.0793-4.07031,7.04999c.19398.21451.39191.42514.58879.62861l4.06641-7.04322-.58489-.63538zm13.05186,7.72945-.83241-.21445-4.04297,7.00262c.27074.0842.54279.16563.81484.24489l4.05664-7.0263c.001-.003.002-.005.004-.007zm-12.40622-7.02742-4.06641,7.04322c.4009.41136.80406.79844 1.21628,1.1668l4.04492-7.00601c-.39197-.37287-.79021-.77523-1.19479-1.20401zm11.46008,6.78337c-.27357-.0728-.54641-.14848-.82121-.22605l-4.02149,6.96542c.26591.0895.53432.17593.80168.25989l4.04101-6.99924zm-.84346-.23439c-.26951-.0764-.53877-.15358-.81002-.23765l-4,6.9282c.26228.095.52469.18589.78854.27485l4.02148-6.96542zm-9.38372-5.30944-4.04297,7.00263c.20911.18606.42046.3698.6323.54548l4.02929-6.97895c-.2046-.18241-.41071-.3721-.61862-.56916zm8.52047,5.05461c-.51986-.16212-1.04403-.34205-1.57369-.54772l-3.96484,6.86731c.51012.21528 1.0213.4204 1.53853.60862l4-6.92821zm-7.88351-4.47035-4.02929,6.97895c.21705.17964.43682.34971.65663.51893l4.01172-6.9485-.63906-.54938zm.72739.62293-4.00976,6.94512c.22105.1685.44324.3348.66691.4933l3.99415-6.91805c-.21589-.16529-.43192-.33958-.6513-.52037zm5.5002,3.27026c-.25424-.0999-.50927-.20737-.76654-.32076l-3.95507,6.85039c.2519.11563.50481.22629.75872.3343l3.96289-6.86393zm-4.76004-2.68506-3.99218,6.91467c.22637.15888.45022.31508.67916.46429l.01-.0169 3.9707-6.87746c-.21967-.15373-.4443-.31544-.66745-.48459zm3.83151,2.29331c-.24632-.11119-.49545-.23217-.74504-.35797l-3.95313,6.84701 .74505.35798 3.95312-6.84702zm-3.09015-1.75707-3.97851,6.89099c.23154.14967.46614.2954.70012.43579l3.96484-6.86731c-.22822-.14481-.45467-.29876-.68645-.45947zm2.29244,1.37313c-.24049-.1221-.48353-.25105-.72747-.38842l-3.95508,6.8504 .72942.38504 3.95312-6.84701zm-1.54364-.87321-3.96289,6.86393c.2356.14064.47415.27548.71241.40669l3.95507-6.8504c-.23295-.13334-.46808-.2714-.70456-.42028z" fill="url(#s)" opacity=".66341"/>
  <path d="m179.16264,865.39526c-.10534-.0579-.2215-.0447-.31832-.004s-.18201.11214-.23638.20631l-3.75196,6.49858c-.0617.10691-.0657.22981-.032.32884s.0952.18203.15972.2546l.0361.0389 .0916-.0102 .0135.12507c.19505.21569.39443.4262.59218.63057l.0528-.006 .008.0722c.40277.41329.80662.80372 1.22108,1.17409l.0354-.007 .004.0388c.20982.18669.42231.37049.63566.54742l.016-.005 .002.0193c.21913.18136.44342.3535.66339.52284l.0727-.0167 .0175.0868c.22162.16894.44482.33548.6703.49525l.0728-.0167 .018.0781c.22656.15898.45141.31558.68254.46623l.062-.0138 .0137.062c.2328.15051.4684.29669.7035.43774l.0514-.0109 .0128.048c.2373.14163.4769.27707.71579.40865l.0907-.0243 .0243.0907 .7328.387 .0426-.0114 .01.0373c.24851.12512.49938.24375.74842.35994l.12326-.0416 .0368.11596c.25324.11626.50741.22792.7621.33625l.0626-.0225 .0177.0553c.51147.21586 1.02212.42143 1.54191.61058l.0412-.0168 .012.034c.26336.0954.5274.18765.79192.2768l.0179-.008 .005.016c.26694.0898.53711.17766.80507.26183l.0879-.0349 .0239.0679 .81679.24152 .0825-.0335 .0259.0645 .73455.21209c.0346.01.0686.0168.10023.0217l.0903-.0471 .0317.0544c.13507-.005.27631-.0723.35365-.20628l3.75195-6.49857c.0738-.12788.0852-.28128.0285-.41656l-.0506-.0608-.0354.007-.0229-.0854c.0221.0174.0183.005-.0198-.0204l-.004-.002c-.0177-.0113-.0455-.0308-.0885-.0421l-.7429-.18984-.0791.0355-.0293-.0665-.83241-.21446-.0845.037-.0293-.0665-.81777-.2243-.018.008-.004-.016c-.26924-.0763-.53705-.15213-.80664-.23571l-.0412.0168-.012-.034c-.51756-.16146-1.04027-.33932-1.56692-.54382l-.0626.0225-.0197-.0519c-.25233-.0991-.50516-.20935-.7612-.3222l-.12324.0416-.0354-.11064c-.24414-.11024-.49315-.23079-.74166-.35602l-.0426.0114-.01-.0374c-.23912-.12149-.48198-.2501-.72409-.38647l-.0854.0229-.0229-.0854c-.23215-.13288-.46689-.27071-.70116-.41838l-.0386.0589-.0238-.0994c-.22596-.14345-.45191-.29723-.68307-.45752l-.0567.0123-.0137-.062c-.21872-.15307-.44446-.31135-.66601-.47924l-.0708.0132-.0181-.0781c-.21417-.16401-.4292-.33817-.64791-.51841l-.0708.0132-.0175-.0868-.63567-.54743-.014.001-.005-.016c-.2036-.18152-.4082-.37096-.61523-.5672l-.03.005-.008-.0408c-.39007-.37106-.7867-.76933-1.18997-1.19672l-.0528.006-.008-.0722-.5815-.63342-.0897.007-.0135-.12506-.0362-.0389c-.0256-.0289-.0569-.0515-.0802-.0643zm-.141.2208-3.91991,6.7895c-.0117-.02-.036-.043-.0419-.0602-.0161-.0474-.0142-.0769.0127-.12351l3.75195-6.49857c.0231-.0401.0698-.0799.11624-.0998 .0374-.016.0605-.0128.0809-.007zm14.06369,8.13318-3.94337,6.8301-.56421-.1634 3.9336-6.81319 .57399.14645zm-13.77331-7.83926 .40745.44273-3.9375,6.81995c-.13739-.14369-.27375-.29053-.4094-.43935l3.93945-6.82333zm12.83927,7.59768-3.92969,6.80642-.56904-.17064 3.91797-6.78611 .58076.15033zm-12.18973-6.90241c.34199.35916.68003.69867 1.01343,1.01812l-3.91991,6.78951c-.34772-.31486-.69107-.64146-1.03102-.98768l3.9375-6.81995zm11.24553,6.65499-3.91015,6.77259-.5598-.17883 3.89649-6.74891 .57345.1552zm-.84346-.23439-3.89063,6.73876-.5486-.19043 3.87501-6.7117c.18843.0574.37735.11007.56421.1634zm-9.16526-5.18782 .42945.39679-3.90429,6.76244c-.14689-.12378-.29333-.25085-.43922-.37988l3.91406-6.77935zm8.30592,4.92622-3.87109,6.70494c-.43763-.16127-.8712-.33284-1.30445-.51407l3.8418-6.65419c.44866.17168.89259.3231 1.33374.46332zm-7.66701-4.34535 .44599.38378-3.88867,6.73537-.4577-.36348 3.90038-6.75567zm.72936.61955 .45431.36153-3.86914,6.70155c-.15512-.11185-.31159-.22419-.46603-.34124l3.88086-6.72184zm5.28563,3.14188-3.83593,6.64404-.52659-.23637 3.83008-6.63389c.17797.0774.35563.15503.53244.22622zm-4.54157-2.56345c.15564.11602.31106.22752.46461.3359l-3.85547,6.67787c-.1576-.10485-.31501-.21218-.47243-.32235l3.86328-6.6914zm3.61696,2.16493-3.82618,6.62713c-.17385-.0814-.34669-.16495-.51876-.24992l3.82617-6.62712c.17379.0866.34604.16999.51877.24991zm-2.8717-1.63546c.16025.11031.31835.21787.47777.32093l-3.8418,6.65419-.48751-.30404 3.85156-6.6711zm2.07788,1.24476-3.82812,6.63051-.50901-.2668 3.83007-6.63389 .50704.27022zm-1.32518-.75158 .48805.29529-3.83007,6.63388-.49591-.28169 3.83789-6.64742z" fill="url(#r)" opacity=".47732"/>
  <path d="m179.09 865.23s2.0929 0.56236 3.0817 0.99568c3.3841 1.4827 6.412 2.6974 9.1653 5.161 0.61614 0.55132 1.9396 2.2952 1.9396 2.2952-4.2798-1.4992-7.9628-1.2467-14.187-8.4518z" fill="url(#q)"/>
  <path transform="matrix(.12301 .07102 -.125 .21651 178.05 897.54)" d="m-19-113.55c0 1.7489-13.368 3.1667-29.857 3.1667s-29.857-1.4178-29.857-3.1667 13.368-3.1667 29.857-3.1667 29.857 1.4178 29.857 3.1667z" fill="#fff" opacity=".30732"/>
  <path transform="matrix(.45161 0 0 .28947 53.041 841.96)" d="m209 113.55c0 4.747-18.836 8.5952-42.071 8.5952s-42.071-3.8482-42.071-8.5952 18.836-8.5952 42.071-8.5952 42.071 3.8482 42.071 8.5952z" fill="url(#b)" filter="url(#h)" opacity=".47805"/>
  <path transform="matrix(.1842 0 0 .22808 144.5 860.69)" d="m209 113.55c0 4.747-18.836 8.5952-42.071 8.5952s-42.071-3.8482-42.071-8.5952 18.836-8.5952 42.071-8.5952 42.071 3.8482 42.071 8.5952z" fill="url(#b)" filter="url(#h)" opacity=".47805"/>
  <path transform="matrix(.53276 -.32508 .22036 .42318 -2.071 906.44)" d="m264.19 256.95c0 45.471-47.394 82.333-105.86 82.333s-105.86-36.862-105.86-82.333 47.394-82.333 105.86-82.333 105.86 36.862 105.86 82.333z" fill="url(#o)" opacity=".5561"/>
  <path d="m121.94 868.8c-51.875 3.1328-91.25 44.877-87.946 93.243s48.036 85.031 99.911 81.898 90.543-44.17 87.238-92.536-47.329-85.738-99.204-82.605zm0.70808 10.365c45.725-2.7615 86.57 29.573 89.482 72.206s-31.088 85.08-76.813 87.842-87.275-35.209-90.188-77.842 31.794-79.445 77.519-82.206z" fill="url(#p)"/>
  <path transform="matrix(.98081 0 0 .47931 -44.112 888.91)" d="m253.14 330.23c0 2.7337-33.241 4.9498-74.246 4.9498s-74.246-2.2161-74.246-4.9498 33.241-4.9498 74.246-4.9498 74.246 2.2161 74.246 4.9498z" fill="#2d2d2d" filter="url(#aa)" opacity=".39024"/>
 </g>
</svg>
