<?xml version='1.0' encoding='utf-8'?>
<svg xmlns="http://www.w3.org/2000/svg" id="beard" viewBox="0 0 278.33 354.55"><defs><style>.cls-1{fill:#800811;}.cls-2{fill:#e00;}.cls-3{fill:#fbbba1;}.cls-4{fill:#f69080;}.cls-5{fill:#fff;}.cls-6,.cls-7{fill:none;}.cls-6{stroke:#000;}.cls-11,.cls-6,.cls-7{stroke-miterlimit:10;}.cls-7{stroke:#aaa0a0;}.cls-8{fill:#a00;}.cls-9{fill:#6e0710;}.cls-10{fill:#e70013;}.cls-11{fill:#ff8b94;stroke:#e1ff73;}</style></defs><path class="cls-1" d="M179.33,330.34a8.51,8.51,0,1,1-8.5-9A8.75,8.75,0,0,1,179.33,330.34Z" transform="translate(-157.67 -204)"/><path class="cls-2" d="M172.33,339.33S175,356.67,187,358c0,0,15-5.67,18.67,5L215,373s11-23,50.33-27c0,0,3.67-1.33-31.33-6.67,0,0-21.67-4-38,2.34,0,0-11.82,5.54-19.07-5.07Z" transform="translate(-157.67 -204)"/><g id="Layer_3" data-name="Layer 3"><path class="cls-3" d="M238.33,383.67s2.34,10.5,1.84,11.33c0,0,1.33,12.17,9.33,12.83,0,0,5.89.95,6.52,0,0,0-.09-3.76,4.61-2.88l7.7-7.62,1-1.33,7.43-.56s5.16-2.44,5.28-7.77l1.29-1.34,10.55-1.66s4.29-3.05-.71-7.36c0,0-5.67-.31-5.17-2.81,0,0-3.5-8.67-3.33-9.83,0,0-14.17-1.17-24.17,5C260.5,369.67,239.5,381.83,238.33,383.67Z" transform="translate(-157.67 -204)"/><path class="cls-4" d="M249.5,407.83s-1.67-10.66,6.67-13.66c0,0,10-3.84,12.16,3.16,0,0-6.66,10.67-11.83,7.5C256.5,404.83,258.83,410.33,249.5,407.83Z" transform="translate(-157.67 -204)"/><path class="cls-4" d="M279.17,384.5s6.16-9.83,14.5-6.5c0,0,4.5,3.83-1,7.67,0,0-10.17,1-10.67,1.33S279.17,384.5,279.17,384.5Z" transform="translate(-157.67 -204)"/><path class="cls-4" d="M268.33,396h1s7.34,2.5,11.5-4.5c0,0,4.84-6.33-4.83-6.83" transform="translate(-157.67 -204)"/><path class="cls-3" d="M278.33,387.67a1.59,1.59,0,1,1-1.57-1.34A1.47,1.47,0,0,1,278.33,387.67Z" transform="translate(-157.67 -204)"/><g id="Layer_4" data-name="Layer 4"><path class="cls-2" d="M344.92,470.74l27.47-4.89s25.44,16.66,26.44,22.82c0,0,4.84,8.51,3.17,26.51,0,0-2.63,14,.35,19.5,0,0,.15,4.83,7.82,0,0,0,7.5-6.83,10-7,0,0,12.33-.33,6.83,10.67,0,0-9.17,12.83-24,12.5l1.33,3.67s-7.5,7.67-13.33,1.67c0,0-3.5-3.5-8.83-33,0,0-.17-17-15.67-13.17l-6.17.16-27.66,6.17S311,532,290.5,524.85l-7-3.83-3.33,1.33S268,525.68,266,519.18l-4.5-10.83-9.33-35-4.34-13.17-2.33-6s-36,2.17-38.5-2.33c0,0-12-8.51-16.33-23,0,0,11.33-4.33,11.33-8.33,0,0,5,6.83,15.5,6.17,0,0,14.17-1.5,14.17-3.17C231.67,423.5,338.85,464.49,344.92,470.74Z" transform="translate(-157.67 -204)"/><path class="cls-5" d="M245.67,389.84S240,384,249.36,377.31c0,0,9.31-3.64,11-1.64,0,0,1,4.5,0,5.33C260.33,381,248.33,383.5,245.67,389.84Z" transform="translate(-157.67 -204)"/><path class="cls-5" d="M268.33,369.17s1,5.8,4.17,5.9,4.3-5.75,9.54-4.07l4.46-.36s-1.83-4.3-5.5-4.64C281,366,271,365.17,268.33,369.17Z" transform="translate(-157.67 -204)"/><path d="M255.35,394.5s0-8.17,5.43-5.5l2.39,1.55S257.87,390.83,255.35,394.5Z" transform="translate(-157.67 -204)"/><path class="cls-6" d="M280.74,382.45" transform="translate(-157.67 -204)"/><path d="M283.5,380a2.88,2.88,0,1,1-2.87-2.65A2.77,2.77,0,0,1,283.5,380Z" transform="translate(-157.67 -204)"/><path class="cls-7" d="M258.17,410.33s12.4,6.63,20.16-8.66l.84-1.67s14,1.5,18-7.83c0,0,3.07-5.08-3-5.84" transform="translate(-157.67 -204)"/><path class="cls-7" d="M276.76,406s5.41,2.44,6.74-5.2l-4.33-.8Z" transform="translate(-157.67 -204)"/><path class="cls-7" d="M224.67,393.12s29-23.1,40.16-27.19c0,0,10.43-3.08,15.3-1.35" transform="translate(-157.67 -204)"/><path class="cls-2" d="M300,377.31S314.67,351,314.17,341c0,0,11.5,3.33,16.83-2.67,0,0,4.33,24.33,0,34l-7.67,26.71S317,379.12,300,377.31Z" transform="translate(-157.67 -204)"/><path class="cls-2" d="M324,400.8s33.5,14.37,38.67,46.87l1.16,8.66s16.67,13-15.16,25.34c0,0-16.84-33.17-22.84-37.5C325.83,444.17,335,426.94,324,400.8Z" transform="translate(-157.67 -204)"/><path class="cls-2" d="M363.75,455.7s7.42,4.13,7.92,7c0,0,6,14.83-16.67,27.5,0,0-10.83,5.5-13.5,5.5,0,0-7.5-22.84-15.17-27.34l-7.16-11s6.66-7.83,6.66-13.16" transform="translate(-157.67 -204)"/><path class="cls-6" d="M327.24,469l14.09-5.63,4.45,9.17-11.71,5.65S329.47,469.08,327.24,469Z" transform="translate(-157.67 -204)"/><path d="M342.17,465.05l.41-.27c2.9-1.89,19.95-13.15,20.17-16.48l-.25,3.63s-8.69,13.07-18,18Z" transform="translate(-157.67 -204)"/><polygon class="cls-6" points="182.56 261.85 184.5 266.74 175.34 272.15 173.33 266.74 182.56 261.85"/><g id="Layer_5" data-name="Layer 5"><path class="cls-1" d="M231.67,423.5v-5.59s-5.34-1.58-5.67-3.08-9.33,11.87-9.33,11.87L207,451.84s-8.5,26.5,8.33,42.66c0,0,14.5,16,30,18.34,0,0,12.5-.81,16.17-4.49l3-1.18L257.33,475s-5.16-30.83-29.66-24.5Z" transform="translate(-157.67 -204)"/><path d="M284.8,493.29l-.31.58-15.08,28.71s-2.1,12.79,10.75-.36c0,0,3.83-2,7.86-15.31,0,0,3.42-17,6.43-19.74l3.72-5.35-9.51,6.49,33.51,17.61" transform="translate(-157.67 -204)"/><path class="cls-8" d="M242.83,442.83l20.34,18.84s11.33,6.16,11.33,15.5c0,0,26.67,2.16,31.5-2.34,0,0,11-8,14.83-7.5,0,0,15.16-22.69,8-49.42,0,0,1.48,16-3,26.26,0,0-2.83,10.16-6.66,13.16,0,0-11,14.5-23.58,19.5l-18.83-1.5s3.74-14.83-15.09-23.66C261.67,451.67,244.67,444.83,242.83,442.83Z" transform="translate(-157.67 -204)"/><path d="M247.36,445.46s1.81,12.38.47,14.71-.47,0-.47,0l4.81,13.17s4.52-17.57,1.84-24.87Z" transform="translate(-157.67 -204)"/><path d="M324,506.34s19,22.84,20.5,23.34c0,0,6.17,2.83,10.33-2.67l2.34-6.83-2.84-2.5s10.8-9.43,7.84-19.77l-2.5-6.07-7.18-1.33s-7.6,6.33-6.71,16.33L338.62,488S324,485.84,324,506.34Z" transform="translate(-157.67 -204)"/><path class="cls-6" d="M350,497.91s-7.67,26.06-5.83,30.25" transform="translate(-157.67 -204)"/><path d="M382.17,523.19s12.33-13.52,19.83-8c0,0-1.93,14.57.53,20.28,0,0,1.4,4.21,9.35-2.28,0,0,9.72-10.88,15.59-2.77,0,0,4.72,7.13-7.54,14.78A27.12,27.12,0,0,1,403,550.85l1.33,3.67s-10.35,10-14.92-1.5C389.41,553,382.83,535,382.17,523.19Z" transform="translate(-157.67 -204)"/><polygon points="98.25 283.39 114.33 279.17 142.97 272.84 147.5 272.15 139.33 282 127.67 289.17 101.05 293.91 98.25 283.39"/><g id="Layer_6" data-name="Layer 6"><path d="M314.17,341a8,8,0,0,1-4.63-8.51s11,2.84,13.63,1.5c0,0,6.26-4.5,5.79-8.16,0,0,6.54,2.33,4.71,7.58,0,0-1.33,3.7-2.67,4.92C331,338.34,327.17,344.17,314.17,341Z" transform="translate(-157.67 -204)"/><path class="cls-9" d="M309.54,332.5s-7.21-3.66-7-9.49c0,0-1.83-7,8.83-10.34,0,0,10.67-1.33,15,3.67,0,0,3.43,4.83,2.63,9.5,0,0,1,4.1-6.48,8.39C322.48,334.23,311.26,333.57,309.54,332.5Z" transform="translate(-157.67 -204)"/><path class="cls-2" d="M157.67,378.59l1,31.08L193,413.34l7.17-30.72S158.5,378.5,157.67,378.59Z" transform="translate(-157.67 -204)"/><line class="cls-5" x1="2.33" y1="181.34" x2="38" y2="185"/><polygon class="cls-5" points="17.5 176.18 15.61 207.23 20.57 207.76 23.84 176.79 17.5 176.18"/><path class="cls-1" d="M176.34,380.29s-14.67-7-7-13.62c0,0,8.1-3.24,9.59,10.64,0,0,4.91-14.3,13.08-8.8,0,0,4.17,3.11-2.5,8.8,0,0-7.93,1-9.3,3.35Z" transform="translate(-157.67 -204)"/><path class="cls-5" d="M177.39,378.59s-8.56-4.42-6.56-8.92C170.83,369.67,177,370,177.39,378.59Z" transform="translate(-157.67 -204)"/><path class="cls-5" d="M180.2,378.59s5.47-10.93,9.8-8.09C190,370.5,195.73,373.84,180.2,378.59Z" transform="translate(-157.67 -204)"/><path class="cls-9" d="M167.12,410.57s-1.78,8.76,14.38,10.93c0,0,18,4.3,16.83-13L196.11,400,193,413.34Z" transform="translate(-157.67 -204)"/><path d="M181.5,421.5s-1.67,7.67,9.17,7.33c0,0,11.5-5.33,11.33-8.33,0,0,5.17-11-3.67-12C198.33,408.49,201.18,424.34,181.5,421.5Z" transform="translate(-157.67 -204)"/><path d="M168.75,204s18,37.5,62,77.5c0,0,26.5,22.75,31.25,25.5,0,0,20,13.67,28.25,14.33,0,0,9.51,5.35,12.76,4.51h20.24l19-8.34s34.71-24.76,48.88-43.9l.62-.85C405.5,253.5,414,248.25,431,215l5-11h-3s-18.75,35.5-20.5,35.75c0,0-30.5,42-40,49.75,0,0-25.5,25.42-48.25,31.83,0,0-21,1.09-23.25,0S287.76,319,265.44,305.5c0,0-31.29-24.18-53.69-46.75L170.83,204Z" transform="translate(-157.67 -204)"/><polygon points="24.83 22.66 21.67 25.5 25.83 29.5 28.13 27.35 24.83 22.66"/><polygon points="50.76 50.3 54.83 47.25 58.08 50.3 53.42 53.87 50.76 50.3"/><polygon points="73.08 77.5 70.08 83 75.08 85.75 76.34 80.28 73.08 77.5"/><polygon points="103.48 98.12 105.83 95 109.08 98.12 106.28 100.33 103.48 98.12"/><polygon points="134.33 118.27 132.08 120.75 136.33 124 138.46 120.21 134.33 118.27"/><polyline points="184.58 113.5 187.33 117.33 192.33 113.5 188.46 110.66 184.58 112.5"/><polygon points="211.06 89.05 206.58 85.75 210.08 81.63 214.83 85.5 211.06 89.05"/><polygon points="234.08 68.75 237.08 71.5 240.33 67.5 237.21 64.49 234.08 68.75"/><polygon points="252.05 39.54 247.83 37.75 249.94 33 254.83 35.75 252.05 39.54"/><g id="Layer_7" data-name="Layer 7"><path class="cls-10" d="M405.5,241.75s-8.25,6.5-13.75-8.25c0,0,9-7.5,15.86,3.5Z" transform="translate(-157.67 -204)"/><path class="cls-11" d="M394.75,275.5s1.5,11.25,14.25,8.75c0,0-.64-11.38-7.11-12.32a6.64,6.64,0,0,0-2.21.06C391.13,273.6,394.75,275.5,394.75,275.5Z" transform="translate(-157.67 -204)"/><polygon points="273.33 11 276.33 14 278.33 9.5 275.83 5.5 273.33 11"/></g></g></g></g></g><path class="cls-5" d="M215,373s-3.67,6.67-2.33,8.33l8,14.67s3.66,23.67,11,22c0,0,.33,24.67,25.33,31.67,0,0,25,9.33,19,26.33l-7.33,11.67s41.33-7.34,54.66-38c0,0,12.67-22.34,0-50,0,0-7.66-23.34-24.33-22,0,0-11.67-3.67-12.67-9,0,0,17.67,19,4.67,16.66L281.33,387s-.66,11.67-12,9c0,0-3,7.67-11.33,9l-6.67-1.67,3.67,3.34s-9.33,5-13.67-5.34l-3.66-17.66s33.33-23,48.66-18.67l-5-17.67s-14.66-1.55-17.72-1.14S227.33,352.67,215,373Z" transform="translate(-157.67 -204)"/></svg>